<svg width="76" height="58" viewBox="0 0 76 58" fill="none" xmlns="http://www.w3.org/2000/svg">
<circle cx="38.0002" cy="9.86053" r="8.36053" stroke="#2D3D4D" stroke-width="3"/>
<path d="M20.8408 26.476C22.8986 22.5571 24.8502 21.1825 29.5367 19.9541M46.1521 19.9541C51.0476 20.8315 52.9376 22.3256 55.0809 26.476" stroke="#2D3D4D" stroke-width="3"/>
<path d="M8.23972 20.5625L8.80732 22.3094C9.00813 22.9274 9.58407 23.3459 10.2339 23.3459H12.0707C12.5551 23.3459 12.7564 23.9657 12.3646 24.2504L10.8786 25.33C10.3529 25.712 10.1329 26.389 10.3337 27.0071L10.9013 28.754C11.051 29.2146 10.5237 29.5977 10.1319 29.313L8.64587 28.2334C8.12014 27.8514 7.40825 27.8514 6.88252 28.2334L5.39652 29.313C5.00466 29.5977 4.47742 29.2146 4.6271 28.754L5.1947 27.0071C5.39551 26.389 5.17552 25.712 4.64979 25.33L3.1638 24.2504C2.77194 23.9657 2.97333 23.3459 3.45769 23.3459H5.29448C5.94432 23.3459 6.52026 22.9274 6.72107 22.3094L7.28867 20.5625C7.43834 20.1019 8.09005 20.1019 8.23972 20.5625Z" stroke="#2D3D4D"/>
<path d="M68.7114 20.5625L69.279 22.3094C69.4798 22.9274 70.0557 23.3459 70.7056 23.3459H72.5424C73.0267 23.3459 73.2281 23.9657 72.8363 24.2504L71.3503 25.33C70.8245 25.712 70.6046 26.389 70.8054 27.0071L71.373 28.754C71.5226 29.2146 70.9954 29.5977 70.6035 29.313L69.1176 28.2334C68.5918 27.8514 67.8799 27.8514 67.3542 28.2334L65.8682 29.313C65.4763 29.5977 64.9491 29.2146 65.0988 28.754L65.6664 27.0071C65.8672 26.389 65.6472 25.712 65.1215 25.33L63.6355 24.2504C63.2436 23.9657 63.445 23.3459 63.9294 23.3459H65.7662C66.416 23.3459 66.9919 22.9274 67.1927 22.3094L67.7603 20.5625C67.91 20.1019 68.5617 20.1019 68.7114 20.5625Z" stroke="#2D3D4D"/>
<path d="M26.8191 46.0417H18.5114C18.5114 46.0417 17.3759 45.7007 17.0362 45.11C16.6735 44.4791 17.0362 43.2466 17.0362 43.2466" stroke="#2D3D4D" stroke-width="3"/>
<path d="M49.2578 45.9641H57.5657C57.5657 45.9641 58.7012 45.623 59.0409 45.0324C59.4037 44.4015 59.0409 43.1689 59.0409 43.1689" stroke="#2D3D4D" stroke-width="3"/>
<path d="M17.3574 29.9456L18.0122 31.9607C18.213 32.5787 18.7889 32.9972 19.4388 32.9972H21.5576C22.042 32.9972 22.2434 33.617 21.8515 33.9017L20.1373 35.1471C19.6116 35.5291 19.3916 36.2061 19.5924 36.8242L20.2472 38.8393C20.3969 39.3 19.8696 39.683 19.4778 39.3983L17.7636 38.1529C17.2378 37.7709 16.5259 37.7709 16.0002 38.1529L14.286 39.3983C13.8942 39.683 13.3669 39.3 13.5166 38.8393L14.1714 36.8242C14.3722 36.2061 14.1522 35.5291 13.6265 35.1471L11.9123 33.9017C11.5204 33.617 11.7218 32.9972 12.2062 32.9972H14.325C14.9749 32.9972 15.5508 32.5787 15.7516 31.9607L16.4064 29.9456C16.556 29.4849 17.2077 29.4849 17.3574 29.9456Z" stroke="#2D3D4D"/>
<path d="M59.5947 29.9456L60.2495 31.9607C60.4503 32.5787 61.0262 32.9972 61.6761 32.9972H63.7949C64.2793 32.9972 64.4807 33.617 64.0888 33.9017L62.3746 35.1471C61.8489 35.5291 61.6289 36.2061 61.8297 36.8242L62.4845 38.8393C62.6342 39.3 62.1069 39.683 61.7151 39.3983L60.0009 38.1529C59.4751 37.7709 58.7633 37.7709 58.2375 38.1529L56.5233 39.3983C56.1315 39.683 55.6042 39.3 55.7539 38.8393L56.4087 36.8242C56.6095 36.2061 56.3895 35.5291 55.8638 35.1471L54.1496 33.9017C53.7577 33.617 53.9591 32.9972 54.4435 32.9972H56.5623C57.2122 32.9972 57.7881 32.5787 57.9889 31.9607L58.6437 29.9456C58.7933 29.4849 59.4451 29.4849 59.5947 29.9456Z" stroke="#2D3D4D"/>
<path d="M38.3206 33.9829L40.091 39.4316C40.2918 40.0497 40.8678 40.4681 41.5176 40.4681H47.2467C47.7311 40.4681 47.9325 41.0879 47.5406 41.3726L42.9057 44.7401C42.3799 45.122 42.16 45.7991 42.3608 46.4171L44.1312 51.8658C44.2808 52.3265 43.7536 52.7095 43.3617 52.4248L38.7268 49.0574C38.2011 48.6754 37.4892 48.6754 36.9634 49.0574L32.3285 52.4248C31.9367 52.7095 31.4094 52.3265 31.5591 51.8658L33.3295 46.4171C33.5303 45.7991 33.3103 45.122 32.7846 44.7401L28.1496 41.3726C27.7578 41.0879 27.9592 40.4681 28.4435 40.4681H34.1726C34.8225 40.4681 35.3984 40.0497 35.5992 39.4316L37.3696 33.9829C37.5193 33.5223 38.171 33.5223 38.3206 33.9829Z" stroke="#2D3D4D"/>
</svg>
