<svg width="62" height="82" viewBox="0 0 62 82" fill="none" xmlns="http://www.w3.org/2000/svg">
<path d="M52.9148 24.8285C52.9148 37.9886 42.2464 48.657 29.0863 48.657C15.9262 48.657 5.25781 37.9886 5.25781 24.8285C5.25781 11.6684 15.9262 1 29.0863 1C42.2464 1 52.9148 11.6684 52.9148 24.8285Z" stroke="#2D3D4D" stroke-width="2"/>
<circle cx="29.0861" cy="24.8288" r="20.0666" stroke="#2D3D4D" stroke-width="2"/>
<path d="M29.0866 13.0171L31.514 20.4877L31.7385 21.1786H32.465H40.3201L33.9652 25.7957L33.3774 26.2228L33.6019 26.9137L36.0293 34.3843L29.6744 29.7672L29.0866 29.3402L28.4989 29.7672L22.144 34.3843L24.5713 26.9137L24.7959 26.2228L24.2081 25.7957L17.8532 21.1786H25.7083H26.4348L26.6593 20.4877L29.0866 13.0171Z" stroke="#2D3D4D" stroke-width="2"/>
<rect x="47.1436" y="22.5715" width="3.7619" height="3.00951" fill="#91A4B0"/>
<path d="M13.2389 43.6382L2 72.6047L12.2172 69.219L16.9853 79L25.4996 56.4286M31.719 48.9048L43.2095 79L48.3181 69.219L59.557 73.7333L48.3181 47.4001" stroke="#2D3D4D" stroke-width="2"/>
</svg>
