<svg width="127" height="124" viewBox="0 0 127 124" fill="none" xmlns="http://www.w3.org/2000/svg">
<path d="M106.299 40.6251L106.56 55.8872C103.02 55.8559 101.397 56.5207 99.5513 59.8726C98.9007 63.6258 99.5852 65.7035 101.051 67.1527C102.518 68.6019 103.633 69.2196 106.039 69.5246L106.124 84.1018C105.338 87.2632 104.082 88.1294 101.091 88.6759L26.2297 88.5118C21.8112 87.7521 21.3876 87.2201 20.1102 83.1451L20.0252 68.568C23.1487 68.243 24.6583 67.5712 26.6033 64.3279C27.1425 61.7795 27.1537 60.4436 26.1391 58.2423C24.9467 55.5272 22.9999 54.0887 20.1951 53.5606L20.9706 39.493C21.68 36.3722 23.0987 35.4466 27.1185 34.9981L101.901 36.2775C104.657 36.7828 105.649 37.8597 106.299 40.6251Z" fill="#B5C3CB" stroke="#2D3D4D" stroke-width="2"/>
<path d="M89.0022 2.99999L97.0022 16C93.9406 17.7764 92.8828 19.1752 93.0022 23C94.3546 26.5611 96.0022 28 98.0022 28.5C100.002 29 101.276 28.9634 103.502 28L111.002 40.5C111.937 43.6207 111.297 45.006 109.002 47L44.5022 85C40.3131 86.5976 39.6775 86.3556 36.5022 83.5L29.0022 71C31.5243 69.1289 32.481 67.7818 32.5022 64C31.6678 61.5325 30.9968 60.3773 29.0022 59C26.5928 57.2712 24.1847 57.0253 21.5022 58L15.0022 45.5C14.0225 42.4532 14.7718 40.9339 18.0022 38.5L83.0022 1.49999C85.6314 0.530504 87.0338 0.951689 89.0022 2.99999Z" fill="#B5C3CB" stroke="#2D3D4D" stroke-width="2"/>
<path d="M39.9839 53L36 57L37.5 60L43 58.2647M39.9839 53L36 46.5L39.5 45.5L45 49.6196M39.9839 53L45 49.6196M39.9839 53L43 58.2647M43 58.2647L49 55.3235M43 58.2647L46.5 65L49 62.5V55.3235M45 49.6196L52 44.9022M52 44.9022L41.5 33L45 30.5L59.5 39.8478M52 44.9022L59.5 39.8478M59.5 39.8478L61.5 38.5H71.5L67 46.5L64.5 47.7255M64.5 47.7255L65.5 64L61.5 67L56.5 51.6471M64.5 47.7255L56.5 51.6471M56.5 51.6471L49 55.3235" stroke="#2D3D4D" stroke-width="2"/>
<rect x="64" y="15.0864" width="2" height="4" rx="1" transform="rotate(-31 64 15.0864)" fill="#2D3D4D"/>
<rect x="66.5547" y="19.1194" width="2" height="4" rx="1" transform="rotate(-31 66.5547 19.1194)" fill="#2D3D4D"/>
<rect x="69.125" y="23.4053" width="2" height="4" rx="1" transform="rotate(-31 69.125 23.4053)" fill="#2D3D4D"/>
<rect x="71.7031" y="27.6912" width="2" height="4" rx="1" transform="rotate(-31 71.7031 27.6912)" fill="#2D3D4D"/>
<rect x="74.2734" y="31.9771" width="2" height="4" rx="1" transform="rotate(-31 74.2734 31.9771)" fill="#2D3D4D"/>
<rect x="76.8516" y="36.2627" width="2" height="4" rx="1" transform="rotate(-31 76.8516 36.2627)" fill="#2D3D4D"/>
<rect x="79.4297" y="40.5486" width="2" height="4" rx="1" transform="rotate(-31 79.4297 40.5486)" fill="#2D3D4D"/>
<rect x="82" y="44.8345" width="2" height="4" rx="1" transform="rotate(-31 82 44.8345)" fill="#2D3D4D"/>
<rect x="84.5781" y="49.1204" width="2" height="4" rx="1" transform="rotate(-31 84.5781 49.1204)" fill="#2D3D4D"/>
<rect x="87.1562" y="53.406" width="2" height="4" rx="1" transform="rotate(-31 87.1562 53.406)" fill="#2D3D4D"/>
<rect x="81" y="70" width="2" height="4" rx="1" fill="#2D3D4D"/>
<rect x="81" y="65" width="2" height="4" rx="1" fill="#2D3D4D"/>
<rect x="81.1094" y="74.771" width="2" height="4" rx="1" fill="#2D3D4D"/>
<rect x="81.1094" y="79.771" width="2" height="4" rx="1" fill="#2D3D4D"/>
<rect x="81.1094" y="84.771" width="2" height="4" rx="1" fill="#2D3D4D"/>
<rect x="91" y="48.4155" width="16.3397" height="3" rx="1.5" transform="rotate(-31 91 48.4155)" fill="#2D3D4D"/>
<rect x="86" y="81" width="16.3397" height="3" rx="1.5" fill="#2D3D4D"/>
<rect x="86" y="75" width="16.3397" height="3" rx="1.5" fill="#2D3D4D"/>
<rect x="88" y="43.4155" width="16.3397" height="3" rx="1.5" transform="rotate(-31 88 43.4155)" fill="#2D3D4D"/>
<rect x="72.3722" y="13.7577" width="14.3397" height="5.6561" rx="2" transform="rotate(-31 72.3722 13.7577)" stroke="#2D3D4D" stroke-width="2"/>
</svg>
