<svg width="447" height="284" viewBox="0 0 447 284" fill="none" xmlns="http://www.w3.org/2000/svg">
<rect width="447" height="284" fill="white"/>
<path d="M150 40C150 38.3431 151.343 37 153 37H322C323.657 37 325 38.3431 325 40V247C325 248.657 323.657 250 322 250H153C151.343 250 150 248.657 150 247V40Z" fill="#2D3D4D"/>
<rect x="179" y="92" width="119" height="20" rx="2" fill="white"/>
<rect x="179" y="125" width="119" height="20" rx="2" fill="white"/>
<rect x="179" y="158" width="119" height="20" rx="2" fill="white"/>
<path d="M190.675 101.818C190.675 102.278 190.592 102.676 190.426 103.011C190.26 103.347 190.032 103.605 189.742 103.787C189.452 103.969 189.121 104.06 188.749 104.06C188.377 104.06 188.046 103.969 187.756 103.787C187.466 103.605 187.238 103.347 187.072 103.011C186.906 102.676 186.823 102.278 186.823 101.818C186.823 101.358 186.906 100.96 187.072 100.625C187.238 100.29 187.466 100.031 187.756 99.8494C188.046 99.6676 188.377 99.5767 188.749 99.5767C189.121 99.5767 189.452 99.6676 189.742 99.8494C190.032 100.031 190.26 100.29 190.426 100.625C190.592 100.96 190.675 101.358 190.675 101.818ZM190.164 101.818C190.164 101.44 190.1 101.121 189.974 100.862C189.849 100.602 189.679 100.405 189.465 100.271C189.252 100.138 189.013 100.071 188.749 100.071C188.485 100.071 188.245 100.138 188.031 100.271C187.818 100.405 187.648 100.602 187.522 100.862C187.397 101.121 187.334 101.44 187.334 101.818C187.334 102.196 187.397 102.515 187.522 102.775C187.648 103.035 187.818 103.232 188.031 103.365C188.245 103.499 188.485 103.565 188.749 103.565C189.013 103.565 189.252 103.499 189.465 103.365C189.679 103.232 189.849 103.035 189.974 102.775C190.1 102.515 190.164 102.196 190.164 101.818ZM191.998 99.6364V104H191.495V99.6364H191.998ZM194.155 104.068C193.882 104.068 193.642 103.999 193.433 103.862C193.224 103.722 193.061 103.526 192.943 103.273C192.825 103.019 192.766 102.719 192.766 102.372C192.766 102.028 192.825 101.73 192.943 101.477C193.061 101.224 193.225 101.029 193.435 100.891C193.645 100.754 193.888 100.685 194.164 100.685C194.377 100.685 194.545 100.72 194.669 100.791C194.794 100.861 194.889 100.94 194.954 101.03C195.021 101.118 195.073 101.19 195.11 101.247H195.152V99.6364H195.655V104H195.169V103.497H195.11C195.073 103.557 195.02 103.632 194.952 103.723C194.884 103.812 194.786 103.893 194.66 103.964C194.534 104.033 194.365 104.068 194.155 104.068ZM194.223 103.616C194.425 103.616 194.595 103.564 194.735 103.459C194.874 103.352 194.98 103.205 195.052 103.018C195.124 102.829 195.161 102.611 195.161 102.364C195.161 102.119 195.125 101.906 195.054 101.722C194.983 101.538 194.878 101.394 194.739 101.292C194.6 101.188 194.428 101.136 194.223 101.136C194.01 101.136 193.833 101.191 193.691 101.3C193.55 101.408 193.444 101.555 193.373 101.741C193.303 101.926 193.269 102.134 193.269 102.364C193.269 102.597 193.304 102.808 193.375 102.999C193.448 103.187 193.554 103.338 193.695 103.45C193.837 103.561 194.013 103.616 194.223 103.616ZM198.401 104V99.6364H199.876C200.218 99.6364 200.498 99.6982 200.715 99.8217C200.934 99.9439 201.096 100.109 201.201 100.318C201.306 100.527 201.359 100.76 201.359 101.017C201.359 101.274 201.306 101.508 201.201 101.718C201.097 101.928 200.937 102.096 200.72 102.221C200.502 102.344 200.224 102.406 199.884 102.406H198.828V101.938H199.867C200.102 101.938 200.29 101.897 200.432 101.816C200.574 101.735 200.677 101.626 200.741 101.488C200.806 101.349 200.839 101.192 200.839 101.017C200.839 100.842 200.806 100.686 200.741 100.548C200.677 100.411 200.573 100.303 200.43 100.224C200.286 100.145 200.096 100.105 199.859 100.105H198.93V104H198.401ZM203.105 104.077C202.898 104.077 202.709 104.038 202.54 103.96C202.371 103.88 202.237 103.766 202.138 103.616C202.038 103.466 201.988 103.284 201.988 103.071C201.988 102.884 202.025 102.732 202.099 102.615C202.173 102.497 202.272 102.405 202.395 102.338C202.519 102.271 202.655 102.222 202.805 102.189C202.955 102.155 203.106 102.128 203.258 102.108C203.457 102.082 203.618 102.063 203.742 102.05C203.867 102.036 203.958 102.013 204.015 101.98C204.073 101.947 204.102 101.891 204.102 101.81V101.793C204.102 101.582 204.045 101.419 203.93 101.303C203.816 101.186 203.643 101.128 203.412 101.128C203.172 101.128 202.983 101.18 202.847 101.286C202.711 101.391 202.615 101.503 202.559 101.622L202.082 101.452C202.167 101.253 202.281 101.098 202.423 100.987C202.567 100.875 202.723 100.797 202.892 100.753C203.062 100.707 203.23 100.685 203.395 100.685C203.5 100.685 203.621 100.697 203.757 100.723C203.895 100.747 204.028 100.798 204.155 100.874C204.285 100.951 204.392 101.067 204.477 101.222C204.562 101.376 204.605 101.584 204.605 101.844V104H204.102V103.557H204.077C204.042 103.628 203.986 103.704 203.906 103.785C203.827 103.866 203.721 103.935 203.589 103.991C203.456 104.048 203.295 104.077 203.105 104.077ZM203.182 103.625C203.381 103.625 203.548 103.586 203.684 103.508C203.822 103.43 203.926 103.329 203.996 103.205C204.067 103.082 204.102 102.952 204.102 102.815V102.355C204.081 102.381 204.034 102.404 203.961 102.425C203.89 102.445 203.808 102.463 203.714 102.479C203.622 102.493 203.532 102.506 203.444 102.517C203.357 102.527 203.287 102.536 203.233 102.543C203.102 102.56 202.98 102.587 202.866 102.626C202.754 102.663 202.663 102.719 202.594 102.794C202.525 102.868 202.491 102.969 202.491 103.097C202.491 103.271 202.556 103.403 202.685 103.493C202.816 103.581 202.981 103.625 203.182 103.625ZM207.841 101.46L207.389 101.588C207.361 101.513 207.319 101.44 207.263 101.369C207.21 101.296 207.136 101.237 207.042 101.19C206.948 101.143 206.828 101.119 206.682 101.119C206.482 101.119 206.315 101.165 206.181 101.258C206.049 101.349 205.983 101.464 205.983 101.605C205.983 101.73 206.028 101.829 206.119 101.901C206.21 101.974 206.352 102.034 206.545 102.082L207.031 102.202C207.324 102.273 207.542 102.381 207.685 102.528C207.829 102.673 207.901 102.859 207.901 103.088C207.901 103.276 207.847 103.443 207.739 103.591C207.632 103.739 207.483 103.855 207.291 103.94C207.099 104.026 206.876 104.068 206.622 104.068C206.288 104.068 206.012 103.996 205.793 103.851C205.575 103.706 205.436 103.494 205.378 103.216L205.855 103.097C205.901 103.273 205.987 103.405 206.113 103.493C206.241 103.581 206.408 103.625 206.614 103.625C206.848 103.625 207.034 103.575 207.172 103.476C207.311 103.375 207.381 103.254 207.381 103.114C207.381 103 207.341 102.905 207.261 102.828C207.182 102.75 207.06 102.692 206.895 102.653L206.349 102.526C206.05 102.455 205.83 102.344 205.689 102.195C205.55 102.045 205.48 101.857 205.48 101.631C205.48 101.446 205.532 101.283 205.636 101.141C205.741 100.999 205.884 100.887 206.064 100.806C206.246 100.725 206.452 100.685 206.682 100.685C207.006 100.685 207.26 100.756 207.445 100.898C207.631 101.04 207.763 101.227 207.841 101.46ZM210.976 101.46L210.524 101.588C210.496 101.513 210.454 101.44 210.398 101.369C210.344 101.296 210.27 101.237 210.177 101.19C210.083 101.143 209.963 101.119 209.817 101.119C209.616 101.119 209.449 101.165 209.316 101.258C209.184 101.349 209.118 101.464 209.118 101.605C209.118 101.73 209.163 101.829 209.254 101.901C209.345 101.974 209.487 102.034 209.68 102.082L210.166 102.202C210.459 102.273 210.677 102.381 210.82 102.528C210.964 102.673 211.035 102.859 211.035 103.088C211.035 103.276 210.981 103.443 210.873 103.591C210.767 103.739 210.618 103.855 210.426 103.94C210.234 104.026 210.011 104.068 209.757 104.068C209.423 104.068 209.147 103.996 208.928 103.851C208.709 103.706 208.571 103.494 208.513 103.216L208.99 103.097C209.035 103.273 209.121 103.405 209.248 103.493C209.376 103.581 209.542 103.625 209.748 103.625C209.983 103.625 210.169 103.575 210.307 103.476C210.446 103.375 210.515 103.254 210.515 103.114C210.515 103 210.476 102.905 210.396 102.828C210.317 102.75 210.194 102.692 210.03 102.653L209.484 102.526C209.184 102.455 208.964 102.344 208.824 102.195C208.684 102.045 208.615 101.857 208.615 101.631C208.615 101.446 208.667 101.283 208.77 101.141C208.876 100.999 209.018 100.887 209.199 100.806C209.381 100.725 209.586 100.685 209.817 100.685C210.14 100.685 210.395 100.756 210.579 100.898C210.765 101.04 210.898 101.227 210.976 101.46ZM212.534 104L211.537 100.727H212.065L212.772 103.233H212.806L213.505 100.727H214.042L214.733 103.224H214.767L215.474 100.727H216.002L215.005 104H214.511L213.795 101.486H213.744L213.028 104H212.534ZM217.885 104.068C217.59 104.068 217.331 103.998 217.108 103.857C216.886 103.717 216.713 103.52 216.588 103.267C216.464 103.014 216.403 102.719 216.403 102.381C216.403 102.04 216.464 101.742 216.588 101.488C216.713 101.234 216.886 101.036 217.108 100.896C217.331 100.755 217.59 100.685 217.885 100.685C218.181 100.685 218.439 100.755 218.661 100.896C218.884 101.036 219.057 101.234 219.181 101.488C219.306 101.742 219.368 102.04 219.368 102.381C219.368 102.719 219.306 103.014 219.181 103.267C219.057 103.52 218.884 103.717 218.661 103.857C218.439 103.998 218.181 104.068 217.885 104.068ZM217.885 103.616C218.11 103.616 218.295 103.559 218.439 103.444C218.584 103.329 218.692 103.178 218.761 102.99C218.831 102.803 218.866 102.599 218.866 102.381C218.866 102.162 218.831 101.958 218.761 101.769C218.692 101.58 218.584 101.428 218.439 101.311C218.295 101.195 218.11 101.136 217.885 101.136C217.661 101.136 217.476 101.195 217.331 101.311C217.187 101.428 217.079 101.58 217.01 101.769C216.94 101.958 216.905 102.162 216.905 102.381C216.905 102.599 216.94 102.803 217.01 102.99C217.079 103.178 217.187 103.329 217.331 103.444C217.476 103.559 217.661 103.616 217.885 103.616ZM220.136 104V100.727H220.622V101.222H220.656C220.716 101.06 220.824 100.928 220.98 100.827C221.136 100.727 221.312 100.676 221.508 100.676C221.545 100.676 221.591 100.677 221.647 100.678C221.702 100.68 221.744 100.682 221.772 100.685V101.196C221.755 101.192 221.716 101.185 221.655 101.177C221.596 101.167 221.532 101.162 221.466 101.162C221.306 101.162 221.164 101.195 221.039 101.262C220.916 101.327 220.818 101.418 220.745 101.535C220.674 101.65 220.639 101.781 220.639 101.929V104H220.136ZM223.505 104.068C223.232 104.068 222.991 103.999 222.782 103.862C222.574 103.722 222.41 103.526 222.292 103.273C222.174 103.019 222.115 102.719 222.115 102.372C222.115 102.028 222.174 101.73 222.292 101.477C222.41 101.224 222.574 101.029 222.784 100.891C222.995 100.754 223.238 100.685 223.513 100.685C223.726 100.685 223.895 100.72 224.018 100.791C224.143 100.861 224.238 100.94 224.304 101.03C224.37 101.118 224.422 101.19 224.459 101.247H224.502V99.6364H225.005V104H224.519V103.497H224.459C224.422 103.557 224.37 103.632 224.301 103.723C224.233 103.812 224.136 103.893 224.01 103.964C223.883 104.033 223.715 104.068 223.505 104.068ZM223.573 103.616C223.775 103.616 223.945 103.564 224.084 103.459C224.223 103.352 224.329 103.205 224.402 103.018C224.474 102.829 224.51 102.611 224.51 102.364C224.51 102.119 224.475 101.906 224.404 101.722C224.333 101.538 224.228 101.394 224.088 101.292C223.949 101.188 223.777 101.136 223.573 101.136C223.36 101.136 223.182 101.191 223.04 101.3C222.9 101.408 222.794 101.555 222.723 101.741C222.653 101.926 222.618 102.134 222.618 102.364C222.618 102.597 222.654 102.808 222.725 102.999C222.797 103.187 222.904 103.338 223.044 103.45C223.186 103.561 223.363 103.616 223.573 103.616Z" fill="black"/>
<path d="M190.371 132.636V137H189.86L187.482 133.574H187.44V137H186.911V132.636H187.423L189.809 136.071H189.852V132.636H190.371ZM192.733 137.068C192.417 137.068 192.145 136.999 191.917 136.859C191.689 136.719 191.514 136.523 191.39 136.271C191.268 136.018 191.207 135.724 191.207 135.389C191.207 135.054 191.268 134.759 191.39 134.503C191.514 134.246 191.686 134.045 191.906 133.902C192.128 133.757 192.386 133.685 192.682 133.685C192.852 133.685 193.02 133.713 193.187 133.77C193.353 133.827 193.504 133.919 193.64 134.047C193.777 134.173 193.885 134.341 193.966 134.55C194.047 134.759 194.088 135.016 194.088 135.321V135.534H191.565V135.099H193.577C193.577 134.915 193.54 134.75 193.466 134.605C193.393 134.46 193.29 134.346 193.155 134.262C193.021 134.178 192.863 134.136 192.682 134.136C192.481 134.136 192.308 134.186 192.162 134.286C192.017 134.384 191.905 134.511 191.827 134.669C191.749 134.827 191.71 134.996 191.71 135.176V135.466C191.71 135.713 191.753 135.923 191.838 136.094C191.925 136.265 192.045 136.395 192.198 136.484C192.351 136.572 192.53 136.616 192.733 136.616C192.865 136.616 192.984 136.598 193.091 136.561C193.199 136.523 193.292 136.466 193.37 136.391C193.448 136.314 193.508 136.219 193.551 136.105L194.037 136.241C193.986 136.406 193.9 136.551 193.779 136.676C193.658 136.8 193.509 136.896 193.331 136.966C193.154 137.034 192.954 137.068 192.733 137.068ZM195.594 137L194.597 133.727H195.126L195.833 136.233H195.867L196.566 133.727H197.103L197.793 136.224H197.827L198.535 133.727H199.063L198.066 137H197.572L196.856 134.486H196.805L196.089 137H195.594ZM201.483 137V132.636H202.958C203.3 132.636 203.58 132.698 203.797 132.822C204.016 132.944 204.178 133.109 204.283 133.318C204.388 133.527 204.441 133.76 204.441 134.017C204.441 134.274 204.388 134.508 204.283 134.718C204.18 134.928 204.019 135.096 203.802 135.221C203.584 135.344 203.306 135.406 202.966 135.406H201.91V134.938H202.949C203.184 134.938 203.372 134.897 203.514 134.816C203.656 134.735 203.759 134.626 203.823 134.488C203.888 134.349 203.921 134.192 203.921 134.017C203.921 133.842 203.888 133.686 203.823 133.548C203.759 133.411 203.655 133.303 203.512 133.224C203.368 133.145 203.178 133.105 202.941 133.105H202.012V137H201.483ZM206.187 137.077C205.98 137.077 205.791 137.038 205.622 136.96C205.453 136.88 205.319 136.766 205.22 136.616C205.12 136.466 205.07 136.284 205.07 136.071C205.07 135.884 205.107 135.732 205.181 135.615C205.255 135.497 205.354 135.405 205.477 135.338C205.601 135.271 205.737 135.222 205.887 135.189C206.037 135.155 206.188 135.128 206.34 135.108C206.539 135.082 206.7 135.063 206.824 135.05C206.949 135.036 207.04 135.013 207.097 134.98C207.155 134.947 207.184 134.891 207.184 134.81V134.793C207.184 134.582 207.127 134.419 207.012 134.303C206.898 134.186 206.725 134.128 206.494 134.128C206.254 134.128 206.066 134.18 205.929 134.286C205.793 134.391 205.697 134.503 205.642 134.622L205.164 134.452C205.249 134.253 205.363 134.098 205.505 133.987C205.649 133.875 205.805 133.797 205.974 133.753C206.144 133.707 206.312 133.685 206.477 133.685C206.582 133.685 206.703 133.697 206.839 133.723C206.977 133.747 207.11 133.798 207.237 133.874C207.367 133.951 207.474 134.067 207.559 134.222C207.644 134.376 207.687 134.584 207.687 134.844V137H207.184V136.557H207.159C207.124 136.628 207.068 136.704 206.988 136.785C206.909 136.866 206.803 136.935 206.671 136.991C206.539 137.048 206.377 137.077 206.187 137.077ZM206.264 136.625C206.463 136.625 206.63 136.586 206.767 136.508C206.904 136.43 207.008 136.329 207.078 136.205C207.149 136.082 207.184 135.952 207.184 135.815V135.355C207.163 135.381 207.116 135.404 207.044 135.425C206.972 135.445 206.89 135.463 206.796 135.479C206.704 135.493 206.614 135.506 206.526 135.517C206.439 135.527 206.369 135.536 206.315 135.543C206.184 135.56 206.062 135.587 205.948 135.626C205.836 135.663 205.745 135.719 205.676 135.794C205.607 135.868 205.573 135.969 205.573 136.097C205.573 136.271 205.638 136.403 205.767 136.493C205.898 136.581 206.063 136.625 206.264 136.625ZM210.923 134.46L210.471 134.588C210.443 134.513 210.401 134.44 210.346 134.369C210.292 134.296 210.218 134.237 210.124 134.19C210.03 134.143 209.91 134.119 209.764 134.119C209.564 134.119 209.397 134.165 209.263 134.258C209.131 134.349 209.065 134.464 209.065 134.605C209.065 134.73 209.11 134.829 209.201 134.901C209.292 134.974 209.434 135.034 209.627 135.082L210.113 135.202C210.406 135.273 210.624 135.381 210.767 135.528C210.911 135.673 210.983 135.859 210.983 136.088C210.983 136.276 210.929 136.443 210.821 136.591C210.714 136.739 210.565 136.855 210.373 136.94C210.181 137.026 209.958 137.068 209.704 137.068C209.37 137.068 209.094 136.996 208.875 136.851C208.657 136.706 208.518 136.494 208.46 136.216L208.937 136.097C208.983 136.273 209.069 136.405 209.195 136.493C209.323 136.581 209.49 136.625 209.696 136.625C209.93 136.625 210.116 136.575 210.254 136.476C210.393 136.375 210.463 136.254 210.463 136.114C210.463 136 210.423 135.905 210.343 135.828C210.264 135.75 210.142 135.692 209.977 135.653L209.431 135.526C209.132 135.455 208.912 135.344 208.771 135.195C208.632 135.045 208.562 134.857 208.562 134.631C208.562 134.446 208.614 134.283 208.718 134.141C208.823 133.999 208.966 133.887 209.146 133.806C209.328 133.725 209.534 133.685 209.764 133.685C210.088 133.685 210.342 133.756 210.527 133.898C210.713 134.04 210.845 134.227 210.923 134.46ZM214.058 134.46L213.606 134.588C213.578 134.513 213.536 134.44 213.48 134.369C213.426 134.296 213.352 134.237 213.259 134.19C213.165 134.143 213.045 134.119 212.899 134.119C212.698 134.119 212.531 134.165 212.398 134.258C212.266 134.349 212.2 134.464 212.2 134.605C212.2 134.73 212.245 134.829 212.336 134.901C212.427 134.974 212.569 135.034 212.762 135.082L213.248 135.202C213.541 135.273 213.759 135.381 213.902 135.528C214.046 135.673 214.117 135.859 214.117 136.088C214.117 136.276 214.063 136.443 213.955 136.591C213.849 136.739 213.7 136.855 213.508 136.94C213.316 137.026 213.093 137.068 212.839 137.068C212.505 137.068 212.229 136.996 212.01 136.851C211.791 136.706 211.653 136.494 211.595 136.216L212.072 136.097C212.117 136.273 212.203 136.405 212.33 136.493C212.458 136.581 212.624 136.625 212.83 136.625C213.065 136.625 213.251 136.575 213.389 136.476C213.528 136.375 213.597 136.254 213.597 136.114C213.597 136 213.558 135.905 213.478 135.828C213.399 135.75 213.276 135.692 213.112 135.653L212.566 135.526C212.267 135.455 212.046 135.344 211.906 135.195C211.767 135.045 211.697 134.857 211.697 134.631C211.697 134.446 211.749 134.283 211.852 134.141C211.958 133.999 212.1 133.887 212.281 133.806C212.463 133.725 212.669 133.685 212.899 133.685C213.222 133.685 213.477 133.756 213.661 133.898C213.847 134.04 213.98 134.227 214.058 134.46ZM215.616 137L214.619 133.727H215.147L215.854 136.233H215.888L216.587 133.727H217.124L217.815 136.224H217.849L218.556 133.727H219.085L218.087 137H217.593L216.877 134.486H216.826L216.11 137H215.616ZM220.968 137.068C220.672 137.068 220.413 136.998 220.19 136.857C219.968 136.717 219.795 136.52 219.67 136.267C219.546 136.014 219.485 135.719 219.485 135.381C219.485 135.04 219.546 134.742 219.67 134.488C219.795 134.234 219.968 134.036 220.19 133.896C220.413 133.755 220.672 133.685 220.968 133.685C221.263 133.685 221.521 133.755 221.743 133.896C221.966 134.036 222.139 134.234 222.263 134.488C222.388 134.742 222.45 135.04 222.45 135.381C222.45 135.719 222.388 136.014 222.263 136.267C222.139 136.52 221.966 136.717 221.743 136.857C221.521 136.998 221.263 137.068 220.968 137.068ZM220.968 136.616C221.192 136.616 221.377 136.559 221.521 136.444C221.666 136.329 221.774 136.178 221.843 135.99C221.913 135.803 221.948 135.599 221.948 135.381C221.948 135.162 221.913 134.958 221.843 134.769C221.774 134.58 221.666 134.428 221.521 134.311C221.377 134.195 221.192 134.136 220.968 134.136C220.743 134.136 220.558 134.195 220.414 134.311C220.269 134.428 220.161 134.58 220.092 134.769C220.022 134.958 219.987 135.162 219.987 135.381C219.987 135.599 220.022 135.803 220.092 135.99C220.161 136.178 220.269 136.329 220.414 136.444C220.558 136.559 220.743 136.616 220.968 136.616ZM223.218 137V133.727H223.704V134.222H223.738C223.798 134.06 223.906 133.928 224.062 133.827C224.218 133.727 224.394 133.676 224.59 133.676C224.627 133.676 224.673 133.677 224.729 133.678C224.784 133.68 224.826 133.682 224.854 133.685V134.196C224.837 134.192 224.798 134.185 224.737 134.177C224.678 134.167 224.614 134.162 224.548 134.162C224.388 134.162 224.246 134.195 224.121 134.262C223.998 134.327 223.9 134.418 223.827 134.535C223.756 134.65 223.721 134.781 223.721 134.929V137H223.218ZM226.587 137.068C226.314 137.068 226.073 136.999 225.864 136.862C225.656 136.722 225.492 136.526 225.374 136.273C225.256 136.019 225.197 135.719 225.197 135.372C225.197 135.028 225.256 134.73 225.374 134.477C225.492 134.224 225.656 134.029 225.866 133.891C226.077 133.754 226.32 133.685 226.595 133.685C226.808 133.685 226.977 133.72 227.1 133.791C227.225 133.861 227.32 133.94 227.386 134.03C227.452 134.118 227.504 134.19 227.541 134.247H227.584V132.636H228.087V137H227.601V136.497H227.541C227.504 136.557 227.452 136.632 227.384 136.723C227.315 136.812 227.218 136.893 227.092 136.964C226.965 137.033 226.797 137.068 226.587 137.068ZM226.655 136.616C226.857 136.616 227.027 136.564 227.166 136.459C227.305 136.352 227.411 136.205 227.484 136.018C227.556 135.829 227.592 135.611 227.592 135.364C227.592 135.119 227.557 134.906 227.486 134.722C227.415 134.538 227.31 134.394 227.17 134.292C227.031 134.188 226.859 134.136 226.655 134.136C226.442 134.136 226.264 134.191 226.122 134.3C225.982 134.408 225.876 134.555 225.805 134.741C225.735 134.926 225.7 135.134 225.7 135.364C225.7 135.597 225.736 135.808 225.807 135.999C225.879 136.187 225.986 136.338 226.126 136.45C226.268 136.561 226.445 136.616 226.655 136.616Z" fill="black"/>
<path d="M190.335 167H189.806C189.775 166.848 189.72 166.714 189.642 166.599C189.566 166.484 189.472 166.388 189.361 166.31C189.252 166.23 189.13 166.17 188.997 166.131C188.863 166.091 188.724 166.071 188.579 166.071C188.315 166.071 188.075 166.138 187.861 166.271C187.648 166.405 187.478 166.602 187.352 166.862C187.227 167.121 187.164 167.44 187.164 167.818C187.164 168.196 187.227 168.515 187.352 168.775C187.478 169.035 187.648 169.232 187.861 169.365C188.075 169.499 188.315 169.565 188.579 169.565C188.724 169.565 188.863 169.545 188.997 169.506C189.13 169.466 189.252 169.407 189.361 169.329C189.472 169.249 189.566 169.152 189.642 169.037C189.72 168.92 189.775 168.787 189.806 168.636H190.335C190.295 168.859 190.222 169.059 190.117 169.235C190.012 169.411 189.882 169.561 189.725 169.685C189.569 169.807 189.394 169.9 189.199 169.964C189.006 170.028 188.799 170.06 188.579 170.06C188.207 170.06 187.876 169.969 187.586 169.787C187.296 169.605 187.068 169.347 186.902 169.011C186.736 168.676 186.653 168.278 186.653 167.818C186.653 167.358 186.736 166.96 186.902 166.625C187.068 166.29 187.296 166.031 187.586 165.849C187.876 165.668 188.207 165.577 188.579 165.577C188.799 165.577 189.006 165.609 189.199 165.673C189.394 165.737 189.569 165.83 189.725 165.954C189.882 166.076 190.012 166.225 190.117 166.401C190.222 166.576 190.295 166.776 190.335 167ZM192.45 170.068C192.154 170.068 191.895 169.998 191.672 169.857C191.451 169.717 191.277 169.52 191.152 169.267C191.029 169.014 190.967 168.719 190.967 168.381C190.967 168.04 191.029 167.742 191.152 167.488C191.277 167.234 191.451 167.036 191.672 166.896C191.895 166.755 192.154 166.685 192.45 166.685C192.745 166.685 193.004 166.755 193.225 166.896C193.449 167.036 193.622 167.234 193.745 167.488C193.87 167.742 193.933 168.04 193.933 168.381C193.933 168.719 193.87 169.014 193.745 169.267C193.622 169.52 193.449 169.717 193.225 169.857C193.004 169.998 192.745 170.068 192.45 170.068ZM192.45 169.616C192.674 169.616 192.859 169.559 193.004 169.444C193.149 169.329 193.256 169.178 193.326 168.99C193.395 168.803 193.43 168.599 193.43 168.381C193.43 168.162 193.395 167.958 193.326 167.769C193.256 167.58 193.149 167.428 193.004 167.311C192.859 167.195 192.674 167.136 192.45 167.136C192.225 167.136 192.041 167.195 191.896 167.311C191.751 167.428 191.644 167.58 191.574 167.769C191.505 167.958 191.47 168.162 191.47 168.381C191.47 168.599 191.505 168.803 191.574 168.99C191.644 169.178 191.751 169.329 191.896 169.444C192.041 169.559 192.225 169.616 192.45 169.616ZM195.203 168.031V170H194.7V166.727H195.186V167.239H195.229C195.306 167.072 195.422 166.939 195.578 166.838C195.735 166.736 195.936 166.685 196.183 166.685C196.405 166.685 196.599 166.73 196.765 166.821C196.931 166.911 197.061 167.047 197.153 167.23C197.245 167.412 197.291 167.642 197.291 167.92V170H196.789V167.955C196.789 167.697 196.722 167.497 196.588 167.354C196.455 167.209 196.271 167.136 196.039 167.136C195.878 167.136 195.735 167.171 195.608 167.241C195.483 167.31 195.384 167.412 195.312 167.545C195.24 167.679 195.203 167.841 195.203 168.031ZM199.668 166.727V167.153H197.903V166.727H199.668ZM198.432 170V166.276C198.432 166.088 198.476 165.932 198.564 165.807C198.652 165.682 198.766 165.588 198.907 165.526C199.048 165.463 199.196 165.432 199.352 165.432C199.476 165.432 199.577 165.442 199.655 165.462C199.733 165.482 199.791 165.5 199.83 165.517L199.685 165.952C199.659 165.943 199.624 165.933 199.578 165.92C199.534 165.907 199.476 165.901 199.403 165.901C199.237 165.901 199.117 165.942 199.043 166.026C198.971 166.11 198.935 166.233 198.935 166.395V170H198.432ZM200.372 170V166.727H200.875V170H200.372ZM200.628 166.182C200.53 166.182 200.445 166.148 200.374 166.082C200.305 166.015 200.27 165.935 200.27 165.841C200.27 165.747 200.305 165.667 200.374 165.6C200.445 165.533 200.53 165.5 200.628 165.5C200.726 165.5 200.81 165.533 200.879 165.6C200.95 165.667 200.986 165.747 200.986 165.841C200.986 165.935 200.95 166.015 200.879 166.082C200.81 166.148 200.726 166.182 200.628 166.182ZM201.796 170V166.727H202.282V167.222H202.316C202.376 167.06 202.484 166.928 202.64 166.827C202.796 166.727 202.972 166.676 203.168 166.676C203.205 166.676 203.251 166.677 203.307 166.678C203.362 166.68 203.404 166.682 203.433 166.685V167.196C203.415 167.192 203.376 167.185 203.315 167.177C203.256 167.167 203.192 167.162 203.126 167.162C202.967 167.162 202.825 167.195 202.7 167.262C202.576 167.327 202.478 167.418 202.406 167.535C202.335 167.65 202.299 167.781 202.299 167.929V170H201.796ZM204.029 170V166.727H204.514V167.239H204.557C204.625 167.064 204.735 166.928 204.887 166.832C205.039 166.734 205.222 166.685 205.435 166.685C205.651 166.685 205.83 166.734 205.974 166.832C206.119 166.928 206.232 167.064 206.313 167.239H206.347C206.431 167.07 206.556 166.935 206.724 166.836C206.892 166.735 207.093 166.685 207.327 166.685C207.619 166.685 207.859 166.776 208.045 166.96C208.231 167.141 208.324 167.425 208.324 167.81V170H207.821V167.81C207.821 167.568 207.755 167.396 207.623 167.292C207.491 167.188 207.335 167.136 207.156 167.136C206.926 167.136 206.748 167.206 206.622 167.345C206.495 167.483 206.432 167.658 206.432 167.869V170H205.921V167.759C205.921 167.572 205.86 167.423 205.74 167.309C205.619 167.194 205.463 167.136 205.273 167.136C205.142 167.136 205.02 167.171 204.906 167.241C204.794 167.31 204.703 167.407 204.634 167.531C204.566 167.653 204.531 167.794 204.531 167.955V170H204.029ZM214.459 165.636V170H213.948L211.57 166.574H211.528V170H210.999V165.636H211.51L213.897 169.071H213.939V165.636H214.459ZM216.821 170.068C216.505 170.068 216.233 169.999 216.005 169.859C215.777 169.719 215.602 169.523 215.478 169.271C215.356 169.018 215.295 168.724 215.295 168.389C215.295 168.054 215.356 167.759 215.478 167.503C215.602 167.246 215.774 167.045 215.994 166.902C216.216 166.757 216.474 166.685 216.77 166.685C216.94 166.685 217.108 166.713 217.275 166.77C217.441 166.827 217.592 166.919 217.728 167.047C217.865 167.173 217.973 167.341 218.054 167.55C218.135 167.759 218.176 168.016 218.176 168.321V168.534H215.653V168.099H217.664C217.664 167.915 217.627 167.75 217.554 167.605C217.481 167.46 217.377 167.346 217.243 167.262C217.109 167.178 216.951 167.136 216.77 167.136C216.569 167.136 216.396 167.186 216.25 167.286C216.105 167.384 215.993 167.511 215.915 167.669C215.837 167.827 215.798 167.996 215.798 168.176V168.466C215.798 168.713 215.841 168.923 215.926 169.094C216.012 169.265 216.132 169.395 216.286 169.484C216.439 169.572 216.618 169.616 216.821 169.616C216.953 169.616 217.072 169.598 217.179 169.561C217.287 169.523 217.38 169.466 217.458 169.391C217.536 169.314 217.596 169.219 217.639 169.105L218.125 169.241C218.074 169.406 217.988 169.551 217.867 169.676C217.746 169.8 217.597 169.896 217.419 169.966C217.242 170.034 217.042 170.068 216.821 170.068ZM219.682 170L218.685 166.727H219.213L219.921 169.233H219.955L220.654 166.727H221.191L221.881 169.224H221.915L222.623 166.727H223.151L222.154 170H221.659L220.944 167.486H220.892L220.176 170H219.682ZM225.571 170V165.636H227.046C227.388 165.636 227.668 165.698 227.885 165.822C228.104 165.944 228.266 166.109 228.371 166.318C228.476 166.527 228.529 166.76 228.529 167.017C228.529 167.274 228.476 167.508 228.371 167.718C228.267 167.928 228.107 168.096 227.89 168.221C227.672 168.344 227.394 168.406 227.054 168.406H225.998V167.938H227.037C227.272 167.938 227.46 167.897 227.602 167.816C227.744 167.735 227.847 167.626 227.911 167.488C227.976 167.349 228.009 167.192 228.009 167.017C228.009 166.842 227.976 166.686 227.911 166.548C227.847 166.411 227.743 166.303 227.6 166.224C227.456 166.145 227.266 166.105 227.029 166.105H226.1V170H225.571ZM230.275 170.077C230.067 170.077 229.879 170.038 229.71 169.96C229.541 169.88 229.407 169.766 229.308 169.616C229.208 169.466 229.158 169.284 229.158 169.071C229.158 168.884 229.195 168.732 229.269 168.615C229.343 168.497 229.442 168.405 229.565 168.338C229.689 168.271 229.825 168.222 229.974 168.189C230.125 168.155 230.276 168.128 230.428 168.108C230.627 168.082 230.788 168.063 230.912 168.05C231.037 168.036 231.128 168.013 231.185 167.98C231.243 167.947 231.272 167.891 231.272 167.81V167.793C231.272 167.582 231.214 167.419 231.099 167.303C230.986 167.186 230.813 167.128 230.582 167.128C230.342 167.128 230.153 167.18 230.017 167.286C229.881 167.391 229.785 167.503 229.729 167.622L229.252 167.452C229.337 167.253 229.451 167.098 229.593 166.987C229.737 166.875 229.893 166.797 230.062 166.753C230.232 166.707 230.4 166.685 230.565 166.685C230.67 166.685 230.79 166.697 230.927 166.723C231.065 166.747 231.197 166.798 231.325 166.874C231.455 166.951 231.562 167.067 231.647 167.222C231.732 167.376 231.775 167.584 231.775 167.844V170H231.272V169.557H231.246C231.212 169.628 231.156 169.704 231.076 169.785C230.996 169.866 230.891 169.935 230.759 169.991C230.626 170.048 230.465 170.077 230.275 170.077ZM230.352 169.625C230.55 169.625 230.718 169.586 230.854 169.508C230.992 169.43 231.096 169.329 231.165 169.205C231.237 169.082 231.272 168.952 231.272 168.815V168.355C231.251 168.381 231.204 168.404 231.131 168.425C231.06 168.445 230.978 168.463 230.884 168.479C230.792 168.493 230.702 168.506 230.614 168.517C230.527 168.527 230.457 168.536 230.403 168.543C230.272 168.56 230.15 168.587 230.036 168.626C229.924 168.663 229.833 168.719 229.763 168.794C229.695 168.868 229.661 168.969 229.661 169.097C229.661 169.271 229.726 169.403 229.855 169.493C229.986 169.581 230.151 169.625 230.352 169.625ZM235.011 167.46L234.559 167.588C234.531 167.513 234.489 167.44 234.433 167.369C234.379 167.296 234.306 167.237 234.212 167.19C234.118 167.143 233.998 167.119 233.852 167.119C233.651 167.119 233.485 167.165 233.351 167.258C233.219 167.349 233.153 167.464 233.153 167.605C233.153 167.73 233.198 167.829 233.289 167.901C233.38 167.974 233.522 168.034 233.715 168.082L234.201 168.202C234.494 168.273 234.712 168.381 234.855 168.528C234.999 168.673 235.07 168.859 235.07 169.088C235.07 169.276 235.017 169.443 234.909 169.591C234.802 169.739 234.653 169.855 234.461 169.94C234.269 170.026 234.046 170.068 233.792 170.068C233.458 170.068 233.182 169.996 232.963 169.851C232.744 169.706 232.606 169.494 232.548 169.216L233.025 169.097C233.07 169.273 233.156 169.405 233.283 169.493C233.411 169.581 233.578 169.625 233.784 169.625C234.018 169.625 234.204 169.575 234.342 169.476C234.481 169.375 234.551 169.254 234.551 169.114C234.551 169 234.511 168.905 234.431 168.828C234.352 168.75 234.23 168.692 234.065 168.653L233.519 168.526C233.22 168.455 232.999 168.344 232.859 168.195C232.72 168.045 232.65 167.857 232.65 167.631C232.65 167.446 232.702 167.283 232.806 167.141C232.911 166.999 233.053 166.887 233.234 166.806C233.416 166.725 233.622 166.685 233.852 166.685C234.176 166.685 234.43 166.756 234.615 166.898C234.801 167.04 234.933 167.227 235.011 167.46ZM238.146 167.46L237.694 167.588C237.665 167.513 237.624 167.44 237.568 167.369C237.514 167.296 237.44 167.237 237.347 167.19C237.253 167.143 237.133 167.119 236.987 167.119C236.786 167.119 236.619 167.165 236.486 167.258C236.354 167.349 236.288 167.464 236.288 167.605C236.288 167.73 236.333 167.829 236.424 167.901C236.515 167.974 236.657 168.034 236.85 168.082L237.336 168.202C237.629 168.273 237.847 168.381 237.99 168.528C238.134 168.673 238.205 168.859 238.205 169.088C238.205 169.276 238.151 169.443 238.043 169.591C237.937 169.739 237.788 169.855 237.596 169.94C237.404 170.026 237.181 170.068 236.927 170.068C236.593 170.068 236.317 169.996 236.098 169.851C235.879 169.706 235.741 169.494 235.683 169.216L236.16 169.097C236.205 169.273 236.291 169.405 236.418 169.493C236.545 169.581 236.712 169.625 236.918 169.625C237.153 169.625 237.339 169.575 237.477 169.476C237.616 169.375 237.685 169.254 237.685 169.114C237.685 169 237.646 168.905 237.566 168.828C237.487 168.75 237.364 168.692 237.2 168.653L236.654 168.526C236.354 168.455 236.134 168.344 235.994 168.195C235.854 168.045 235.785 167.857 235.785 167.631C235.785 167.446 235.837 167.283 235.94 167.141C236.045 166.999 236.188 166.887 236.369 166.806C236.55 166.725 236.756 166.685 236.987 166.685C237.31 166.685 237.565 166.756 237.749 166.898C237.935 167.04 238.067 167.227 238.146 167.46ZM239.704 170L238.706 166.727H239.235L239.942 169.233H239.976L240.675 166.727H241.212L241.903 169.224H241.937L242.644 166.727H243.172L242.175 170H241.681L240.965 167.486H240.914L240.198 170H239.704ZM245.055 170.068C244.76 170.068 244.501 169.998 244.278 169.857C244.056 169.717 243.883 169.52 243.758 169.267C243.634 169.014 243.572 168.719 243.572 168.381C243.572 168.04 243.634 167.742 243.758 167.488C243.883 167.234 244.056 167.036 244.278 166.896C244.501 166.755 244.76 166.685 245.055 166.685C245.351 166.685 245.609 166.755 245.831 166.896C246.054 167.036 246.227 167.234 246.351 167.488C246.476 167.742 246.538 168.04 246.538 168.381C246.538 168.719 246.476 169.014 246.351 169.267C246.227 169.52 246.054 169.717 245.831 169.857C245.609 169.998 245.351 170.068 245.055 170.068ZM245.055 169.616C245.28 169.616 245.464 169.559 245.609 169.444C245.754 169.329 245.862 169.178 245.931 168.99C246.001 168.803 246.036 168.599 246.036 168.381C246.036 168.162 246.001 167.958 245.931 167.769C245.862 167.58 245.754 167.428 245.609 167.311C245.464 167.195 245.28 167.136 245.055 167.136C244.831 167.136 244.646 167.195 244.501 167.311C244.357 167.428 244.249 167.58 244.18 167.769C244.11 167.958 244.075 168.162 244.075 168.381C244.075 168.599 244.11 168.803 244.18 168.99C244.249 169.178 244.357 169.329 244.501 169.444C244.646 169.559 244.831 169.616 245.055 169.616ZM247.306 170V166.727H247.792V167.222H247.826C247.885 167.06 247.993 166.928 248.15 166.827C248.306 166.727 248.482 166.676 248.678 166.676C248.715 166.676 248.761 166.677 248.817 166.678C248.872 166.68 248.914 166.682 248.942 166.685V167.196C248.925 167.192 248.886 167.185 248.825 167.177C248.765 167.167 248.702 167.162 248.635 167.162C248.476 167.162 248.334 167.195 248.209 167.262C248.086 167.327 247.988 167.418 247.915 167.535C247.844 167.65 247.809 167.781 247.809 167.929V170H247.306ZM250.675 170.068C250.402 170.068 250.161 169.999 249.952 169.862C249.743 169.722 249.58 169.526 249.462 169.273C249.344 169.019 249.285 168.719 249.285 168.372C249.285 168.028 249.344 167.73 249.462 167.477C249.58 167.224 249.744 167.029 249.954 166.891C250.165 166.754 250.407 166.685 250.683 166.685C250.896 166.685 251.064 166.72 251.188 166.791C251.313 166.861 251.408 166.94 251.474 167.03C251.54 167.118 251.592 167.19 251.629 167.247H251.672V165.636H252.175V170H251.689V169.497H251.629C251.592 169.557 251.54 169.632 251.471 169.723C251.403 169.812 251.306 169.893 251.18 169.964C251.053 170.033 250.885 170.068 250.675 170.068ZM250.743 169.616C250.944 169.616 251.115 169.564 251.254 169.459C251.393 169.352 251.499 169.205 251.572 169.018C251.644 168.829 251.68 168.611 251.68 168.364C251.68 168.119 251.645 167.906 251.574 167.722C251.503 167.538 251.398 167.394 251.258 167.292C251.119 167.188 250.947 167.136 250.743 167.136C250.53 167.136 250.352 167.191 250.21 167.3C250.069 167.408 249.964 167.555 249.893 167.741C249.823 167.926 249.788 168.134 249.788 168.364C249.788 168.597 249.824 168.808 249.895 168.999C249.967 169.187 250.074 169.338 250.214 169.45C250.356 169.561 250.532 169.616 250.743 169.616Z" fill="black"/>
<path d="M405.609 177.5C399.59 191.772 394.321 197.495 383.109 205.5C383.452 196.776 383.884 191.734 386.609 182C387.593 176.166 388.406 172.96 390.609 167.5C393.738 160.309 396.046 156.451 401.109 150C404.754 145.182 405.662 142.45 413.609 138C412.275 143.242 411.681 146.278 411.109 152C410.677 153.465 410.457 154.329 409.609 156C408.12 158.45 406.858 159.122 404.109 159.5L409.609 160L407.109 171C406.394 172.855 405.677 173.893 399.609 175.5L405.609 177.5Z" fill="#2D3D4D" stroke="black" stroke-width="0.5"/>
<path d="M391.027 159.156C385.699 176.917 381.035 184.038 371.109 194C371.413 183.144 371.795 176.869 374.208 164.756C375.079 157.495 375.798 153.506 377.749 146.711C380.518 137.763 382.562 132.962 387.044 124.933C390.27 118.937 391.074 115.537 398.109 110C396.928 116.523 396.403 120.302 395.896 127.422C395.514 129.245 395.319 130.32 394.568 132.4C393.25 135.449 392.133 136.285 389.7 136.756L394.568 137.378L392.355 151.067C391.722 153.375 391.088 154.667 385.716 156.667L391.027 159.156Z" fill="#2D3D4D" stroke="black" stroke-width="0.5"/>
<path d="M356.174 164.79C358.976 183.396 363.251 191.563 373.469 203.939C375.438 193.391 376.317 187.237 375.928 174.888C376.412 167.648 376.377 163.602 375.415 156.508C373.897 147.11 372.388 141.912 368.536 132.922C365.811 126.241 365.543 122.74 357.971 115.436C358.033 122.053 357.872 125.842 356.964 132.846C357.047 134.71 357.057 135.8 357.543 138.014C358.527 141.321 359.739 142.439 362.67 143.573L356.467 142.811L356.267 156.623C356.558 159.025 357.069 160.447 363.332 163.876L356.174 164.79Z" fill="#2D3D4D" stroke="black" stroke-width="0.5"/>
<path d="M342.52 185.293C348.013 196.348 354.44 203.19 369.111 216C370.688 212.057 371.253 209.58 369.547 203.204C369.486 199.931 369.049 197.903 367.095 193.757C364.185 188.106 361.692 184.543 355.744 177.57C351.505 172.478 350.814 170.567 340.122 162C340.844 165.321 340.997 167.094 340.476 169.973C340.765 170.951 340.884 171.499 341.739 172.914C343.357 175.196 345.062 176.542 349.038 179.019L340.784 174.589L341.854 181.305C342.469 182.686 343.281 183.725 351.872 189.516L342.52 185.293Z" fill="#2D3D4D" stroke="black" stroke-width="0.5"/>
<path d="M364.111 134C370.585 167.207 373.333 185.941 374.108 220" stroke="black" stroke-width="0.5"/>
<path d="M364.111 134C370.585 167.207 373.333 185.941 374.108 220" stroke="black" stroke-width="0.5"/>
<path d="M364.111 135C370.585 168.206 373.334 186.941 374.109 221" stroke="black" stroke-width="0.5"/>
<path d="M364.111 135C370.585 168.206 373.334 186.941 374.109 221" stroke="black" stroke-width="0.5"/>
<path d="M349.109 175C358.915 192.593 363.994 202.576 371.115 221" stroke="black" stroke-width="0.5"/>
<path d="M349.109 175C358.915 192.593 363.994 202.576 371.115 221" stroke="black" stroke-width="0.5"/>
<path d="M378.109 221C387.32 191.245 393.204 174.867 407.109 147" stroke="black" stroke-width="0.5"/>
<path d="M378.109 221C387.32 191.245 393.204 174.867 407.109 147" stroke="black" stroke-width="0.5"/>
<path d="M393.499 220.602V227.913H390.422L386.736 250.059H365.261L361.331 227.913H358.133V220.602H393.499Z" fill="#91A4B0"/>
<path d="M390.422 227.913H393.499V220.602H358.133V227.913H361.331M390.422 227.913L386.736 250.059H365.261L361.331 227.913M390.422 227.913H361.331" stroke="black" stroke-width="0.5"/>
<rect x="181.812" y="58.0376" width="102.475" height="15.5656" fill="#2D3D4D"/>
<rect x="177.922" y="206.56" width="119.986" height="22.7001" fill="#91A4B0"/>
<path d="M197.634 79V71.7273H202.599V73.1548H199.392V74.6463H202.283V76.0774H199.392V79H197.634ZM205.63 79.103C205.057 79.103 204.564 78.9858 204.153 78.7514C203.743 78.5147 203.427 78.1856 203.204 77.7642C202.984 77.3404 202.874 76.8492 202.874 76.2905C202.874 75.7294 202.984 75.2382 203.204 74.8168C203.427 74.393 203.743 74.0639 204.153 73.8295C204.564 73.5928 205.057 73.4744 205.63 73.4744C206.203 73.4744 206.694 73.5928 207.104 73.8295C207.515 74.0639 207.831 74.393 208.052 74.8168C208.274 75.2382 208.385 75.7294 208.385 76.2905C208.385 76.8492 208.274 77.3404 208.052 77.7642C207.831 78.1856 207.515 78.5147 207.104 78.7514C206.694 78.9858 206.203 79.103 205.63 79.103ZM205.64 77.7926C205.849 77.7926 206.025 77.7287 206.17 77.6009C206.314 77.473 206.424 77.2955 206.5 77.0682C206.578 76.8409 206.617 76.5781 206.617 76.2798C206.617 75.9768 206.578 75.7116 206.5 75.4844C206.424 75.2571 206.314 75.0795 206.17 74.9517C206.025 74.8239 205.849 74.7599 205.64 74.7599C205.425 74.7599 205.243 74.8239 205.094 74.9517C204.947 75.0795 204.834 75.2571 204.756 75.4844C204.68 75.7116 204.643 75.9768 204.643 76.2798C204.643 76.5781 204.68 76.8409 204.756 77.0682C204.834 77.2955 204.947 77.473 205.094 77.6009C205.243 77.7287 205.425 77.7926 205.64 77.7926ZM209.275 79V73.5455H210.962V74.5398H211.019C211.118 74.1799 211.28 73.9124 211.505 73.7372C211.73 73.5597 211.992 73.4709 212.29 73.4709C212.37 73.4709 212.453 73.4768 212.539 73.4886C212.624 73.4981 212.703 73.5135 212.776 73.5348V75.044C212.694 75.0156 212.585 74.9931 212.45 74.9766C212.317 74.96 212.199 74.9517 212.095 74.9517C211.889 74.9517 211.703 74.9979 211.537 75.0902C211.374 75.1802 211.245 75.3068 211.15 75.4702C211.058 75.6312 211.012 75.8205 211.012 76.0384V79H209.275ZM215.743 81.1591C215.225 81.1591 214.781 81.0869 214.412 80.9425C214.042 80.7981 213.752 80.6004 213.542 80.3494C213.331 80.0985 213.204 79.8144 213.162 79.4972L214.806 79.4048C214.837 79.5161 214.894 79.6132 214.976 79.696C215.062 79.7789 215.172 79.8428 215.307 79.8878C215.444 79.9328 215.605 79.9553 215.79 79.9553C216.081 79.9553 216.321 79.8842 216.51 79.7422C216.702 79.6025 216.798 79.3575 216.798 79.0071V78.0483H216.738C216.669 78.2164 216.565 78.3667 216.425 78.4993C216.286 78.6319 216.112 78.736 215.903 78.8118C215.697 78.8875 215.461 78.9254 215.193 78.9254C214.795 78.9254 214.431 78.8331 214.099 78.6484C213.77 78.4614 213.506 78.1726 213.307 77.782C213.111 77.389 213.013 76.8835 213.013 76.2656C213.013 75.6288 213.114 75.1044 213.318 74.6925C213.522 74.2782 213.788 73.9716 214.117 73.7727C214.448 73.5739 214.805 73.4744 215.186 73.4744C215.472 73.4744 215.717 73.5241 215.921 73.6236C216.127 73.7206 216.296 73.8461 216.429 74C216.561 74.1539 216.662 74.3137 216.731 74.4794H216.78V73.5455H218.51V79.0213C218.51 79.483 218.394 79.8724 218.162 80.1896C217.93 80.5069 217.605 80.7472 217.189 80.9105C216.772 81.0762 216.29 81.1591 215.743 81.1591ZM215.797 77.6612C216.007 77.6612 216.187 77.6056 216.336 77.4943C216.486 77.383 216.6 77.2232 216.681 77.0149C216.761 76.8066 216.802 76.5568 216.802 76.2656C216.802 75.9697 216.761 75.7152 216.681 75.5021C216.603 75.2867 216.488 75.121 216.336 75.005C216.187 74.889 216.007 74.831 215.797 74.831C215.581 74.831 215.399 74.8902 215.25 75.0085C215.101 75.1269 214.987 75.2938 214.909 75.5092C214.833 75.7223 214.795 75.9744 214.795 76.2656C214.795 76.5568 214.834 76.8066 214.912 77.0149C214.991 77.2232 215.103 77.383 215.25 77.4943C215.399 77.6056 215.581 77.6612 215.797 77.6612ZM222.167 79.103C221.596 79.103 221.104 78.9905 220.689 78.7656C220.277 78.5384 219.96 78.2152 219.738 77.7962C219.517 77.3748 219.407 76.8741 219.407 76.294C219.407 75.7306 219.519 75.2382 219.741 74.8168C219.964 74.393 220.277 74.0639 220.682 73.8295C221.087 73.5928 221.564 73.4744 222.113 73.4744C222.502 73.4744 222.857 73.5348 223.179 73.6555C223.501 73.7763 223.779 73.955 224.013 74.1918C224.248 74.4285 224.43 74.7209 224.56 75.0689C224.69 75.4145 224.755 75.8111 224.755 76.2585V76.6918H220.015V75.6832H223.14C223.137 75.4986 223.093 75.334 223.008 75.1896C222.923 75.0452 222.806 74.9328 222.657 74.8523C222.51 74.7694 222.341 74.728 222.149 74.728C221.955 74.728 221.781 74.7718 221.627 74.8594C221.473 74.9446 221.351 75.0618 221.261 75.2109C221.171 75.3577 221.124 75.5246 221.119 75.7116V76.7379C221.119 76.9605 221.163 77.1558 221.25 77.3239C221.338 77.4896 221.462 77.6186 221.623 77.7109C221.784 77.8033 221.976 77.8494 222.199 77.8494C222.352 77.8494 222.492 77.8281 222.618 77.7855C222.743 77.7429 222.851 77.6802 222.941 77.5973C223.031 77.5144 223.098 77.4126 223.143 77.2919L224.738 77.3381C224.671 77.6955 224.526 78.0069 224.301 78.272C224.078 78.5348 223.786 78.7396 223.424 78.8864C223.061 79.0308 222.642 79.103 222.167 79.103ZM228.721 73.5455V74.8239H225.28V73.5455H228.721ZM226.001 72.2386H227.737V77.2848C227.737 77.3913 227.754 77.4777 227.787 77.544C227.823 77.608 227.874 77.6541 227.94 77.6825C228.006 77.7086 228.085 77.7216 228.178 77.7216C228.244 77.7216 228.314 77.7157 228.387 77.7038C228.463 77.6896 228.52 77.6778 228.558 77.6683L228.82 78.9219C228.738 78.9455 228.62 78.9751 228.469 79.0107C228.32 79.0462 228.141 79.0687 227.933 79.0781C227.526 79.0971 227.176 79.0497 226.885 78.9361C226.596 78.8201 226.375 78.6402 226.221 78.3963C226.07 78.1525 225.996 77.8459 226.001 77.4766V72.2386ZM231.756 79V71.7273H234.76C235.304 71.7273 235.774 71.8338 236.17 72.0469C236.567 72.2576 236.874 72.5523 237.089 72.9311C237.305 73.3075 237.412 73.7455 237.412 74.245C237.412 74.7469 237.302 75.1861 237.082 75.5625C236.864 75.9366 236.553 76.2266 236.148 76.4325C235.743 76.6385 235.263 76.7415 234.706 76.7415H232.853V75.3565H234.38C234.645 75.3565 234.866 75.3104 235.044 75.218C235.224 75.1257 235.36 74.9967 235.452 74.831C235.545 74.6629 235.591 74.4676 235.591 74.245C235.591 74.0201 235.545 73.826 235.452 73.6626C235.36 73.4969 235.224 73.3691 235.044 73.2791C234.864 73.1892 234.643 73.1442 234.38 73.1442H233.513V79H231.756ZM239.621 79.0923C239.273 79.0923 238.964 79.0343 238.694 78.9183C238.427 78.8 238.215 78.6224 238.059 78.3857C237.905 78.1465 237.828 77.8471 237.828 77.4872C237.828 77.1842 237.881 76.9285 237.988 76.7202C238.094 76.5118 238.241 76.3426 238.428 76.2124C238.615 76.0821 238.831 75.9839 239.074 75.9176C239.318 75.849 239.579 75.8028 239.856 75.7791C240.166 75.7507 240.416 75.7211 240.605 75.6903C240.794 75.6572 240.932 75.611 241.017 75.5518C241.104 75.4903 241.148 75.4039 241.148 75.2926V75.2749C241.148 75.0926 241.086 74.9517 240.96 74.8523C240.835 74.7528 240.665 74.7031 240.452 74.7031C240.223 74.7031 240.038 74.7528 239.898 74.8523C239.759 74.9517 239.67 75.089 239.632 75.2642L238.03 75.2074C238.078 74.8759 238.2 74.58 238.396 74.3196C238.595 74.0568 238.867 73.8509 239.213 73.7017C239.561 73.5502 239.979 73.4744 240.466 73.4744C240.814 73.4744 241.135 73.5159 241.429 73.5987C241.722 73.6792 241.978 73.7976 242.196 73.9538C242.414 74.1077 242.582 74.2971 242.7 74.522C242.821 74.7469 242.881 75.0038 242.881 75.2926V79H241.248V78.2401H241.205C241.108 78.4247 240.984 78.581 240.832 78.7088C240.683 78.8366 240.507 78.9325 240.303 78.9964C240.102 79.0604 239.875 79.0923 239.621 79.0923ZM240.157 77.956C240.345 77.956 240.513 77.9181 240.662 77.8423C240.813 77.7666 240.934 77.6624 241.024 77.5298C241.114 77.3949 241.159 77.2386 241.159 77.0611V76.5426C241.109 76.5687 241.049 76.5923 240.978 76.6136C240.909 76.6349 240.833 76.6551 240.751 76.674C240.668 76.6929 240.582 76.7095 240.495 76.7237C240.407 76.7379 240.323 76.7509 240.243 76.7628C240.079 76.7888 239.94 76.8291 239.824 76.8835C239.71 76.938 239.622 77.009 239.561 77.0966C239.502 77.1818 239.472 77.2836 239.472 77.402C239.472 77.5819 239.536 77.7192 239.664 77.8139C239.794 77.9086 239.959 77.956 240.157 77.956ZM248.705 75.2109L247.111 75.2536C247.094 75.1399 247.049 75.0393 246.976 74.9517C246.902 74.8617 246.806 74.7919 246.688 74.7422C246.572 74.6901 246.437 74.6641 246.283 74.6641C246.082 74.6641 245.91 74.7043 245.768 74.7848C245.629 74.8653 245.56 74.9742 245.562 75.1115C245.56 75.218 245.603 75.3104 245.69 75.3885C245.78 75.4666 245.94 75.5294 246.17 75.5767L247.221 75.7756C247.765 75.8797 248.17 76.0526 248.435 76.294C248.703 76.5355 248.838 76.8551 248.84 77.2528C248.838 77.6269 248.726 77.9524 248.506 78.2294C248.288 78.5064 247.99 78.7218 247.611 78.8757C247.233 79.0272 246.799 79.103 246.312 79.103C245.533 79.103 244.918 78.9432 244.469 78.6236C244.021 78.3016 243.765 77.8707 243.702 77.331L245.417 77.2884C245.455 77.4872 245.553 77.6387 245.711 77.7429C245.87 77.8471 246.073 77.8991 246.319 77.8991C246.541 77.8991 246.722 77.8577 246.862 77.7749C247.002 77.692 247.073 77.5819 247.075 77.4446C247.073 77.3215 247.018 77.2232 246.912 77.1499C246.805 77.0741 246.638 77.0149 246.411 76.9723L245.459 76.7912C244.912 76.6918 244.505 76.5083 244.238 76.2408C243.97 75.9709 243.838 75.6276 243.84 75.2109C243.838 74.8464 243.935 74.535 244.131 74.277C244.328 74.0166 244.607 73.8177 244.969 73.6804C245.331 73.5431 245.759 73.4744 246.251 73.4744C246.99 73.4744 247.572 73.6295 247.998 73.9396C248.425 74.2474 248.66 74.6712 248.705 75.2109ZM254.457 75.2109L252.863 75.2536C252.846 75.1399 252.801 75.0393 252.728 74.9517C252.654 74.8617 252.558 74.7919 252.44 74.7422C252.324 74.6901 252.189 74.6641 252.035 74.6641C251.834 74.6641 251.662 74.7043 251.52 74.7848C251.381 74.8653 251.312 74.9742 251.314 75.1115C251.312 75.218 251.355 75.3104 251.442 75.3885C251.532 75.4666 251.692 75.5294 251.922 75.5767L252.973 75.7756C253.517 75.8797 253.922 76.0526 254.187 76.294C254.455 76.5355 254.59 76.8551 254.592 77.2528C254.59 77.6269 254.478 77.9524 254.258 78.2294C254.04 78.5064 253.742 78.7218 253.363 78.8757C252.984 79.0272 252.551 79.103 252.064 79.103C251.285 79.103 250.67 78.9432 250.221 78.6236C249.773 78.3016 249.517 77.8707 249.453 77.331L251.169 77.2884C251.207 77.4872 251.305 77.6387 251.463 77.7429C251.622 77.8471 251.824 77.8991 252.071 77.8991C252.293 77.8991 252.474 77.8577 252.614 77.7749C252.754 77.692 252.825 77.5819 252.827 77.4446C252.825 77.3215 252.77 77.2232 252.664 77.1499C252.557 77.0741 252.39 77.0149 252.163 76.9723L251.211 76.7912C250.664 76.6918 250.257 76.5083 249.99 76.2408C249.722 75.9709 249.59 75.6276 249.592 75.2109C249.59 74.8464 249.687 74.535 249.883 74.277C250.08 74.0166 250.359 73.8177 250.721 73.6804C251.083 73.5431 251.511 73.4744 252.003 73.4744C252.742 73.4744 253.324 73.6295 253.75 73.9396C254.176 74.2474 254.412 74.6712 254.457 75.2109ZM256.466 79L255.046 73.5455H256.789L257.524 77.0398H257.57L258.359 73.5455H260.06L260.869 77.0149H260.916L261.629 73.5455H263.373L261.949 79H260.092L259.24 75.8217H259.179L258.327 79H256.466ZM266.499 79.103C265.926 79.103 265.434 78.9858 265.022 78.7514C264.612 78.5147 264.296 78.1856 264.074 77.7642C263.853 77.3404 263.743 76.8492 263.743 76.2905C263.743 75.7294 263.853 75.2382 264.074 74.8168C264.296 74.393 264.612 74.0639 265.022 73.8295C265.434 73.5928 265.926 73.4744 266.499 73.4744C267.072 73.4744 267.563 73.5928 267.973 73.8295C268.385 74.0639 268.701 74.393 268.921 74.8168C269.143 75.2382 269.255 75.7294 269.255 76.2905C269.255 76.8492 269.143 77.3404 268.921 77.7642C268.701 78.1856 268.385 78.5147 267.973 78.7514C267.563 78.9858 267.072 79.103 266.499 79.103ZM266.51 77.7926C266.718 77.7926 266.894 77.7287 267.039 77.6009C267.183 77.473 267.293 77.2955 267.369 77.0682C267.447 76.8409 267.486 76.5781 267.486 76.2798C267.486 75.9768 267.447 75.7116 267.369 75.4844C267.293 75.2571 267.183 75.0795 267.039 74.9517C266.894 74.8239 266.718 74.7599 266.51 74.7599C266.294 74.7599 266.112 74.8239 265.963 74.9517C265.816 75.0795 265.703 75.2571 265.625 75.4844C265.55 75.7116 265.512 75.9768 265.512 76.2798C265.512 76.5781 265.55 76.8409 265.625 77.0682C265.703 77.2955 265.816 77.473 265.963 77.6009C266.112 77.7287 266.294 77.7926 266.51 77.7926ZM270.144 79V73.5455H271.831V74.5398H271.888C271.987 74.1799 272.149 73.9124 272.374 73.7372C272.599 73.5597 272.861 73.4709 273.159 73.4709C273.24 73.4709 273.322 73.4768 273.408 73.4886C273.493 73.4981 273.572 73.5135 273.646 73.5348V75.044C273.563 75.0156 273.454 74.9931 273.319 74.9766C273.186 74.96 273.068 74.9517 272.964 74.9517C272.758 74.9517 272.572 74.9979 272.406 75.0902C272.243 75.1802 272.114 75.3068 272.019 75.4702C271.927 75.6312 271.881 75.8205 271.881 76.0384V79H270.144ZM276.062 79.0781C275.66 79.0781 275.294 78.974 274.965 78.7656C274.636 78.5573 274.373 78.2448 274.176 77.8281C273.98 77.4115 273.882 76.8942 273.882 76.2763C273.882 75.6347 273.984 75.1068 274.187 74.6925C274.391 74.2782 274.657 73.9716 274.986 73.7727C275.318 73.5739 275.674 73.4744 276.055 73.4744C276.342 73.4744 276.587 73.5241 276.79 73.6236C276.994 73.7206 277.162 73.8461 277.294 74C277.427 74.1539 277.528 74.3137 277.596 74.4794H277.632V71.7273H279.368V79H277.65V78.1158H277.596C277.523 78.2839 277.419 78.4413 277.284 78.5881C277.149 78.7348 276.98 78.8532 276.776 78.9432C276.575 79.0331 276.337 79.0781 276.062 79.0781ZM276.666 77.7251C276.877 77.7251 277.056 77.666 277.206 77.5476C277.355 77.4268 277.47 77.2576 277.55 77.0398C277.631 76.822 277.671 76.5663 277.671 76.2727C277.671 75.9744 277.631 75.7176 277.55 75.5021C277.472 75.2867 277.357 75.121 277.206 75.005C277.056 74.889 276.877 74.831 276.666 74.831C276.45 74.831 276.268 74.8902 276.119 75.0085C275.97 75.1269 275.856 75.2938 275.778 75.5092C275.702 75.7247 275.664 75.9792 275.664 76.2727C275.664 76.5663 275.703 76.822 275.782 77.0398C275.86 77.2576 275.972 77.4268 276.119 77.5476C276.268 77.666 276.45 77.7251 276.666 77.7251Z" fill="white"/>
<path d="M221.82 216.362H220.044C220.021 216.18 219.972 216.015 219.899 215.869C219.825 215.722 219.728 215.596 219.608 215.492C219.487 215.388 219.344 215.309 219.178 215.254C219.015 215.197 218.833 215.169 218.635 215.169C218.282 215.169 217.978 215.255 217.722 215.428C217.469 215.601 217.273 215.851 217.136 216.178C217.001 216.504 216.934 216.9 216.934 217.364C216.934 217.847 217.002 218.251 217.14 218.578C217.279 218.902 217.475 219.147 217.725 219.313C217.979 219.477 218.278 219.558 218.624 219.558C218.818 219.558 218.994 219.533 219.153 219.484C219.314 219.434 219.455 219.362 219.576 219.267C219.699 219.17 219.799 219.053 219.877 218.915C219.958 218.776 220.014 218.618 220.044 218.443L221.82 218.454C221.789 218.776 221.696 219.093 221.539 219.406C221.386 219.718 221.174 220.003 220.904 220.261C220.634 220.517 220.305 220.721 219.917 220.872C219.531 221.024 219.088 221.099 218.588 221.099C217.93 221.099 217.341 220.955 216.82 220.666C216.301 220.375 215.892 219.951 215.591 219.395C215.291 218.839 215.14 218.161 215.14 217.364C215.14 216.563 215.293 215.885 215.598 215.329C215.904 214.772 216.317 214.35 216.838 214.061C217.359 213.772 217.942 213.628 218.588 213.628C219.029 213.628 219.436 213.689 219.81 213.812C220.184 213.933 220.513 214.111 220.797 214.345C221.081 214.577 221.312 214.862 221.49 215.201C221.667 215.54 221.777 215.927 221.82 216.362ZM225.372 221.103C224.799 221.103 224.307 220.986 223.895 220.751C223.485 220.515 223.169 220.186 222.947 219.764C222.726 219.34 222.616 218.849 222.616 218.29C222.616 217.729 222.726 217.238 222.947 216.817C223.169 216.393 223.485 216.064 223.895 215.83C224.307 215.593 224.799 215.474 225.372 215.474C225.945 215.474 226.436 215.593 226.846 215.83C227.258 216.064 227.574 216.393 227.794 216.817C228.016 217.238 228.128 217.729 228.128 218.29C228.128 218.849 228.016 219.34 227.794 219.764C227.574 220.186 227.258 220.515 226.846 220.751C226.436 220.986 225.945 221.103 225.372 221.103ZM225.383 219.793C225.591 219.793 225.767 219.729 225.912 219.601C226.056 219.473 226.166 219.295 226.242 219.068C226.32 218.841 226.359 218.578 226.359 218.28C226.359 217.977 226.32 217.712 226.242 217.484C226.166 217.257 226.056 217.08 225.912 216.952C225.767 216.824 225.591 216.76 225.383 216.76C225.167 216.76 224.985 216.824 224.836 216.952C224.689 217.08 224.577 217.257 224.498 217.484C224.423 217.712 224.385 217.977 224.385 218.28C224.385 218.578 224.423 218.841 224.498 219.068C224.577 219.295 224.689 219.473 224.836 219.601C224.985 219.729 225.167 219.793 225.383 219.793ZM230.754 217.889V221H229.017V215.545H230.669V216.547H230.729C230.85 216.213 231.056 215.951 231.347 215.762C231.638 215.57 231.985 215.474 232.387 215.474C232.771 215.474 233.103 215.561 233.385 215.734C233.669 215.904 233.889 216.143 234.046 216.451C234.204 216.756 234.282 217.114 234.28 217.523V221H232.544V217.864C232.546 217.561 232.469 217.325 232.313 217.154C232.159 216.984 231.945 216.898 231.67 216.898C231.488 216.898 231.327 216.939 231.187 217.019C231.05 217.097 230.943 217.21 230.867 217.357C230.794 217.503 230.756 217.681 230.754 217.889ZM238.434 215.545V216.824H234.993V215.545H238.434ZM235.714 214.239H237.45V219.285C237.45 219.391 237.467 219.478 237.5 219.544C237.536 219.608 237.586 219.654 237.653 219.683C237.719 219.709 237.798 219.722 237.891 219.722C237.957 219.722 238.027 219.716 238.1 219.704C238.176 219.69 238.233 219.678 238.271 219.668L238.533 220.922C238.451 220.946 238.333 220.975 238.182 221.011C238.033 221.046 237.854 221.069 237.646 221.078C237.238 221.097 236.889 221.05 236.598 220.936C236.309 220.82 236.088 220.64 235.934 220.396C235.782 220.152 235.709 219.846 235.714 219.477V214.239ZM239.32 221V215.545H241.056V221H239.32ZM240.19 214.91C239.946 214.91 239.737 214.829 239.561 214.668C239.386 214.505 239.299 214.308 239.299 214.079C239.299 213.852 239.386 213.657 239.561 213.496C239.737 213.333 239.946 213.251 240.19 213.251C240.436 213.251 240.646 213.333 240.819 213.496C240.994 213.657 241.081 213.852 241.081 214.079C241.081 214.308 240.994 214.505 240.819 214.668C240.646 214.829 240.436 214.91 240.19 214.91ZM243.898 217.889V221H242.162V215.545H243.813V216.547H243.873C243.994 216.213 244.2 215.951 244.491 215.762C244.782 215.57 245.129 215.474 245.532 215.474C245.915 215.474 246.248 215.561 246.53 215.734C246.814 215.904 247.034 216.143 247.19 216.451C247.349 216.756 247.427 217.114 247.425 217.523V221H245.688V217.864C245.69 217.561 245.613 217.325 245.457 217.154C245.303 216.984 245.089 216.898 244.814 216.898C244.632 216.898 244.471 216.939 244.331 217.019C244.194 217.097 244.088 217.21 244.012 217.357C243.939 217.503 243.901 217.681 243.898 217.889ZM252.019 218.646V215.545H253.752V221H252.097V219.984H252.04C251.919 220.318 251.713 220.583 251.422 220.78C251.133 220.974 250.784 221.071 250.375 221.071C250.003 221.071 249.676 220.986 249.395 220.815C249.113 220.645 248.894 220.407 248.738 220.102C248.581 219.794 248.502 219.434 248.5 219.022V215.545H250.236V218.681C250.239 218.977 250.317 219.21 250.471 219.381C250.624 219.551 250.834 219.636 251.099 219.636C251.272 219.636 251.427 219.598 251.564 219.523C251.704 219.445 251.814 219.332 251.895 219.185C251.977 219.036 252.019 218.856 252.019 218.646ZM257.407 221.103C256.836 221.103 256.344 220.991 255.93 220.766C255.518 220.538 255.2 220.215 254.978 219.796C254.758 219.375 254.648 218.874 254.648 218.294C254.648 217.731 254.759 217.238 254.981 216.817C255.204 216.393 255.518 216.064 255.922 215.83C256.327 215.593 256.804 215.474 257.354 215.474C257.742 215.474 258.097 215.535 258.419 215.656C258.741 215.776 259.019 215.955 259.253 216.192C259.488 216.429 259.67 216.721 259.8 217.069C259.93 217.415 259.996 217.811 259.996 218.259V218.692H255.255V217.683H258.38C258.377 217.499 258.334 217.334 258.248 217.19C258.163 217.045 258.046 216.933 257.897 216.852C257.75 216.769 257.581 216.728 257.389 216.728C257.195 216.728 257.021 216.772 256.867 216.859C256.713 216.945 256.591 217.062 256.501 217.211C256.411 217.358 256.364 217.525 256.359 217.712V218.738C256.359 218.96 256.403 219.156 256.491 219.324C256.578 219.49 256.702 219.619 256.863 219.711C257.024 219.803 257.216 219.849 257.439 219.849C257.593 219.849 257.732 219.828 257.858 219.786C257.983 219.743 258.091 219.68 258.181 219.597C258.271 219.514 258.338 219.413 258.383 219.292L259.978 219.338C259.912 219.696 259.766 220.007 259.541 220.272C259.318 220.535 259.026 220.74 258.664 220.886C258.302 221.031 257.883 221.103 257.407 221.103Z" fill="white"/>
<rect x="150.031" y="58.0376" width="23.3486" height="62.9111" fill="#2D3D4D"/>
<path d="M344.375 33.375H336.625V27.5625C336.625 24.4794 335.4 21.5225 333.22 19.3424C331.04 17.1623 328.083 15.9375 325 15.9375C321.917 15.9375 318.96 17.1623 316.78 19.3424C314.6 21.5225 313.375 24.4794 313.375 27.5625V33.375H305.625C304.597 33.375 303.612 33.7833 302.885 34.51C302.158 35.2367 301.75 36.2223 301.75 37.25V64.375C301.75 65.4027 302.158 66.3883 302.885 67.115C303.612 67.8417 304.597 68.25 305.625 68.25H344.375C345.403 68.25 346.388 67.8417 347.115 67.115C347.842 66.3883 348.25 65.4027 348.25 64.375V37.25C348.25 36.2223 347.842 35.2367 347.115 34.51C346.388 33.7833 345.403 33.375 344.375 33.375ZM326.938 52.4182V58.5625C326.938 59.0764 326.733 59.5692 326.37 59.9325C326.007 60.2959 325.514 60.5 325 60.5C324.486 60.5 323.993 60.2959 323.63 59.9325C323.267 59.5692 323.062 59.0764 323.062 58.5625V52.4182C321.77 51.9612 320.68 51.0618 319.986 49.8791C319.293 48.6965 319.039 47.3066 319.271 45.9552C319.503 44.6038 320.205 43.3779 321.254 42.4941C322.302 41.6103 323.629 41.1256 325 41.1256C326.371 41.1256 327.698 41.6103 328.746 42.4941C329.795 43.3779 330.497 44.6038 330.729 45.9552C330.961 47.3066 330.707 48.6965 330.014 49.8791C329.32 51.0618 328.23 51.9612 326.938 52.4182ZM332.75 33.375H317.25V27.5625C317.25 25.5071 318.067 23.5358 319.52 22.0824C320.973 20.629 322.945 19.8125 325 19.8125C327.055 19.8125 329.027 20.629 330.48 22.0824C331.933 23.5358 332.75 25.5071 332.75 27.5625V33.375Z" fill="#91A4B0"/>
<rect x="56" y="43" width="87" height="31" rx="8" fill="#91A4B0"/>
<path d="M69 55L69.8981 57.7639H72.8042L70.4531 59.4721L71.3511 62.2361L69 60.5279L66.6489 62.2361L67.5469 59.4721L65.1958 57.7639H68.1019L69 55Z" fill="#D9D9D9"/>
<path d="M79 55L79.8981 57.7639H82.8042L80.4531 59.4721L81.3511 62.2361L79 60.5279L76.6489 62.2361L77.5469 59.4721L75.1958 57.7639H78.1019L79 55Z" fill="#D9D9D9"/>
<path d="M89 55L89.8981 57.7639H92.8042L90.4531 59.4721L91.3511 62.2361L89 60.5279L86.6489 62.2361L87.5469 59.4721L85.1958 57.7639H88.1019L89 55Z" fill="#D9D9D9"/>
<path d="M99 55L99.8981 57.7639H102.804L100.453 59.4721L101.351 62.2361L99 60.5279L96.6489 62.2361L97.5469 59.4721L95.1958 57.7639H98.1019L99 55Z" fill="#D9D9D9"/>
<path d="M109 55L109.898 57.7639H112.804L110.453 59.4721L111.351 62.2361L109 60.5279L106.649 62.2361L107.547 59.4721L105.196 57.7639H108.102L109 55Z" fill="#D9D9D9"/>
<path d="M119 55L119.898 57.7639H122.804L120.453 59.4721L121.351 62.2361L119 60.5279L116.649 62.2361L117.547 59.4721L115.196 57.7639H118.102L119 55Z" fill="#D9D9D9"/>
<path d="M128 55L128.898 57.7639H131.804L129.453 59.4721L130.351 62.2361L128 60.5279L125.649 62.2361L126.547 59.4721L124.196 57.7639H127.102L128 55Z" fill="#D9D9D9"/>
</svg>
