<svg width="447" height="284" viewBox="0 0 447 284" fill="none" xmlns="http://www.w3.org/2000/svg">
<rect width="447" height="284" fill="white"/>
<path d="M81 43C81 38.0294 85.0294 34 90 34H352C356.971 34 361 38.0294 361 43V219H81V43Z" fill="#D9D9D9"/>
<path d="M68.25 218.25H371.75V224C371.75 230.489 366.489 235.75 360 235.75H80C73.5107 235.75 68.25 230.489 68.25 224V218.25Z" fill="#D9D9D9" stroke="black" stroke-width="0.5"/>
<path d="M191.5 218H253.5L250.5 225H197L191.5 218Z" fill="#2D3D4D"/>
<path d="M92 50C92 48.3431 93.3431 47 95 47H346C347.657 47 349 48.3431 349 50V209H92V50Z" fill="#2D3D4D"/>
<path d="M209.589 119V113.182H210.995V117.858H213.415V119H209.589ZM216.18 119.082C215.722 119.082 215.328 118.989 214.999 118.801C214.671 118.612 214.418 118.348 214.24 118.011C214.064 117.672 213.976 117.279 213.976 116.832C213.976 116.384 214.064 115.991 214.24 115.653C214.418 115.314 214.671 115.051 214.999 114.864C215.328 114.674 215.722 114.58 216.18 114.58C216.639 114.58 217.032 114.674 217.359 114.864C217.689 115.051 217.942 115.314 218.118 115.653C218.296 115.991 218.385 116.384 218.385 116.832C218.385 117.279 218.296 117.672 218.118 118.011C217.942 118.348 217.689 118.612 217.359 118.801C217.032 118.989 216.639 119.082 216.18 119.082ZM216.189 118.034C216.356 118.034 216.497 117.983 216.612 117.881C216.728 117.778 216.816 117.636 216.876 117.455C216.939 117.273 216.97 117.062 216.97 116.824C216.97 116.581 216.939 116.369 216.876 116.188C216.816 116.006 216.728 115.864 216.612 115.761C216.497 115.659 216.356 115.608 216.189 115.608C216.017 115.608 215.871 115.659 215.751 115.761C215.634 115.864 215.544 116.006 215.482 116.188C215.421 116.369 215.391 116.581 215.391 116.824C215.391 117.062 215.421 117.273 215.482 117.455C215.544 117.636 215.634 117.778 215.751 117.881C215.871 117.983 216.017 118.034 216.189 118.034ZM221.131 120.727C220.716 120.727 220.361 120.67 220.065 120.554C219.77 120.438 219.538 120.28 219.369 120.08C219.201 119.879 219.099 119.652 219.065 119.398L220.381 119.324C220.405 119.413 220.451 119.491 220.517 119.557C220.585 119.623 220.673 119.674 220.781 119.71C220.891 119.746 221.02 119.764 221.168 119.764C221.401 119.764 221.593 119.707 221.744 119.594C221.898 119.482 221.974 119.286 221.974 119.006V118.239H221.926C221.871 118.373 221.788 118.493 221.676 118.599C221.564 118.705 221.425 118.789 221.259 118.849C221.094 118.91 220.904 118.94 220.69 118.94C220.372 118.94 220.08 118.866 219.815 118.719C219.552 118.569 219.341 118.338 219.182 118.026C219.025 117.711 218.946 117.307 218.946 116.812C218.946 116.303 219.027 115.884 219.19 115.554C219.353 115.223 219.566 114.977 219.83 114.818C220.095 114.659 220.38 114.58 220.685 114.58C220.914 114.58 221.11 114.619 221.273 114.699C221.438 114.777 221.573 114.877 221.679 115C221.785 115.123 221.866 115.251 221.92 115.384H221.96V114.636H223.344V119.017C223.344 119.386 223.251 119.698 223.065 119.952C222.88 120.205 222.62 120.398 222.287 120.528C221.954 120.661 221.568 120.727 221.131 120.727ZM221.173 117.929C221.342 117.929 221.486 117.884 221.605 117.795C221.724 117.706 221.816 117.579 221.881 117.412C221.945 117.245 221.977 117.045 221.977 116.812C221.977 116.576 221.945 116.372 221.881 116.202C221.818 116.029 221.726 115.897 221.605 115.804C221.486 115.711 221.342 115.665 221.173 115.665C221.001 115.665 220.855 115.712 220.736 115.807C220.616 115.902 220.526 116.035 220.463 116.207C220.402 116.378 220.372 116.58 220.372 116.812C220.372 117.045 220.403 117.245 220.466 117.412C220.528 117.579 220.618 117.706 220.736 117.795C220.855 117.884 221.001 117.929 221.173 117.929ZM225.948 119V114.636H227.337V119H225.948ZM226.644 114.128C226.449 114.128 226.281 114.063 226.141 113.935C226.001 113.804 225.931 113.647 225.931 113.463C225.931 113.281 226.001 113.126 226.141 112.997C226.281 112.866 226.449 112.801 226.644 112.801C226.841 112.801 227.009 112.866 227.147 112.997C227.287 113.126 227.357 113.281 227.357 113.463C227.357 113.647 227.287 113.804 227.147 113.935C227.009 114.063 226.841 114.128 226.644 114.128ZM229.611 116.511V119H228.222V114.636H229.543V115.438H229.591C229.688 115.17 229.852 114.961 230.085 114.81C230.318 114.656 230.596 114.58 230.918 114.58C231.224 114.58 231.491 114.649 231.716 114.787C231.943 114.923 232.119 115.115 232.244 115.361C232.371 115.605 232.434 115.891 232.432 116.219V119H231.043V116.491C231.045 116.249 230.983 116.06 230.858 115.923C230.735 115.787 230.563 115.719 230.344 115.719C230.198 115.719 230.069 115.751 229.957 115.815C229.848 115.878 229.762 115.968 229.702 116.085C229.643 116.203 229.613 116.345 229.611 116.511Z" fill="white"/>
<circle cx="221" cy="41" r="3" fill="black"/>
<circle cx="221" cy="82" r="21" fill="white"/>
<path d="M211 91C211 86.0294 215.029 82 220 82H221C225.971 82 230 86.0294 230 91H211Z" fill="#D9D9D9"/>
<circle cx="221" cy="78" r="5" fill="#D9D9D9"/>
<rect x="179" y="127" width="81" height="15" rx="2" fill="white"/>
<rect x="179" y="147" width="81" height="15" rx="2" fill="white"/>
<rect x="179" y="168" width="81" height="15" rx="2" fill="#B5C3CB"/>
<path d="M186.44 132.636H186.968V135.526C186.968 135.824 186.898 136.09 186.757 136.325C186.618 136.558 186.421 136.741 186.167 136.876C185.913 137.01 185.615 137.077 185.272 137.077C184.93 137.077 184.632 137.01 184.377 136.876C184.123 136.741 183.926 136.558 183.785 136.325C183.646 136.09 183.576 135.824 183.576 135.526V132.636H184.105V135.483C184.105 135.696 184.152 135.886 184.245 136.052C184.339 136.217 184.473 136.347 184.646 136.442C184.821 136.536 185.029 136.582 185.272 136.582C185.515 136.582 185.724 136.536 185.899 136.442C186.073 136.347 186.207 136.217 186.299 136.052C186.393 135.886 186.44 135.696 186.44 135.483V132.636ZM190.274 134.46L189.822 134.588C189.793 134.513 189.752 134.44 189.696 134.369C189.642 134.296 189.568 134.237 189.475 134.19C189.381 134.143 189.261 134.119 189.114 134.119C188.914 134.119 188.747 134.165 188.614 134.258C188.482 134.349 188.416 134.464 188.416 134.605C188.416 134.73 188.461 134.829 188.552 134.901C188.643 134.974 188.785 135.034 188.978 135.082L189.464 135.202C189.756 135.273 189.975 135.381 190.118 135.528C190.261 135.673 190.333 135.859 190.333 136.088C190.333 136.276 190.279 136.443 190.171 136.591C190.065 136.739 189.916 136.855 189.724 136.94C189.532 137.026 189.309 137.068 189.055 137.068C188.721 137.068 188.445 136.996 188.226 136.851C188.007 136.706 187.869 136.494 187.81 136.216L188.288 136.097C188.333 136.273 188.419 136.405 188.546 136.493C188.673 136.581 188.84 136.625 189.046 136.625C189.281 136.625 189.467 136.575 189.604 136.476C189.744 136.375 189.813 136.254 189.813 136.114C189.813 136 189.774 135.905 189.694 135.828C189.614 135.75 189.492 135.692 189.328 135.653L188.782 135.526C188.482 135.455 188.262 135.344 188.122 135.195C187.982 135.045 187.913 134.857 187.913 134.631C187.913 134.446 187.965 134.283 188.068 134.141C188.173 133.999 188.316 133.887 188.497 133.806C188.678 133.725 188.884 133.685 189.114 133.685C189.438 133.685 189.693 133.756 189.877 133.898C190.063 134.04 190.195 134.227 190.274 134.46ZM192.462 137.068C192.147 137.068 191.875 136.999 191.646 136.859C191.419 136.719 191.244 136.523 191.12 136.271C190.998 136.018 190.937 135.724 190.937 135.389C190.937 135.054 190.998 134.759 191.12 134.503C191.244 134.246 191.415 134.045 191.636 133.902C191.857 133.757 192.116 133.685 192.411 133.685C192.582 133.685 192.75 133.713 192.916 133.77C193.082 133.827 193.234 133.919 193.37 134.047C193.506 134.173 193.615 134.341 193.696 134.55C193.777 134.759 193.817 135.016 193.817 135.321V135.534H191.295V135.099H193.306C193.306 134.915 193.269 134.75 193.195 134.605C193.123 134.46 193.019 134.346 192.884 134.262C192.751 134.178 192.593 134.136 192.411 134.136C192.211 134.136 192.038 134.186 191.891 134.286C191.746 134.384 191.635 134.511 191.557 134.669C191.479 134.827 191.44 134.996 191.44 135.176V135.466C191.44 135.713 191.482 135.923 191.567 136.094C191.654 136.265 191.774 136.395 191.927 136.484C192.081 136.572 192.259 136.616 192.462 136.616C192.594 136.616 192.714 136.598 192.82 136.561C192.928 136.523 193.021 136.466 193.099 136.391C193.177 136.314 193.238 136.219 193.28 136.105L193.766 136.241C193.715 136.406 193.629 136.551 193.508 136.676C193.388 136.8 193.239 136.896 193.061 136.966C192.883 137.034 192.684 137.068 192.462 137.068ZM194.582 137V133.727H195.068V134.222H195.102C195.162 134.06 195.27 133.928 195.426 133.827C195.582 133.727 195.758 133.676 195.954 133.676C195.991 133.676 196.038 133.677 196.093 133.678C196.148 133.68 196.19 133.682 196.219 133.685V134.196C196.202 134.192 196.163 134.185 196.101 134.177C196.042 134.167 195.979 134.162 195.912 134.162C195.753 134.162 195.611 134.195 195.486 134.262C195.362 134.327 195.264 134.418 195.192 134.535C195.121 134.65 195.085 134.781 195.085 134.929V137H194.582ZM197.318 135.031V137H196.815V133.727H197.301V134.239H197.343C197.42 134.072 197.536 133.939 197.693 133.838C197.849 133.736 198.051 133.685 198.298 133.685C198.519 133.685 198.713 133.73 198.879 133.821C199.046 133.911 199.175 134.047 199.267 134.23C199.359 134.412 199.406 134.642 199.406 134.92V137H198.903V134.955C198.903 134.697 198.836 134.497 198.703 134.354C198.569 134.209 198.386 134.136 198.153 134.136C197.992 134.136 197.849 134.171 197.722 134.241C197.597 134.31 197.499 134.412 197.426 134.545C197.354 134.679 197.318 134.841 197.318 135.031ZM201.288 137.077C201.08 137.077 200.892 137.038 200.723 136.96C200.554 136.88 200.42 136.766 200.32 136.616C200.221 136.466 200.171 136.284 200.171 136.071C200.171 135.884 200.208 135.732 200.282 135.615C200.356 135.497 200.454 135.405 200.578 135.338C200.702 135.271 200.838 135.222 200.987 135.189C201.138 135.155 201.289 135.128 201.441 135.108C201.64 135.082 201.801 135.063 201.925 135.05C202.05 135.036 202.141 135.013 202.197 134.98C202.256 134.947 202.285 134.891 202.285 134.81V134.793C202.285 134.582 202.227 134.419 202.112 134.303C201.998 134.186 201.826 134.128 201.594 134.128C201.354 134.128 201.166 134.18 201.03 134.286C200.893 134.391 200.797 134.503 200.742 134.622L200.265 134.452C200.35 134.253 200.464 134.098 200.606 133.987C200.749 133.875 200.905 133.797 201.074 133.753C201.245 133.707 201.413 133.685 201.577 133.685C201.682 133.685 201.803 133.697 201.94 133.723C202.077 133.747 202.21 133.798 202.338 133.874C202.467 133.951 202.574 134.067 202.66 134.222C202.745 134.376 202.788 134.584 202.788 134.844V137H202.285V136.557H202.259C202.225 136.628 202.168 136.704 202.089 136.785C202.009 136.866 201.903 136.935 201.771 136.991C201.639 137.048 201.478 137.077 201.288 137.077ZM201.364 136.625C201.563 136.625 201.731 136.586 201.867 136.508C202.005 136.43 202.109 136.329 202.178 136.205C202.249 136.082 202.285 135.952 202.285 135.815V135.355C202.263 135.381 202.217 135.404 202.144 135.425C202.073 135.445 201.991 135.463 201.897 135.479C201.805 135.493 201.714 135.506 201.626 135.517C201.54 135.527 201.469 135.536 201.415 135.543C201.285 135.56 201.163 135.587 201.049 135.626C200.937 135.663 200.846 135.719 200.776 135.794C200.708 135.868 200.674 135.969 200.674 136.097C200.674 136.271 200.739 136.403 200.868 136.493C200.998 136.581 201.164 136.625 201.364 136.625ZM203.705 137V133.727H204.191V134.239H204.234C204.302 134.064 204.412 133.928 204.564 133.832C204.716 133.734 204.899 133.685 205.112 133.685C205.328 133.685 205.507 133.734 205.651 133.832C205.796 133.928 205.908 134.064 205.989 134.239H206.024C206.107 134.07 206.233 133.935 206.401 133.836C206.568 133.735 206.769 133.685 207.004 133.685C207.296 133.685 207.536 133.776 207.722 133.96C207.908 134.141 208.001 134.425 208.001 134.81V137H207.498V134.81C207.498 134.568 207.432 134.396 207.3 134.292C207.168 134.188 207.012 134.136 206.833 134.136C206.603 134.136 206.425 134.206 206.298 134.345C206.172 134.483 206.109 134.658 206.109 134.869V137H205.597V134.759C205.597 134.572 205.537 134.423 205.416 134.309C205.296 134.194 205.14 134.136 204.95 134.136C204.819 134.136 204.697 134.171 204.583 134.241C204.471 134.31 204.38 134.407 204.31 134.531C204.242 134.653 204.208 134.794 204.208 134.955V137H203.705ZM210.292 137.068C209.977 137.068 209.705 136.999 209.476 136.859C209.249 136.719 209.074 136.523 208.95 136.271C208.828 136.018 208.767 135.724 208.767 135.389C208.767 135.054 208.828 134.759 208.95 134.503C209.074 134.246 209.245 134.045 209.466 133.902C209.687 133.757 209.946 133.685 210.241 133.685C210.412 133.685 210.58 133.713 210.746 133.77C210.912 133.827 211.064 133.919 211.2 134.047C211.336 134.173 211.445 134.341 211.526 134.55C211.607 134.759 211.647 135.016 211.647 135.321V135.534H209.125V135.099H211.136C211.136 134.915 211.099 134.75 211.025 134.605C210.953 134.46 210.849 134.346 210.714 134.262C210.581 134.178 210.423 134.136 210.241 134.136C210.041 134.136 209.868 134.186 209.721 134.286C209.576 134.384 209.465 134.511 209.387 134.669C209.309 134.827 209.27 134.996 209.27 135.176V135.466C209.27 135.713 209.312 135.923 209.397 136.094C209.484 136.265 209.604 136.395 209.758 136.484C209.911 136.572 210.089 136.616 210.292 136.616C210.424 136.616 210.544 136.598 210.65 136.561C210.758 136.523 210.851 136.466 210.929 136.391C211.008 136.314 211.068 136.219 211.111 136.105L211.596 136.241C211.545 136.406 211.459 136.551 211.339 136.676C211.218 136.8 211.069 136.896 210.891 136.966C210.714 137.034 210.514 137.068 210.292 137.068Z" fill="black"/>
<path d="M216.414 190V186.364H218.822V186.998H217.183V187.864H218.662V188.498H217.183V190H216.414ZM220.357 190.053C220.081 190.053 219.843 189.995 219.641 189.877C219.441 189.759 219.287 189.595 219.178 189.384C219.069 189.172 219.015 188.926 219.015 188.647C219.015 188.365 219.069 188.119 219.178 187.908C219.287 187.696 219.441 187.532 219.641 187.415C219.843 187.296 220.081 187.237 220.357 187.237C220.633 187.237 220.871 187.296 221.071 187.415C221.272 187.532 221.427 187.696 221.536 187.908C221.645 188.119 221.699 188.365 221.699 188.647C221.699 188.926 221.645 189.172 221.536 189.384C221.427 189.595 221.272 189.759 221.071 189.877C220.871 189.995 220.633 190.053 220.357 190.053ZM220.36 189.467C220.486 189.467 220.591 189.432 220.675 189.361C220.759 189.289 220.822 189.19 220.865 189.066C220.908 188.942 220.93 188.8 220.93 188.642C220.93 188.483 220.908 188.342 220.865 188.217C220.822 188.093 220.759 187.995 220.675 187.923C220.591 187.85 220.486 187.814 220.36 187.814C220.234 187.814 220.127 187.85 220.041 187.923C219.956 187.995 219.891 188.093 219.847 188.217C219.805 188.342 219.783 188.483 219.783 188.642C219.783 188.8 219.805 188.942 219.847 189.066C219.891 189.19 219.956 189.289 220.041 189.361C220.127 189.432 220.234 189.467 220.36 189.467ZM222.191 190V187.273H222.924V187.749H222.953C223.002 187.579 223.086 187.451 223.203 187.365C223.32 187.277 223.455 187.234 223.608 187.234C223.646 187.234 223.687 187.236 223.73 187.241C223.774 187.246 223.813 187.252 223.846 187.26V187.931C223.81 187.921 223.761 187.911 223.698 187.903C223.636 187.895 223.578 187.891 223.526 187.891C223.415 187.891 223.316 187.915 223.228 187.963C223.142 188.011 223.073 188.077 223.022 188.162C222.972 188.248 222.947 188.346 222.947 188.457V190H222.191ZM225.339 191.08C225.094 191.08 224.884 191.046 224.708 190.978C224.534 190.912 224.396 190.821 224.293 190.707C224.19 190.592 224.123 190.463 224.092 190.32L224.792 190.225C224.813 190.28 224.847 190.331 224.893 190.378C224.939 190.426 225 190.463 225.076 190.492C225.153 190.521 225.246 190.536 225.356 190.536C225.521 190.536 225.656 190.496 225.763 190.415C225.871 190.336 225.925 190.203 225.925 190.016V189.517H225.893C225.859 189.593 225.81 189.664 225.743 189.732C225.677 189.799 225.592 189.854 225.488 189.897C225.384 189.94 225.259 189.961 225.115 189.961C224.91 189.961 224.724 189.914 224.556 189.819C224.389 189.723 224.256 189.577 224.156 189.38C224.058 189.183 224.009 188.933 224.009 188.631C224.009 188.322 224.059 188.064 224.16 187.857C224.26 187.65 224.394 187.495 224.561 187.392C224.729 187.289 224.913 187.237 225.113 187.237C225.266 187.237 225.394 187.263 225.497 187.315C225.6 187.366 225.683 187.43 225.745 187.507C225.809 187.583 225.858 187.657 225.893 187.731H225.921V187.273H226.672V190.027C226.672 190.259 226.615 190.453 226.502 190.609C226.388 190.765 226.231 190.882 226.029 190.961C225.829 191.04 225.599 191.08 225.339 191.08ZM225.355 189.393C225.477 189.393 225.58 189.363 225.664 189.302C225.749 189.241 225.814 189.153 225.859 189.039C225.905 188.925 225.928 188.787 225.928 188.627C225.928 188.468 225.906 188.329 225.861 188.212C225.816 188.094 225.751 188.002 225.665 187.937C225.58 187.872 225.477 187.839 225.355 187.839C225.23 187.839 225.126 187.873 225.04 187.94C224.955 188.007 224.891 188.099 224.847 188.217C224.803 188.336 224.781 188.472 224.781 188.627C224.781 188.785 224.803 188.921 224.847 189.036C224.892 189.15 224.956 189.238 225.04 189.3C225.126 189.362 225.23 189.393 225.355 189.393ZM228.517 190.053C228.236 190.053 227.995 189.996 227.792 189.883C227.591 189.768 227.436 189.606 227.327 189.396C227.218 189.186 227.164 188.936 227.164 188.649C227.164 188.368 227.218 188.122 227.327 187.91C227.436 187.698 227.589 187.533 227.787 187.415C227.986 187.296 228.219 187.237 228.487 187.237C228.667 187.237 228.834 187.266 228.989 187.324C229.145 187.381 229.282 187.467 229.398 187.582C229.515 187.696 229.606 187.841 229.671 188.015C229.736 188.188 229.769 188.39 229.769 188.622V188.83H227.466V188.361H229.057C229.057 188.252 229.033 188.156 228.986 188.072C228.938 187.988 228.873 187.922 228.789 187.875C228.706 187.826 228.609 187.802 228.499 187.802C228.384 187.802 228.283 187.828 228.194 187.882C228.106 187.934 228.038 188.004 227.988 188.093C227.938 188.181 227.913 188.278 227.911 188.386V188.832C227.911 188.967 227.936 189.083 227.986 189.181C228.037 189.28 228.109 189.355 228.201 189.409C228.293 189.462 228.403 189.489 228.529 189.489C228.613 189.489 228.69 189.477 228.76 189.453C228.83 189.429 228.89 189.394 228.939 189.347C228.989 189.299 229.027 189.241 229.053 189.173L229.753 189.219C229.717 189.387 229.644 189.534 229.534 189.659C229.425 189.783 229.285 189.88 229.112 189.95C228.94 190.019 228.742 190.053 228.517 190.053ZM231.713 187.273V187.841H230.071V187.273H231.713ZM230.443 186.619H231.2V189.162C231.2 189.232 231.21 189.286 231.232 189.325C231.253 189.363 231.283 189.39 231.321 189.405C231.36 189.421 231.405 189.428 231.455 189.428C231.491 189.428 231.527 189.425 231.562 189.419C231.598 189.412 231.625 189.407 231.644 189.403L231.763 189.966C231.725 189.978 231.672 189.992 231.603 190.007C231.534 190.024 231.451 190.034 231.352 190.037C231.17 190.044 231.01 190.02 230.873 189.964C230.737 189.909 230.631 189.822 230.555 189.705C230.48 189.588 230.442 189.44 230.443 189.261V186.619ZM233.377 190V186.364H234.812C235.088 186.364 235.323 186.416 235.517 186.522C235.711 186.626 235.859 186.771 235.961 186.957C236.064 187.141 236.115 187.354 236.115 187.596C236.115 187.837 236.063 188.05 235.959 188.235C235.855 188.42 235.704 188.564 235.506 188.667C235.309 188.77 235.072 188.821 234.792 188.821H233.878V188.205H234.668C234.816 188.205 234.938 188.179 235.034 188.129C235.131 188.076 235.203 188.005 235.25 187.914C235.299 187.821 235.323 187.715 235.323 187.596C235.323 187.475 235.299 187.37 235.25 187.28C235.203 187.189 235.131 187.118 235.034 187.069C234.937 187.018 234.814 186.992 234.664 186.992H234.146V190H233.377ZM237.305 190.051C237.131 190.051 236.976 190.021 236.839 189.961C236.703 189.899 236.596 189.809 236.516 189.689C236.438 189.569 236.399 189.418 236.399 189.238C236.399 189.087 236.427 188.96 236.483 188.857C236.538 188.754 236.614 188.671 236.71 188.608C236.806 188.545 236.915 188.498 237.037 188.466C237.16 188.434 237.289 188.411 237.424 188.398C237.582 188.382 237.71 188.366 237.807 188.352C237.904 188.337 237.975 188.314 238.018 188.285C238.062 188.255 238.084 188.211 238.084 188.153V188.143C238.084 188.03 238.049 187.943 237.978 187.882C237.908 187.82 237.808 187.789 237.679 187.789C237.543 187.789 237.435 187.82 237.354 187.88C237.274 187.939 237.221 188.014 237.195 188.104L236.495 188.047C236.53 187.881 236.6 187.738 236.705 187.617C236.809 187.495 236.943 187.402 237.108 187.337C237.273 187.27 237.465 187.237 237.683 187.237C237.834 187.237 237.979 187.255 238.118 187.29C238.258 187.326 238.381 187.381 238.489 187.456C238.598 187.53 238.684 187.626 238.746 187.743C238.809 187.859 238.841 187.998 238.841 188.161V190H238.123V189.622H238.102C238.058 189.707 237.999 189.782 237.926 189.847C237.853 189.911 237.765 189.962 237.662 189.998C237.559 190.034 237.44 190.051 237.305 190.051ZM237.521 189.529C237.633 189.529 237.731 189.508 237.816 189.464C237.901 189.419 237.968 189.358 238.017 189.283C238.065 189.207 238.089 189.121 238.089 189.025V188.736C238.066 188.751 238.033 188.765 237.992 188.778C237.952 188.79 237.906 188.801 237.855 188.812C237.804 188.822 237.753 188.83 237.702 188.839C237.651 188.846 237.605 188.852 237.564 188.858C237.475 188.871 237.398 188.892 237.331 188.92C237.265 188.949 237.213 188.987 237.177 189.036C237.14 189.083 237.122 189.142 237.122 189.213C237.122 189.316 237.159 189.395 237.234 189.45C237.309 189.503 237.405 189.529 237.521 189.529ZM241.697 188.05L241.004 188.093C240.992 188.034 240.967 187.981 240.928 187.933C240.889 187.885 240.837 187.846 240.773 187.818C240.71 187.788 240.635 187.773 240.548 187.773C240.431 187.773 240.332 187.798 240.251 187.848C240.171 187.897 240.13 187.962 240.13 188.043C240.13 188.108 240.157 188.163 240.209 188.208C240.261 188.253 240.35 188.29 240.477 188.317L240.97 188.416C241.235 188.471 241.433 188.558 241.563 188.679C241.694 188.8 241.759 188.958 241.759 189.155C241.759 189.334 241.706 189.49 241.601 189.625C241.496 189.76 241.353 189.866 241.171 189.941C240.99 190.016 240.781 190.053 240.544 190.053C240.183 190.053 239.895 189.978 239.681 189.828C239.468 189.676 239.343 189.47 239.307 189.21L240.051 189.171C240.073 189.281 240.128 189.365 240.214 189.423C240.3 189.48 240.411 189.508 240.546 189.508C240.679 189.508 240.785 189.483 240.866 189.432C240.947 189.38 240.989 189.313 240.99 189.231C240.989 189.163 240.96 189.106 240.903 189.062C240.846 189.018 240.758 188.983 240.64 188.96L240.168 188.865C239.901 188.812 239.703 188.72 239.573 188.588C239.444 188.457 239.379 188.29 239.379 188.086C239.379 187.911 239.427 187.76 239.521 187.633C239.617 187.507 239.752 187.409 239.924 187.34C240.098 187.272 240.302 187.237 240.535 187.237C240.88 187.237 241.151 187.31 241.348 187.456C241.547 187.601 241.663 187.799 241.697 188.05ZM244.504 188.05L243.812 188.093C243.8 188.034 243.774 187.981 243.735 187.933C243.696 187.885 243.645 187.846 243.581 187.818C243.518 187.788 243.443 187.773 243.355 187.773C243.238 187.773 243.139 187.798 243.059 187.848C242.978 187.897 242.938 187.962 242.938 188.043C242.938 188.108 242.964 188.163 243.016 188.208C243.068 188.253 243.158 188.29 243.284 188.317L243.778 188.416C244.043 188.471 244.241 188.558 244.371 188.679C244.501 188.8 244.566 188.958 244.566 189.155C244.566 189.334 244.514 189.49 244.408 189.625C244.304 189.76 244.161 189.866 243.979 189.941C243.797 190.016 243.589 190.053 243.352 190.053C242.991 190.053 242.703 189.978 242.489 189.828C242.276 189.676 242.151 189.47 242.114 189.21L242.858 189.171C242.881 189.281 242.935 189.365 243.022 189.423C243.108 189.48 243.219 189.508 243.354 189.508C243.486 189.508 243.593 189.483 243.673 189.432C243.755 189.38 243.796 189.313 243.797 189.231C243.796 189.163 243.767 189.106 243.71 189.062C243.654 189.018 243.566 188.983 243.448 188.96L242.975 188.865C242.709 188.812 242.511 188.72 242.381 188.588C242.252 188.457 242.187 188.29 242.187 188.086C242.187 187.911 242.234 187.76 242.329 187.633C242.425 187.507 242.559 187.409 242.732 187.34C242.906 187.272 243.11 187.237 243.343 187.237C243.687 187.237 243.958 187.31 244.156 187.456C244.355 187.601 244.471 187.799 244.504 188.05ZM245.581 190L244.838 187.273H245.604L246.026 189.105H246.051L246.491 187.273H247.242L247.69 189.094H247.713L248.129 187.273H248.892L248.152 190H247.351L246.882 188.285H246.848L246.38 190H245.581ZM250.459 190.053C250.184 190.053 249.945 189.995 249.744 189.877C249.544 189.759 249.389 189.595 249.28 189.384C249.172 189.172 249.117 188.926 249.117 188.647C249.117 188.365 249.172 188.119 249.28 187.908C249.389 187.696 249.544 187.532 249.744 187.415C249.945 187.296 250.184 187.237 250.459 187.237C250.735 187.237 250.973 187.296 251.173 187.415C251.374 187.532 251.529 187.696 251.638 187.908C251.747 188.119 251.802 188.365 251.802 188.647C251.802 188.926 251.747 189.172 251.638 189.384C251.529 189.595 251.374 189.759 251.173 189.877C250.973 189.995 250.735 190.053 250.459 190.053ZM250.463 189.467C250.588 189.467 250.693 189.432 250.777 189.361C250.861 189.289 250.925 189.19 250.967 189.066C251.011 188.942 251.033 188.8 251.033 188.642C251.033 188.483 251.011 188.342 250.967 188.217C250.925 188.093 250.861 187.995 250.777 187.923C250.693 187.85 250.588 187.814 250.463 187.814C250.336 187.814 250.23 187.85 250.143 187.923C250.058 187.995 249.994 188.093 249.95 188.217C249.907 188.342 249.886 188.483 249.886 188.642C249.886 188.8 249.907 188.942 249.95 189.066C249.994 189.19 250.058 189.289 250.143 189.361C250.23 189.432 250.336 189.467 250.463 189.467ZM252.294 190V187.273H253.027V187.749H253.055C253.105 187.579 253.188 187.451 253.306 187.365C253.423 187.277 253.558 187.234 253.71 187.234C253.748 187.234 253.789 187.236 253.833 187.241C253.877 187.246 253.915 187.252 253.948 187.26V187.931C253.913 187.921 253.864 187.911 253.801 187.903C253.738 187.895 253.681 187.891 253.629 187.891C253.518 187.891 253.418 187.915 253.33 187.963C253.244 188.011 253.175 188.077 253.125 188.162C253.075 188.248 253.05 188.346 253.05 188.457V190H252.294ZM255.217 190.044C255.01 190.044 254.823 189.991 254.655 189.885C254.488 189.777 254.355 189.619 254.257 189.411C254.16 189.201 254.111 188.944 254.111 188.64C254.111 188.327 254.162 188.068 254.262 187.86C254.363 187.652 254.497 187.496 254.663 187.393C254.832 187.289 255.016 187.237 255.216 187.237C255.368 187.237 255.496 187.263 255.597 187.315C255.7 187.366 255.783 187.43 255.846 187.507C255.91 187.583 255.958 187.657 255.992 187.731H256.015V186.364H256.769V190H256.024V189.563H255.992C255.956 189.639 255.906 189.714 255.841 189.789C255.777 189.862 255.693 189.923 255.59 189.972C255.489 190.02 255.364 190.044 255.217 190.044ZM255.457 189.442C255.579 189.442 255.682 189.409 255.766 189.343C255.851 189.276 255.916 189.181 255.961 189.061C256.008 188.94 256.031 188.799 256.031 188.636C256.031 188.474 256.008 188.333 255.963 188.214C255.918 188.094 255.853 188.002 255.768 187.937C255.683 187.872 255.579 187.839 255.457 187.839C255.333 187.839 255.228 187.873 255.143 187.94C255.058 188.008 254.993 188.101 254.949 188.221C254.906 188.34 254.884 188.479 254.884 188.636C254.884 188.795 254.906 188.935 254.949 189.057C254.994 189.178 255.059 189.273 255.143 189.341C255.228 189.409 255.333 189.442 255.457 189.442ZM258.041 188.91V188.849C258.042 188.642 258.061 188.477 258.096 188.354C258.133 188.231 258.186 188.132 258.256 188.056C258.326 187.98 258.41 187.911 258.508 187.85C258.581 187.802 258.647 187.753 258.705 187.702C258.763 187.652 258.809 187.595 258.844 187.534C258.878 187.471 258.895 187.401 258.895 187.324C258.895 187.243 258.876 187.171 258.837 187.109C258.797 187.048 258.745 187 258.678 186.967C258.613 186.934 258.541 186.918 258.462 186.918C258.385 186.918 258.312 186.935 258.243 186.969C258.175 187.002 258.119 187.052 258.075 187.118C258.031 187.183 258.007 187.264 258.004 187.362H257.279C257.285 187.125 257.342 186.929 257.45 186.776C257.558 186.621 257.7 186.505 257.878 186.429C258.055 186.352 258.251 186.314 258.465 186.314C258.701 186.314 258.909 186.353 259.09 186.431C259.272 186.508 259.414 186.62 259.517 186.767C259.62 186.913 259.671 187.09 259.671 187.298C259.671 187.436 259.648 187.559 259.602 187.667C259.557 187.773 259.493 187.868 259.412 187.951C259.33 188.033 259.234 188.107 259.122 188.173C259.029 188.229 258.952 188.287 258.892 188.347C258.832 188.407 258.788 188.477 258.758 188.556C258.73 188.636 258.715 188.733 258.714 188.849V188.91H258.041ZM258.393 190.046C258.274 190.046 258.173 190.005 258.089 189.922C258.006 189.838 257.965 189.737 257.966 189.62C257.965 189.504 258.006 189.405 258.089 189.322C258.173 189.239 258.274 189.197 258.393 189.197C258.505 189.197 258.604 189.239 258.689 189.322C258.774 189.405 258.818 189.504 258.819 189.62C258.818 189.698 258.797 189.77 258.757 189.835C258.718 189.899 258.666 189.95 258.602 189.989C258.538 190.027 258.468 190.046 258.393 190.046Z" fill="white"/>
<path d="M208.589 178V172.182H209.995V176.858H212.415V178H208.589ZM215.18 178.082C214.722 178.082 214.328 177.989 213.999 177.801C213.671 177.612 213.418 177.348 213.24 177.011C213.064 176.672 212.976 176.279 212.976 175.832C212.976 175.384 213.064 174.991 213.24 174.653C213.418 174.314 213.671 174.051 213.999 173.864C214.328 173.674 214.722 173.58 215.18 173.58C215.639 173.58 216.032 173.674 216.359 173.864C216.689 174.051 216.942 174.314 217.118 174.653C217.296 174.991 217.385 175.384 217.385 175.832C217.385 176.279 217.296 176.672 217.118 177.011C216.942 177.348 216.689 177.612 216.359 177.801C216.032 177.989 215.639 178.082 215.18 178.082ZM215.189 177.034C215.356 177.034 215.497 176.983 215.612 176.881C215.728 176.778 215.816 176.636 215.876 176.455C215.939 176.273 215.97 176.062 215.97 175.824C215.97 175.581 215.939 175.369 215.876 175.188C215.816 175.006 215.728 174.864 215.612 174.761C215.497 174.659 215.356 174.608 215.189 174.608C215.017 174.608 214.871 174.659 214.751 174.761C214.634 174.864 214.544 175.006 214.482 175.188C214.421 175.369 214.391 175.581 214.391 175.824C214.391 176.062 214.421 176.273 214.482 176.455C214.544 176.636 214.634 176.778 214.751 176.881C214.871 176.983 215.017 177.034 215.189 177.034ZM220.131 179.727C219.716 179.727 219.361 179.67 219.065 179.554C218.77 179.438 218.538 179.28 218.369 179.08C218.201 178.879 218.099 178.652 218.065 178.398L219.381 178.324C219.405 178.413 219.451 178.491 219.517 178.557C219.585 178.623 219.673 178.674 219.781 178.71C219.891 178.746 220.02 178.764 220.168 178.764C220.401 178.764 220.593 178.707 220.744 178.594C220.898 178.482 220.974 178.286 220.974 178.006V177.239H220.926C220.871 177.373 220.788 177.493 220.676 177.599C220.564 177.705 220.425 177.789 220.259 177.849C220.094 177.91 219.904 177.94 219.69 177.94C219.372 177.94 219.08 177.866 218.815 177.719C218.552 177.569 218.341 177.338 218.182 177.026C218.025 176.711 217.946 176.307 217.946 175.812C217.946 175.303 218.027 174.884 218.19 174.554C218.353 174.223 218.566 173.977 218.83 173.818C219.095 173.659 219.38 173.58 219.685 173.58C219.914 173.58 220.11 173.619 220.273 173.699C220.438 173.777 220.573 173.877 220.679 174C220.785 174.123 220.866 174.251 220.92 174.384H220.96V173.636H222.344V178.017C222.344 178.386 222.251 178.698 222.065 178.952C221.88 179.205 221.62 179.398 221.287 179.528C220.954 179.661 220.568 179.727 220.131 179.727ZM220.173 176.929C220.342 176.929 220.486 176.884 220.605 176.795C220.724 176.706 220.816 176.579 220.881 176.412C220.945 176.245 220.977 176.045 220.977 175.812C220.977 175.576 220.945 175.372 220.881 175.202C220.818 175.029 220.726 174.897 220.605 174.804C220.486 174.711 220.342 174.665 220.173 174.665C220.001 174.665 219.855 174.712 219.736 174.807C219.616 174.902 219.526 175.035 219.463 175.207C219.402 175.378 219.372 175.58 219.372 175.812C219.372 176.045 219.403 176.245 219.466 176.412C219.528 176.579 219.618 176.706 219.736 176.795C219.855 176.884 220.001 176.929 220.173 176.929ZM224.948 178V173.636H226.337V178H224.948ZM225.644 173.128C225.449 173.128 225.281 173.063 225.141 172.935C225.001 172.804 224.931 172.647 224.931 172.463C224.931 172.281 225.001 172.126 225.141 171.997C225.281 171.866 225.449 171.801 225.644 171.801C225.841 171.801 226.009 171.866 226.147 171.997C226.287 172.126 226.357 172.281 226.357 172.463C226.357 172.647 226.287 172.804 226.147 172.935C226.009 173.063 225.841 173.128 225.644 173.128ZM228.611 175.511V178H227.222V173.636H228.543V174.438H228.591C228.688 174.17 228.852 173.961 229.085 173.81C229.318 173.656 229.596 173.58 229.918 173.58C230.224 173.58 230.491 173.649 230.716 173.787C230.943 173.923 231.119 174.115 231.244 174.361C231.371 174.605 231.434 174.891 231.432 175.219V178H230.043V175.491C230.045 175.249 229.983 175.06 229.858 174.923C229.735 174.787 229.563 174.719 229.344 174.719C229.198 174.719 229.069 174.751 228.957 174.815C228.848 174.878 228.762 174.968 228.702 175.085C228.643 175.203 228.613 175.345 228.611 175.511Z" fill="white"/>
<circle cx="183.5" cy="155" r="1.5" fill="black"/>
<circle cx="187.5" cy="155" r="1.5" fill="black"/>
<circle cx="191.5" cy="155" r="1.5" fill="black"/>
<circle cx="195.5" cy="155" r="1.5" fill="black"/>
<circle cx="199.5" cy="155" r="1.5" fill="black"/>
<circle cx="203.5" cy="155" r="1.5" fill="black"/>
<circle cx="207.5" cy="155" r="1.5" fill="black"/>
<circle cx="211.5" cy="155" r="1.5" fill="black"/>
<circle cx="215.5" cy="155" r="1.5" fill="black"/>
<path d="M417.609 163.5C411.59 177.772 406.321 183.495 395.109 191.5C395.452 182.776 395.884 177.734 398.609 168C399.593 162.166 400.406 158.96 402.609 153.5C405.738 146.309 408.046 142.451 413.109 136C416.754 131.182 417.662 128.45 425.609 124C424.275 129.242 423.681 132.278 423.109 138C422.677 139.465 422.457 140.329 421.609 142C420.12 144.45 418.858 145.122 416.109 145.5L421.609 146L419.109 157C418.394 158.855 417.677 159.893 411.609 161.5L417.609 163.5Z" fill="#2D3D4D" stroke="black" stroke-width="0.5"/>
<path d="M403.027 145.156C397.699 162.917 393.035 170.038 383.109 180C383.413 169.144 383.795 162.869 386.208 150.756C387.079 143.495 387.798 139.506 389.749 132.711C392.518 123.763 394.562 118.962 399.044 110.933C402.27 104.937 403.074 101.537 410.109 96C408.928 102.523 408.403 106.302 407.896 113.422C407.514 115.245 407.319 116.32 406.568 118.4C405.25 121.449 404.133 122.285 401.7 122.756L406.568 123.378L404.355 137.067C403.722 139.375 403.088 140.667 397.716 142.667L403.027 145.156Z" fill="#2D3D4D" stroke="black" stroke-width="0.5"/>
<path d="M368.174 150.79C370.976 169.396 375.251 177.563 385.469 189.939C387.438 179.391 388.317 173.237 387.928 160.888C388.412 153.648 388.377 149.602 387.415 142.508C385.897 133.11 384.388 127.912 380.536 118.922C377.811 112.241 377.543 108.74 369.971 101.436C370.033 108.053 369.872 111.842 368.964 118.846C369.047 120.71 369.057 121.8 369.543 124.014C370.527 127.321 371.739 128.439 374.67 129.573L368.467 128.811L368.267 142.623C368.558 145.025 369.069 146.447 375.332 149.876L368.174 150.79Z" fill="#2D3D4D" stroke="black" stroke-width="0.5"/>
<path d="M354.52 171.293C360.013 182.348 366.44 189.19 381.111 202C382.688 198.057 383.253 195.58 381.547 189.204C381.486 185.931 381.049 183.903 379.095 179.757C376.185 174.106 373.692 170.543 367.744 163.57C363.505 158.478 362.814 156.567 352.122 148C352.844 151.321 352.997 153.094 352.476 155.973C352.765 156.951 352.884 157.499 353.739 158.914C355.357 161.196 357.062 162.542 361.038 165.019L352.784 160.589L353.854 167.305C354.469 168.686 355.281 169.725 363.872 175.516L354.52 171.293Z" fill="#2D3D4D" stroke="black" stroke-width="0.5"/>
<path d="M376.111 120C382.585 153.207 385.333 171.941 386.108 206" stroke="black" stroke-width="0.5"/>
<path d="M376.111 120C382.585 153.207 385.333 171.941 386.108 206" stroke="black" stroke-width="0.5"/>
<path d="M376.111 121C382.585 154.206 385.334 172.941 386.109 207" stroke="black" stroke-width="0.5"/>
<path d="M376.111 121C382.585 154.206 385.334 172.941 386.109 207" stroke="black" stroke-width="0.5"/>
<path d="M361.109 161C370.915 178.593 375.994 188.576 383.115 207" stroke="black" stroke-width="0.5"/>
<path d="M361.109 161C370.915 178.593 375.994 188.576 383.115 207" stroke="black" stroke-width="0.5"/>
<path d="M390.109 207C399.32 177.245 405.204 160.867 419.109 133" stroke="black" stroke-width="0.5"/>
<path d="M390.109 207C399.32 177.245 405.204 160.867 419.109 133" stroke="black" stroke-width="0.5"/>
<path d="M405.499 206.602V213.913H402.422L398.736 236.059H377.261L373.331 213.913H370.133V206.602H405.499Z" fill="#91A4B0"/>
<path d="M402.422 213.913H405.499V206.602H370.133V213.913H373.331M402.422 213.913L398.736 236.059H377.261L373.331 213.913M402.422 213.913H373.331" stroke="black" stroke-width="0.5"/>
<path d="M60.9805 192.513C57.368 201.079 54.2056 204.514 47.4766 209.318C47.6821 204.083 47.9415 201.056 49.5772 195.214C50.1676 191.713 50.6555 189.789 51.9779 186.512C53.8555 182.196 55.2408 179.881 58.2797 176.009C60.4669 173.117 61.0121 171.477 65.7819 168.807C64.981 171.953 64.6247 173.775 64.2814 177.209C64.022 178.088 63.8899 178.607 63.3812 179.61C62.4873 181.08 61.7301 181.483 60.0802 181.71L63.3812 182.01L61.8807 188.612C61.4512 189.726 61.0213 190.349 57.3794 191.313L60.9805 192.513Z" fill="#2D3D4D" stroke="black" stroke-width="0.5"/>
<path d="M52.2355 181.502C49.0376 192.162 46.2381 196.436 40.2812 202.415C40.4632 195.899 40.6928 192.133 42.1408 184.863C42.6635 180.505 43.0954 178.111 44.266 174.033C45.9282 168.662 47.1545 165.781 49.8447 160.963C51.7809 157.364 52.2636 155.323 56.486 152C55.777 155.915 55.4616 158.183 55.1577 162.456C54.928 163.551 54.8111 164.196 54.3608 165.444C53.5694 167.274 52.8991 167.775 51.4386 168.058L54.3608 168.431L53.0325 176.647C52.6523 178.033 52.2717 178.808 49.0477 180.008L52.2355 181.502Z" fill="#2D3D4D" stroke="black" stroke-width="0.5"/>
<path d="M31.3012 184.879C32.9833 196.047 35.549 200.948 41.6816 208.376C42.8631 202.045 43.3909 198.352 43.1574 190.94C43.4477 186.594 43.4269 184.166 42.8491 179.909C41.9381 174.268 41.0323 171.149 38.7206 165.753C37.0851 161.743 36.9244 159.642 32.3797 155.259C32.4172 159.23 32.3202 161.504 31.7753 165.707C31.8251 166.826 31.8314 167.481 32.1229 168.809C32.7138 170.794 33.4409 171.465 35.2003 172.146L31.4772 171.689L31.3571 179.978C31.5315 181.419 31.8384 182.273 35.5975 184.331L31.3012 184.879Z" fill="#2D3D4D" stroke="black" stroke-width="0.5"/>
<path d="M23.1137 197.187C26.4107 203.823 30.2678 207.929 39.0729 215.617C40.0196 213.25 40.3588 211.764 39.335 207.937C39.2981 205.973 39.0361 204.755 37.8629 202.267C36.1166 198.876 34.6207 196.737 31.0509 192.552C28.5067 189.496 28.0919 188.349 21.675 183.208C22.108 185.201 22.1997 186.265 21.8871 187.993C22.0609 188.58 22.1323 188.908 22.6452 189.758C23.6162 191.127 24.6398 191.935 27.0258 193.422L22.0718 190.763L22.714 194.794C23.0833 195.623 23.5704 196.246 28.7267 199.722L23.1137 197.187Z" fill="#2D3D4D" stroke="black" stroke-width="0.5"/>
<path d="M36.0816 166.402C39.9673 186.332 41.6166 197.576 42.0818 218.017" stroke="black" stroke-width="0.5"/>
<path d="M36.0816 166.402C39.9673 186.332 41.6166 197.576 42.0818 218.017" stroke="black" stroke-width="0.5"/>
<path d="M36.0816 167.006C39.9674 186.936 41.6169 198.18 42.0824 218.621" stroke="black" stroke-width="0.5"/>
<path d="M36.0816 167.006C39.9674 186.936 41.6169 198.18 42.0824 218.621" stroke="black" stroke-width="0.5"/>
<path d="M27.0865 191.009C32.9716 201.567 36.02 207.559 40.2936 218.617" stroke="black" stroke-width="0.5"/>
<path d="M27.0865 191.009C32.9716 201.567 36.02 207.559 40.2936 218.617" stroke="black" stroke-width="0.5"/>
<path d="M44.4922 218.62C50.0202 200.762 53.5516 190.932 61.8972 174.208" stroke="black" stroke-width="0.5"/>
<path d="M44.4922 218.62C50.0202 200.762 53.5516 190.932 61.8972 174.208" stroke="black" stroke-width="0.5"/>
<path d="M53.718 218.381V222.769H51.8715L49.6593 236.06H36.7703L34.4118 222.769H32.4922V218.381H53.718Z" fill="#91A4B0"/>
<path d="M51.8715 222.769H53.718V218.381H32.4922V222.769H34.4118M51.8715 222.769L49.6593 236.06H36.7703L34.4118 222.769M51.8715 222.769H34.4118" stroke="black" stroke-width="0.5"/>
</svg>
