<svg width="197" height="156" viewBox="0 0 197 156" fill="none" xmlns="http://www.w3.org/2000/svg">
<path d="M141.533 42.356C145.426 41.3619 147.606 40.4909 151.503 38.2411C156.268 34.4045 158.431 32.0988 162.423 30.1695L164.323 29.3784C167.396 28.4471 169.082 28.6831 172.078 29.3784C174.171 30.201 175.29 30.7675 177.142 32.0688H186.954C193.901 35.2487 195.119 38.9916 195.975 46.6291C193.421 44.7246 191.885 44.1277 188.853 45.0465C180.814 48.5571 178.67 51.2728 174.926 56.5997C173.958 65.1251 174.023 69.7921 174.926 77.9654C174.818 80.7439 173.941 82.0087 171.603 83.9794" stroke="#2D3D4D"/>
<path d="M189.031 40.1905C191.335 41.1434 192.623 41.74 194.887 43.1975L195.361 45.2549L193.621 44.3054C192.015 42.915 190.944 42.4457 189.031 41.6149C186.682 40.8726 185.37 40.8146 183.017 41.2983C179.767 42.3202 178.024 43.108 175.104 45.0967C174.671 45.3018 174.429 45.4144 173.996 45.0967C173.718 44.7317 173.635 44.5089 173.996 43.9888C177.396 42.0043 179.389 41.1533 183.017 39.874C185.368 39.5851 186.683 39.5395 189.031 40.1905Z" fill="#2D3D4D" stroke="#2D3D4D" stroke-width="0.5"/>
<path d="M167.983 88.9804L109.425 7.94945L109.424 7.98118C109.371 8.89558 109.341 9.41796 110.058 10.6399L161.969 91.9875C163.004 94.6337 163.078 96.213 161.969 99.2676C160.538 101.846 159.281 103.073 156.746 105.123C159.193 104.847 160.556 104.621 162.919 103.699C165.462 101.947 166.789 100.903 167.983 98.318C169.28 95.3573 169.397 93.5217 167.983 88.9804Z" fill="#2D3D4D"/>
<path d="M156.746 90.2466L106.102 7.63292C105.526 8.16102 105.505 8.60207 105.785 9.53208L147.884 86.1317C148.49 87.8906 148.656 88.7635 147.884 89.6135C146.947 90.0316 146.386 89.9804 145.351 89.6135L136.647 73.4706C134.529 69.6145 133.268 68.7014 130.949 68.2479H104.678C103.999 68.2305 103.627 68.1637 103.095 67.2983C102.824 66.2503 103.013 65.7196 103.886 64.9244C107.221 61.0713 108.891 58.7289 110.058 51.9467C110.781 42.6139 111.277 37.1956 108.318 27.5741C105.404 18.9316 102.979 14.5985 96.6061 7.63292C99.3022 40.3823 93.2684 54.1245 70.9674 71.5714C68.1443 72.6557 66.5452 72.76 63.6873 72.6793C63.2275 73.1118 63.153 73.3546 63.6873 73.7871L128.259 73.4706C129.161 73.5697 130.205 73.8949 130.949 75.6863L138.388 88.9804C139.59 90.8282 139.622 91.5132 138.388 91.9875H100.879C100.606 91.8665 100.481 91.7787 100.404 91.5127L100.088 84.7073H93.2825V91.5127C93.1556 92.95 92.6563 93.3426 91.3834 93.5701C89.8855 93.3599 89.5701 92.7697 89.4842 91.0379V80.7507C89.0854 78.8921 88.6838 78.0076 86.3189 77.902H66.2195C63.4535 77.8628 62.6178 79.5855 61.9464 84.7073L61.4716 90.0883H71.4422C72.4613 90.8895 72.182 91.2892 71.4422 91.9875H54.3497C51.4653 90.5307 50.7041 89.3509 51.9757 86.1317L90.2755 13.0139L89.6425 9.84861L43.4295 89.93C42.6039 92.0451 42.5662 93.1996 43.4295 95.1527C44.8644 97.2404 45.896 98.0557 48.4939 98.318H78.0892C80.1026 97.6451 80.936 96.8882 81.2545 94.0449V86.7648C80.8186 85.5551 80.4451 84.9909 79.0388 84.7073H71.4422C70.8647 84.5398 70.565 84.4094 70.4926 83.4412C70.4311 82.3475 70.7057 82.0152 71.4422 81.8586H80.6215C83.4456 82.6245 84.2286 83.6918 84.8946 86.1317V93.2536C84.8248 95.338 84.354 96.2023 82.5206 97.2102C81.5915 98.2225 82.0327 98.3983 83.7867 98.318H155.638C157.685 97.817 158.497 97.2033 158.487 94.6779C158.266 92.9282 157.809 91.9554 156.746 90.2466Z" fill="#2D3D4D"/>
<path d="M167.983 88.9804L109.425 7.94945L109.424 7.98118C109.371 8.89558 109.341 9.41796 110.058 10.6399L161.969 91.9875C163.004 94.6337 163.078 96.213 161.969 99.2676C160.538 101.846 159.281 103.073 156.746 105.123C159.193 104.847 160.556 104.621 162.919 103.699C165.462 101.947 166.789 100.903 167.983 98.318C169.28 95.3573 169.397 93.5217 167.983 88.9804Z" stroke="#2D3D4D" stroke-width="0.3"/>
<path d="M156.746 90.2466L106.102 7.63292C105.526 8.16102 105.505 8.60207 105.785 9.53208L147.884 86.1317C148.49 87.8906 148.656 88.7635 147.884 89.6135C146.947 90.0316 146.386 89.9804 145.351 89.6135L136.647 73.4706C134.529 69.6145 133.268 68.7014 130.949 68.2479H104.678C103.999 68.2305 103.627 68.1637 103.095 67.2983C102.824 66.2503 103.013 65.7196 103.886 64.9244C107.221 61.0713 108.891 58.7289 110.058 51.9467C110.781 42.6139 111.277 37.1956 108.318 27.5741C105.404 18.9316 102.979 14.5985 96.6061 7.63292C99.3022 40.3823 93.2684 54.1245 70.9674 71.5714C68.1443 72.6557 66.5452 72.76 63.6873 72.6793C63.2275 73.1118 63.153 73.3546 63.6873 73.7871L128.259 73.4706C129.161 73.5697 130.205 73.8949 130.949 75.6863L138.388 88.9804C139.59 90.8282 139.622 91.5132 138.388 91.9875H100.879C100.606 91.8665 100.481 91.7787 100.404 91.5127L100.088 84.7073H93.2825V91.5127C93.1556 92.95 92.6563 93.3426 91.3834 93.5701C89.8855 93.3599 89.5701 92.7697 89.4842 91.0379V80.7507C89.0854 78.8921 88.6838 78.0076 86.3189 77.902H66.2195C63.4535 77.8628 62.6178 79.5855 61.9464 84.7073L61.4716 90.0883H71.4422C72.4613 90.8895 72.182 91.2892 71.4422 91.9875H54.3497C51.4653 90.5307 50.7041 89.3509 51.9757 86.1317L90.2755 13.0139L89.6425 9.84861L43.4295 89.93C42.6039 92.0451 42.5662 93.1996 43.4295 95.1527C44.8644 97.2404 45.896 98.0557 48.4939 98.318H78.0892C80.1026 97.6451 80.936 96.8882 81.2545 94.0449V86.7648C80.8186 85.5551 80.4451 84.9909 79.0388 84.7073H71.4422C70.8647 84.5398 70.565 84.4094 70.4926 83.4412C70.4311 82.3475 70.7057 82.0152 71.4422 81.8586H80.6215C83.4456 82.6245 84.2286 83.6918 84.8946 86.1317V93.2536C84.8248 95.338 84.354 96.2023 82.5206 97.2102C81.5915 98.2225 82.0327 98.3983 83.7867 98.318H155.638C157.685 97.817 158.497 97.2033 158.487 94.6779C158.266 92.9282 157.809 91.9554 156.746 90.2466Z" stroke="#2D3D4D" stroke-width="0.3"/>
<ellipse cx="93.3368" cy="79.3043" rx="3.007" ry="3.007" fill="#2D3D4D"/>
<ellipse cx="61.3349" cy="104.658" rx="3.007" ry="3.007" fill="#2D3D4D"/>
<ellipse cx="68.6181" cy="104.658" rx="3.007" ry="3.007" fill="#2D3D4D"/>
<ellipse cx="81.3085" cy="104.658" rx="3.007" ry="3.007" fill="#2D3D4D"/>
<ellipse cx="100.62" cy="79.3043" rx="3.007" ry="3.007" fill="#2D3D4D"/>
<path d="M38.6323 99.0331C37.2575 95.2953 38.4774 88.2639 39.6525 84.7477C42.0268 80.7108 85.3433 9.8053 88.1909 6.37247C91.356 3.59661 93.375 2.45087 97.5899 1.32743C100.209 0.850464 101.715 0.933207 104.426 1.32743C108.399 2.44322 110.377 3.64471 113.654 6.37247C117.373 9.81922 118.953 11.9829 121.515 15.958L172.269 85.7478C174.473 90.3347 175.223 93.1836 174.491 99.0331C173.593 103.409 172.358 105.298 169.877 108.45C166.202 111.691 163.824 112.936 158.94 114H58.2848C52.3041 113.367 49.1004 112.494 44.1008 108.45C40.6527 104.964 39.6222 102.878 38.6323 99.0331Z" stroke="#2D3D4D"/>
<path d="M1 17.1271H81.0814L78.364 21.5584H3.87717L1 17.1271Z" stroke="#2D3D4D"/>
<path d="M7.34521 26.3513H75.3983L73.0891 30.7827H9.79024L7.34521 26.3513Z" stroke="#2D3D4D"/>
<path d="M14.9595 36.1154H69.2438L66.6374 40.5468H16.8814L14.9595 36.1154Z" stroke="#2D3D4D"/>
<path d="M21.5806 45.3377H63.9952L61.1464 49.769H23.0822L21.5806 45.3377Z" stroke="#2D3D4D"/>
<path d="M13.0273 65.6227H51.6437L48.7949 70.054H14.3945L13.0273 65.6227Z" stroke="#2D3D4D"/>
<path d="M28.8638 54.4496H58.3008L55.4521 58.8809H29.906L28.8638 54.4496Z" stroke="#2D3D4D"/>
<path d="M18.3804 75.1129H45.6016L42.9673 79.5443H19.3441L18.3804 75.1129Z" stroke="#2D3D4D"/>
<path d="M25.0547 83.9607H39.9314L38.4918 88.3921H25.5814L25.0547 83.9607Z" stroke="#2D3D4D"/>
<path d="M122.111 16.2128H142.369C144.765 16.3931 145.723 17.0215 146.642 19.2198C147.096 21.237 146.976 22.2431 146.009 23.8094L136.355 35.6788" stroke="#2D3D4D"/>
<path d="M126.027 22.1974H136.375C137.6 22.2853 138.089 22.5919 138.558 23.6642C138.79 24.6482 138.729 25.139 138.235 25.9031L133.303 31.6931" stroke="#2D3D4D"/>
<path d="M173.471 35.0714L175.37 36.021L176.003 35.5462C176.424 35.311 176.696 35.2796 177.27 35.5462C177.812 36.0495 177.799 36.4184 177.586 37.1288L174.263 41.7185C173.829 42.1512 173.563 42.2578 172.996 42.035C172.575 41.5983 172.511 41.3265 172.838 40.7689L174.737 38.2367C174.779 37.4537 174.583 37.2958 173.788 37.6036C173.038 38.9152 172.517 39.6244 171.097 40.7689C170.345 40.8921 169.703 40.8859 168.249 40.7689C167.915 40.0695 167.552 39.7654 166.349 39.5028H163.817C163.342 39.0867 163.142 38.8426 163.817 38.2367C165.96 36.8134 167.17 36.0218 169.989 35.0714C171.347 34.7254 172.11 34.7386 173.471 35.0714Z" fill="#2D3D4D" stroke="#2D3D4D" stroke-width="0.3"/>
<path d="M18.6748 150H14.5869L12.9619 145.772H5.52246L3.98633 150H0L7.24902 131.389H11.2227L18.6748 150ZM11.7559 142.637L9.19141 135.73L6.67773 142.637H11.7559ZM20.6553 150V131.389H24.2227V150H20.6553ZM35.2041 150V131.389H38.9619V139.653L46.5537 131.389H51.6064L44.5986 138.638L51.9873 150H47.125L42.0088 141.266L38.9619 144.376V150H35.2041ZM61.7246 145.709L65.2793 146.306C64.8223 147.609 64.0986 148.604 63.1084 149.289C62.1266 149.966 60.8952 150.305 59.4141 150.305C57.0697 150.305 55.3346 149.539 54.209 148.007C53.3203 146.78 52.876 145.231 52.876 143.36C52.876 141.126 53.46 139.378 54.6279 138.117C55.7959 136.848 57.2728 136.213 59.0586 136.213C61.0645 136.213 62.6471 136.877 63.8066 138.206C64.9661 139.526 65.5205 141.553 65.4697 144.287H56.5322C56.5576 145.345 56.8454 146.17 57.3955 146.763C57.9456 147.347 58.6312 147.639 59.4521 147.639C60.0107 147.639 60.4805 147.486 60.8613 147.182C61.2422 146.877 61.5299 146.386 61.7246 145.709ZM61.9277 142.104C61.9023 141.071 61.6357 140.288 61.1279 139.755C60.6201 139.213 60.0023 138.942 59.2744 138.942C58.4958 138.942 57.8525 139.226 57.3447 139.793C56.8369 140.36 56.5872 141.13 56.5957 142.104H61.9277ZM74.5723 136.518V139.361H72.1348V144.795C72.1348 145.895 72.1559 146.538 72.1982 146.725C72.249 146.902 72.3548 147.05 72.5156 147.169C72.6849 147.287 72.888 147.347 73.125 147.347C73.4551 147.347 73.9333 147.232 74.5596 147.004L74.8643 149.771C74.0348 150.127 73.0954 150.305 72.0459 150.305C71.4027 150.305 70.8229 150.199 70.3066 149.987C69.7904 149.767 69.4095 149.488 69.1641 149.149C68.9271 148.802 68.762 148.337 68.6689 147.753C68.5928 147.338 68.5547 146.5 68.5547 145.239V139.361H66.917V136.518H68.5547V133.839L72.1348 131.757V136.518H74.5723ZM76.8955 150V131.389H80.4629V138.092C81.5632 136.839 82.8665 136.213 84.373 136.213C86.015 136.213 87.3734 136.81 88.4482 138.003C89.5231 139.188 90.0605 140.893 90.0605 143.119C90.0605 145.421 89.5104 147.194 88.4102 148.438C87.3184 149.683 85.9896 150.305 84.4238 150.305C83.6536 150.305 82.8919 150.114 82.1387 149.733C81.3939 149.344 80.7507 148.773 80.209 148.02V150H76.8955ZM80.4375 142.967C80.4375 144.363 80.6576 145.396 81.0977 146.064C81.7155 147.012 82.5365 147.486 83.5605 147.486C84.3477 147.486 85.0163 147.152 85.5664 146.483C86.125 145.806 86.4043 144.744 86.4043 143.297C86.4043 141.757 86.125 140.648 85.5664 139.971C85.0078 139.285 84.2926 138.942 83.4209 138.942C82.5661 138.942 81.8551 139.277 81.2881 139.945C80.721 140.605 80.4375 141.613 80.4375 142.967ZM92.9424 134.689V131.389H96.5098V134.689H92.9424ZM92.9424 150V136.518H96.5098V150H92.9424ZM111.63 150V134.537H106.107V131.389H120.897V134.537H115.388V150H111.63ZM125.277 150H121.71V136.518H125.023V138.435C125.59 137.529 126.098 136.932 126.547 136.645C127.004 136.357 127.52 136.213 128.096 136.213C128.908 136.213 129.691 136.437 130.444 136.886L129.34 139.996C128.739 139.607 128.18 139.412 127.664 139.412C127.165 139.412 126.742 139.552 126.395 139.831C126.048 140.102 125.772 140.597 125.569 141.316C125.375 142.036 125.277 143.542 125.277 145.836V150ZM134.659 140.631L131.422 140.047C131.786 138.743 132.412 137.779 133.301 137.152C134.189 136.526 135.51 136.213 137.262 136.213C138.853 136.213 140.038 136.403 140.816 136.784C141.595 137.157 142.141 137.635 142.454 138.219C142.776 138.794 142.937 139.856 142.937 141.405L142.898 145.569C142.898 146.754 142.953 147.63 143.063 148.197C143.182 148.756 143.398 149.357 143.711 150H140.182C140.089 149.763 139.974 149.412 139.839 148.946C139.78 148.735 139.737 148.595 139.712 148.527C139.103 149.12 138.451 149.564 137.757 149.86C137.063 150.157 136.322 150.305 135.535 150.305C134.147 150.305 133.051 149.928 132.247 149.175C131.451 148.422 131.054 147.469 131.054 146.318C131.054 145.557 131.236 144.88 131.6 144.287C131.964 143.686 132.471 143.229 133.123 142.916C133.783 142.594 134.731 142.315 135.967 142.078C137.634 141.765 138.789 141.473 139.433 141.202V140.847C139.433 140.161 139.263 139.674 138.925 139.387C138.586 139.09 137.947 138.942 137.008 138.942C136.373 138.942 135.878 139.069 135.522 139.323C135.167 139.569 134.879 140.005 134.659 140.631ZM139.433 143.525C138.976 143.678 138.252 143.86 137.262 144.071C136.271 144.283 135.624 144.49 135.319 144.693C134.854 145.023 134.621 145.442 134.621 145.95C134.621 146.45 134.807 146.881 135.18 147.245C135.552 147.609 136.026 147.791 136.602 147.791C137.245 147.791 137.858 147.579 138.442 147.156C138.874 146.835 139.158 146.441 139.293 145.976C139.386 145.671 139.433 145.091 139.433 144.236V143.525ZM150.173 150L144.739 136.518H148.484L151.023 143.398L151.76 145.696C151.954 145.112 152.077 144.727 152.128 144.541C152.246 144.16 152.373 143.779 152.509 143.398L155.073 136.518H158.742L153.385 150H150.173ZM168.746 145.709L172.301 146.306C171.844 147.609 171.12 148.604 170.13 149.289C169.148 149.966 167.917 150.305 166.436 150.305C164.091 150.305 162.356 149.539 161.23 148.007C160.342 146.78 159.897 145.231 159.897 143.36C159.897 141.126 160.481 139.378 161.649 138.117C162.817 136.848 164.294 136.213 166.08 136.213C168.086 136.213 169.669 136.877 170.828 138.206C171.988 139.526 172.542 141.553 172.491 144.287H163.554C163.579 145.345 163.867 146.17 164.417 146.763C164.967 147.347 165.653 147.639 166.474 147.639C167.032 147.639 167.502 147.486 167.883 147.182C168.264 146.877 168.551 146.386 168.746 145.709ZM168.949 142.104C168.924 141.071 168.657 140.288 168.149 139.755C167.642 139.213 167.024 138.942 166.296 138.942C165.517 138.942 164.874 139.226 164.366 139.793C163.858 140.36 163.609 141.13 163.617 142.104H168.949ZM175.411 150V131.389H178.979V150H175.411ZM181.391 146.153L184.971 145.607C185.123 146.301 185.432 146.83 185.897 147.194C186.363 147.55 187.015 147.728 187.853 147.728C188.775 147.728 189.469 147.558 189.935 147.22C190.248 146.983 190.404 146.665 190.404 146.268C190.404 145.997 190.32 145.772 190.15 145.595C189.973 145.425 189.575 145.269 188.957 145.125C186.079 144.49 184.256 143.91 183.485 143.386C182.419 142.658 181.886 141.646 181.886 140.352C181.886 139.184 182.347 138.202 183.27 137.406C184.192 136.611 185.622 136.213 187.561 136.213C189.406 136.213 190.777 136.513 191.674 137.114C192.571 137.715 193.189 138.604 193.527 139.78L190.163 140.402C190.019 139.878 189.744 139.476 189.338 139.196C188.94 138.917 188.369 138.777 187.624 138.777C186.685 138.777 186.012 138.909 185.605 139.171C185.335 139.357 185.199 139.598 185.199 139.895C185.199 140.148 185.318 140.364 185.555 140.542C185.876 140.779 186.985 141.113 188.881 141.545C190.785 141.977 192.114 142.506 192.867 143.132C193.612 143.767 193.984 144.651 193.984 145.785C193.984 147.021 193.468 148.083 192.436 148.972C191.403 149.86 189.875 150.305 187.853 150.305C186.016 150.305 184.56 149.932 183.485 149.188C182.419 148.443 181.721 147.431 181.391 146.153Z" fill="#2D3D4D"/>
</svg>
