<svg width="41" height="41" viewBox="0 0 41 41" fill="none" xmlns="http://www.w3.org/2000/svg">
<rect width="41" height="41" rx="20.5" fill="#D9D9D9"/>
<path d="M21.0431 10C18.6456 10.0026 16.347 10.9257 14.6517 12.5666C12.9563 14.2075 12.0027 16.4323 12 18.7529C12 26.2427 20.221 31.8993 20.5714 32.136C20.7097 32.2297 20.8744 32.28 21.0431 32.28C21.2119 32.28 21.3766 32.2297 21.5148 32.136C21.8652 31.8993 30.0863 26.2427 30.0863 18.7529C30.0835 16.4323 29.1299 14.2075 27.4346 12.5666C25.7393 10.9257 23.4407 10.0026 21.0431 10ZM21.0431 15.5701C21.6935 15.5701 22.3293 15.7567 22.8701 16.1065C23.4108 16.4562 23.8323 16.9533 24.0812 17.5349C24.3301 18.1165 24.3952 18.7565 24.2683 19.3739C24.1415 19.9913 23.8283 20.5585 23.3684 21.0036C22.9085 21.4487 22.3226 21.7519 21.6847 21.8747C21.0468 21.9975 20.3856 21.9345 19.7847 21.6936C19.1838 21.4526 18.6702 21.0447 18.3089 20.5213C17.9476 19.9978 17.7547 19.3825 17.7547 18.7529C17.7547 17.9088 18.1012 17.0992 18.7179 16.5023C19.3346 15.9054 20.171 15.5701 21.0431 15.5701Z" fill="#2D3D4D"/>
</svg>
