<svg width="41" height="41" viewBox="0 0 41 41" fill="none" xmlns="http://www.w3.org/2000/svg">
<rect width="41" height="41" rx="20.5" fill="#D9D9D9"/>
<path d="M28.9272 25.0458C28.774 26.2102 28.2021 27.2791 27.3184 28.0528C26.4346 28.8264 25.2995 29.2519 24.125 29.2498C17.3016 29.2498 11.75 23.6983 11.75 16.8748C11.7479 15.7003 12.1734 14.5652 12.9471 13.6815C13.7207 12.7978 14.7896 12.2259 15.9541 12.0726C16.2485 12.0367 16.5467 12.0969 16.8042 12.2444C17.0616 12.3918 17.2644 12.6186 17.3824 12.8908L19.1974 16.9427V16.953C19.2877 17.1614 19.325 17.3889 19.3059 17.6152C19.2869 17.8414 19.2121 18.0595 19.0882 18.2498C19.0727 18.273 19.0564 18.2945 19.0392 18.316L17.25 20.4369C17.8937 21.7449 19.2618 23.101 20.587 23.7464L22.6787 21.9666C22.6992 21.9494 22.7207 21.9333 22.7431 21.9185C22.9333 21.7917 23.1521 21.7142 23.3797 21.6932C23.6074 21.6722 23.8366 21.7083 24.0468 21.7982L24.058 21.8033L28.1065 23.6175C28.3792 23.735 28.6065 23.9377 28.7544 24.1951C28.9023 24.4526 28.963 24.751 28.9272 25.0458Z" fill="#2D3D4D"/>
</svg>
