<svg width="70" height="70" viewBox="0 0 70 70" fill="none" xmlns="http://www.w3.org/2000/svg">
<circle cx="35" cy="35" r="35" fill="white"/>
<path d="M27 37C27 39.5851 28.6205 42.0609 31.5224 43.9386C34.4144 45.8099 38.4696 47 43 47C47.5304 47 51.5856 45.8099 54.4776 43.9386C57.3795 42.0609 59 39.5851 59 37C59 34.4149 57.3795 31.9391 54.4776 30.0614C51.5856 28.1901 47.5304 27 43 27C38.4696 27 34.4144 28.1901 31.5224 30.0614C28.6205 31.9391 27 34.4149 27 37Z" fill="#2D3D4D" stroke="#2D3D4D" stroke-width="2"/>
<path d="M56.5547 51.0004C54.0724 49.1429 53.1331 47.9814 52.4149 45.5811L47.5224 47.2485C50.0366 49.4695 51.9852 50.3109 56.5547 51.0004Z" fill="#2D3D4D" stroke="#2D3D4D" stroke-width="0.2"/>
<path d="M53.8792 49.6481C52.3233 48.2249 51.476 45.9166 51.0046 44.0453C49.9364 44.9855 48.9433 45.3984 47.7675 45.5289C49.3473 47.2364 51.0461 49.1671 53.8792 49.6481Z" fill="#2D3D4D"/>
<ellipse cx="30.5556" cy="33" rx="20.5556" ry="15" fill="white"/>
<path d="M48 32.5C48 35.8306 46.152 38.9322 42.992 41.2382C39.8328 43.5435 35.4195 45 30.5 45C25.5805 45 21.1672 43.5435 18.008 41.2382C14.848 38.9322 13 35.8306 13 32.5C13 29.1694 14.848 26.0678 18.008 23.7618C21.1672 21.4565 25.5805 20 30.5 20C35.4195 20 39.8328 21.4565 42.992 23.7618C46.152 26.0678 48 29.1694 48 32.5Z" fill="white" stroke="#2D3D4D" stroke-width="2"/>
<path d="M14 50C17.8475 47.6007 19.3035 46.1005 20.4167 43L28 45.1538C24.1031 48.0226 21.0826 49.1094 14 50Z" fill="#2D3D4D" stroke="#2D3D4D" stroke-width="0.2"/>
<path d="M18.177 48.2539C20.5888 46.4157 21.9021 43.4341 22.6328 41.017C24.2885 42.2314 25.8278 42.7647 27.6503 42.9332C25.2016 45.1388 22.5684 47.6326 18.177 48.2539Z" fill="white"/>
<circle cx="21.5" cy="32.5" r="2.5" fill="#2D3D4D"/>
<circle cx="39.5" cy="32.5" r="2.5" fill="#2D3D4D"/>
<circle cx="30.5" cy="32.5" r="2.5" fill="#2D3D4D"/>
</svg>
