<svg width="32" height="22" viewBox="0 0 32 22" fill="none" xmlns="http://www.w3.org/2000/svg">
<path d="M30.7692 0H1.23077C0.904349 0 0.591298 0.115893 0.360484 0.322183C0.12967 0.528473 0 0.808262 0 1.1V19.8C0 20.3835 0.25934 20.9431 0.720968 21.3556C1.1826 21.7682 1.8087 22 2.46154 22H29.5385C30.1913 22 30.8174 21.7682 31.279 21.3556C31.7407 20.9431 32 20.3835 32 19.8V1.1C32 0.808262 31.8703 0.528473 31.6395 0.322183C31.4087 0.115893 31.0957 0 30.7692 0ZM11.4938 11L2.46154 18.3989V3.60113L11.4938 11ZM13.3154 12.4919L15.1615 14.0112C15.3886 14.1975 15.6856 14.3009 15.9938 14.3009C16.3021 14.3009 16.5991 14.1975 16.8262 14.0112L18.6723 12.4919L27.5954 19.8H4.39538L13.3154 12.4919ZM20.5062 11L29.5385 3.59975V18.4003L20.5062 11Z" fill="#2D3D4D"/>
</svg>
