<svg width="76" height="58" viewBox="0 0 76 58" fill="none" xmlns="http://www.w3.org/2000/svg">
<path d="M46.8601 9.86056C46.8601 14.7541 42.893 18.7211 37.9995 18.7211C33.1059 18.7211 29.1389 14.7541 29.1389 9.86056C29.1389 4.96701 33.1059 1 37.9995 1C42.893 1 46.8601 4.96701 46.8601 9.86056Z" stroke="white" stroke-width="2"/>
<path d="M20.8394 26.4741C22.8971 22.5552 24.8488 21.1806 29.5353 19.9521M46.1507 19.9521C51.0462 20.8296 52.9362 22.3236 55.0796 26.4741" stroke="white" stroke-width="2"/>
<path d="M7.76423 19.0948L8.91963 22.6508C9.0535 23.0628 9.43746 23.3418 9.87068 23.3418H13.6096L10.5848 25.5394C10.2343 25.7941 10.0876 26.2455 10.2215 26.6575L11.3769 30.2134L8.35202 28.0157C8.00153 27.7611 7.52694 27.7611 7.17645 28.0157L4.15159 30.2134L5.30698 26.6575C5.44086 26.2455 5.2942 25.7941 4.94371 25.5394L1.91885 23.3418L5.65778 23.3418C6.09101 23.3418 6.47497 23.0628 6.60884 22.6508L7.76423 19.0948Z" stroke="white"/>
<path d="M68.2359 19.0948L69.3913 22.6508C69.5252 23.0628 69.9091 23.3418 70.3424 23.3418H74.0813L71.0564 25.5394C70.706 25.7941 70.5593 26.2455 70.6932 26.6575L71.8486 30.2134L68.8237 28.0157C68.4732 27.7611 67.9986 27.7611 67.6481 28.0157L64.6233 30.2134L65.7787 26.6575C65.9125 26.2455 65.7659 25.7941 65.4154 25.5394L62.3905 23.3418L66.1295 23.3418C66.5627 23.3418 66.9466 23.0628 67.0805 22.6508L68.2359 19.0948Z" stroke="white"/>
<path d="M26.8212 46.0388H18.5135C18.5135 46.0388 17.378 45.6978 17.0383 45.1071C16.6755 44.4762 17.0383 43.2437 17.0383 43.2437" stroke="white" stroke-width="2"/>
<path d="M49.2585 45.9648H57.5664C57.5664 45.9648 58.702 45.6238 59.0417 45.0331C59.4044 44.4022 59.0417 43.1697 59.0417 43.1697" stroke="white" stroke-width="2"/>
<path d="M16.2945 37.9402L16.5884 38.3447L16.2945 37.9402L13.0415 40.3036L14.284 36.4794C14.4179 36.0674 14.2712 35.6161 13.9208 35.3614L10.6677 32.9979L14.6887 32.9979C15.1219 32.9979 15.5059 32.719 15.6398 32.307L16.8823 28.4828L18.1249 32.307C18.2587 32.719 18.6427 32.9979 19.0759 32.9979L23.0969 32.9979L19.8439 35.3614C19.4934 35.6161 19.3467 36.0674 19.4806 36.4794L20.7231 40.3036L17.4701 37.9402C17.1196 37.6855 16.645 37.6855 16.2945 37.9402Z" stroke="white"/>
<path d="M58.5321 37.9402L58.826 38.3447L58.5321 37.9402L55.279 40.3036L56.5216 36.4794C56.6554 36.0674 56.5088 35.6161 56.1583 35.3614L52.9053 32.9979L56.9262 32.9979C57.3595 32.9979 57.7434 32.719 57.8773 32.307L59.1199 28.4828L60.3624 32.307C60.4963 32.719 60.8802 32.9979 61.3135 32.9979L65.3344 32.9979L62.0814 35.3614C61.7309 35.6161 61.5843 36.0674 61.7181 36.4794L62.9607 40.3036L59.7076 37.9402C59.3572 37.6855 58.8826 37.6855 58.5321 37.9402Z" stroke="white"/>
<path d="M37.8465 32.5148L40.2047 39.7725C40.3386 40.1845 40.7225 40.4635 41.1558 40.4635H48.787L42.6132 44.949C42.2627 45.2037 42.1161 45.655 42.2499 46.0671L44.6081 53.3248L38.4343 48.8393C38.0838 48.5846 37.6092 48.5846 37.2587 48.8393L31.0849 53.3248L33.4431 46.0671C33.577 45.655 33.4303 45.2037 33.0798 44.949L26.906 40.4635H34.5373C34.9705 40.4635 35.3545 40.1845 35.4883 39.7725L37.8465 32.5148Z" stroke="white"/>
</svg>
