<svg width="44" height="59" viewBox="0 0 44 59" fill="none" xmlns="http://www.w3.org/2000/svg">
<path d="M38.0508 17.959C38.0508 27.6013 30.2341 35.418 20.5918 35.418C10.9495 35.418 3.13281 27.6013 3.13281 17.959C3.13281 8.31666 10.9495 0.5 20.5918 0.5C30.2341 0.5 38.0508 8.31666 38.0508 17.959Z" stroke="white"/>
<path d="M35.3313 17.9606C35.3313 26.1001 28.7329 32.6985 20.5934 32.6985C12.4539 32.6985 5.85547 26.1001 5.85547 17.9606C5.85547 9.82105 12.4539 3.22266 20.5934 3.22266C28.7329 3.22266 35.3313 9.82105 35.3313 17.9606Z" stroke="white"/>
<path d="M20.5932 8.69616L22.5614 14.7535L22.6736 15.099H23.0369L29.4059 15.099L24.2533 18.8426L23.9594 19.0561L24.0716 19.4016L26.0398 25.4589L20.8871 21.7153L20.5932 21.5017L20.2993 21.7153L15.1467 25.4589L17.1148 19.4016L17.2271 19.0561L16.9332 18.8426L11.7805 15.099L18.1496 15.099H18.5128L18.6251 14.7535L20.5932 8.69616Z" stroke="white"/>
<rect x="33.6543" y="16.3281" width="2.72106" height="2.17685" fill="#91A4B0"/>
<path d="M9.12937 31.5625L1 52.5146L8.39033 50.0657L11.8392 57.1404L17.9978 40.8141M22.4964 35.372L30.8077 57.1404L34.5028 50.0657L42.6322 53.3309L34.5028 34.2836" stroke="white"/>
</svg>
