<svg width="98" height="76" viewBox="0 0 98 76" fill="none" xmlns="http://www.w3.org/2000/svg">
<path d="M69.1572 20.7409C71.0176 20.2659 72.0597 19.8496 73.9219 18.7745C76.1986 16.9411 77.2325 15.8393 79.1404 14.9173L80.048 14.5392C81.5169 14.0942 82.3222 14.207 83.7539 14.5392C84.7544 14.9323 85.2892 15.203 86.174 15.8249H90.8631C94.183 17.3445 94.7646 19.1332 95.174 22.7829C93.9534 21.8728 93.2194 21.5876 91.7707 22.0266C87.9288 23.7043 86.9041 25.002 85.1152 27.5477C84.6526 31.6217 84.6835 33.852 85.1152 37.7578C85.0636 39.0856 84.6443 39.69 83.527 40.6317" stroke="#2D3D4D"/>
<path d="M91.8555 19.7541C92.9563 20.2095 93.5721 20.4946 94.6538 21.1911L94.8807 22.1743L94.0487 21.7205C93.2815 21.0561 92.7696 20.8318 91.8555 20.4348C90.7328 20.08 90.106 20.0523 88.9815 20.2835C87.4286 20.7719 86.5956 21.1483 85.2 22.0986C84.9932 22.1966 84.8774 22.2505 84.6706 22.0986C84.5376 21.9243 84.4984 21.8178 84.6706 21.5692C86.2953 20.6208 87.2478 20.2142 88.9815 19.6028C90.1049 19.4648 90.7336 19.443 91.8555 19.7541Z" fill="#2D3D4D" stroke="#2D3D4D" stroke-width="0.5"/>
<path d="M81.7974 43.0496L53.8142 4.3268L53.8133 4.34195C53.7882 4.77893 53.7739 5.02856 54.1167 5.61251L78.9234 44.4865C79.4181 45.7511 79.4536 46.5058 78.9234 47.9655C78.2398 49.1979 77.6387 49.7842 76.4276 50.7639C77.5967 50.6319 78.2481 50.5239 79.3772 50.0832C80.5925 49.2462 81.227 48.7473 81.7974 47.5118C82.417 46.0969 82.4732 45.2197 81.7974 43.0496Z" fill="#2D3D4D"/>
<path d="M76.4276 43.6546L52.2259 4.17554C51.9508 4.4279 51.9409 4.63867 52.0747 5.0831L72.1923 41.6882C72.482 42.5288 72.5616 42.9459 72.1923 43.3521C71.7449 43.5519 71.4768 43.5274 70.9823 43.3521L66.8226 35.6378C65.8107 33.7951 65.2081 33.3587 64.0999 33.142H51.5452C51.2211 33.1337 51.0432 33.1017 50.7889 32.6882C50.6596 32.1874 50.7498 31.9338 51.1671 31.5537C52.7609 29.7125 53.5589 28.5931 54.1167 25.3521C54.462 20.8921 54.6988 18.3029 53.2847 13.705C51.8923 9.5749 50.7334 7.50421 47.6881 4.17554C48.9765 19.8257 46.0931 26.3927 35.436 34.7302C34.0869 35.2484 33.3227 35.2982 31.957 35.2596C31.7373 35.4663 31.7017 35.5824 31.957 35.789L62.8142 35.6378C63.2454 35.6852 63.7441 35.8405 64.0999 36.6966L67.6545 43.0496C68.229 43.9326 68.2444 44.2599 67.6545 44.4865H49.7301C49.5994 44.4287 49.5397 44.3868 49.5032 44.2597L49.352 41.0075H46.0999V44.2597C46.0392 44.9465 45.8006 45.1341 45.1923 45.2429C44.4765 45.1424 44.3258 44.8604 44.2847 44.0328V39.1168C44.0941 38.2286 43.9022 37.8059 42.7721 37.7554H33.1671C31.8453 37.7367 31.4459 38.56 31.1251 41.0075L30.8982 43.579H35.6629C36.1499 43.9618 36.0164 44.1529 35.6629 44.4865H27.4948C26.1164 43.7904 25.7527 43.2266 26.3603 41.6882L44.6629 6.74697L44.3604 5.23436L22.2763 43.5033C21.8818 44.5141 21.8637 45.0658 22.2763 45.9992C22.962 46.9968 23.455 47.3864 24.6965 47.5118H38.8393C39.8015 47.1902 40.1998 46.8285 40.352 45.4697V41.9907C40.1436 41.4127 39.9651 41.1431 39.2931 41.0075H35.6629C35.3869 40.9275 35.2437 40.8652 35.2091 40.4025C35.1797 39.8798 35.3109 39.721 35.6629 39.6462H40.0494C41.399 40.0122 41.7732 40.5223 42.0915 41.6882V45.0916C42.0581 46.0877 41.8331 46.5007 40.957 46.9823C40.513 47.4661 40.7238 47.5501 41.562 47.5118H75.8982C76.8762 47.2724 77.264 46.9791 77.2596 45.7723C77.1539 44.9361 76.9357 44.4712 76.4276 43.6546Z" fill="#2D3D4D"/>
<path d="M81.7974 43.0496L53.8142 4.3268L53.8133 4.34195C53.7882 4.77893 53.7739 5.02856 54.1167 5.61251L78.9234 44.4865C79.4181 45.7511 79.4536 46.5058 78.9234 47.9655C78.2398 49.1979 77.6387 49.7842 76.4276 50.7639C77.5967 50.6319 78.2481 50.5239 79.3772 50.0832C80.5925 49.2462 81.227 48.7473 81.7974 47.5118C82.417 46.0969 82.4732 45.2197 81.7974 43.0496Z" stroke="#2D3D4D" stroke-width="0.3"/>
<path d="M76.4276 43.6546L52.2259 4.17554C51.9508 4.4279 51.9409 4.63867 52.0747 5.0831L72.1923 41.6882C72.482 42.5288 72.5616 42.9459 72.1923 43.3521C71.7449 43.5519 71.4768 43.5274 70.9823 43.3521L66.8226 35.6378C65.8107 33.7951 65.2081 33.3587 64.0999 33.142H51.5452C51.2211 33.1337 51.0432 33.1017 50.7889 32.6882C50.6596 32.1874 50.7498 31.9338 51.1671 31.5537C52.7609 29.7125 53.5589 28.5931 54.1167 25.3521C54.462 20.8921 54.6988 18.3029 53.2847 13.705C51.8923 9.5749 50.7334 7.50421 47.6881 4.17554C48.9765 19.8257 46.0931 26.3927 35.436 34.7302C34.0869 35.2484 33.3227 35.2982 31.957 35.2596C31.7373 35.4663 31.7017 35.5824 31.957 35.789L62.8142 35.6378C63.2454 35.6852 63.7441 35.8405 64.0999 36.6966L67.6545 43.0496C68.229 43.9326 68.2444 44.2599 67.6545 44.4865H49.7301C49.5994 44.4287 49.5397 44.3868 49.5032 44.2597L49.352 41.0075H46.0999V44.2597C46.0392 44.9465 45.8006 45.1341 45.1923 45.2429C44.4765 45.1424 44.3258 44.8604 44.2847 44.0328V39.1168C44.0941 38.2286 43.9022 37.8059 42.7721 37.7554H33.1671C31.8453 37.7367 31.4459 38.56 31.1251 41.0075L30.8982 43.579H35.6629C36.1499 43.9618 36.0164 44.1529 35.6629 44.4865H27.4948C26.1164 43.7904 25.7527 43.2266 26.3603 41.6882L44.6629 6.74697L44.3604 5.23436L22.2763 43.5033C21.8818 44.5141 21.8637 45.0658 22.2763 45.9992C22.962 46.9968 23.455 47.3864 24.6965 47.5118H38.8393C39.8015 47.1902 40.1998 46.8285 40.352 45.4697V41.9907C40.1436 41.4127 39.9651 41.1431 39.2931 41.0075H35.6629C35.3869 40.9275 35.2437 40.8652 35.2091 40.4025C35.1797 39.8798 35.3109 39.721 35.6629 39.6462H40.0494C41.399 40.0122 41.7732 40.5223 42.0915 41.6882V45.0916C42.0581 46.0877 41.8331 46.5007 40.957 46.9823C40.513 47.4661 40.7238 47.5501 41.562 47.5118H75.8982C76.8762 47.2724 77.264 46.9791 77.2596 45.7723C77.1539 44.9361 76.9357 44.4712 76.4276 43.6546Z" stroke="#2D3D4D" stroke-width="0.3"/>
<ellipse cx="46.1257" cy="38.4381" rx="1.43697" ry="1.43697" fill="#2D3D4D"/>
<ellipse cx="30.8327" cy="50.5406" rx="1.43697" ry="1.43697" fill="#2D3D4D"/>
<ellipse cx="34.3132" cy="50.5406" rx="1.43697" ry="1.43697" fill="#2D3D4D"/>
<ellipse cx="40.3776" cy="50.5406" rx="1.43697" ry="1.43697" fill="#2D3D4D"/>
<ellipse cx="49.6062" cy="38.4381" rx="1.43697" ry="1.43697" fill="#2D3D4D"/>
<path d="M19.9836 47.8477C19.3266 46.0615 19.9096 42.7013 20.4711 41.021C21.6057 39.0919 42.3056 5.20784 43.6664 3.56737C45.179 2.24086 46.1438 1.69334 48.158 1.15647C49.4098 0.92854 50.1292 0.968081 51.4246 1.15647C53.3236 1.68968 54.2686 2.26384 55.8345 3.56737C57.6119 5.2145 58.3669 6.24845 59.5911 8.14809L83.8456 41.4989C84.8985 43.6909 85.2572 45.0524 84.9072 47.8477C84.478 49.939 83.8878 50.8416 82.7023 52.348C80.9461 53.8967 79.8097 54.4917 77.4757 55H29.3751C26.517 54.6977 24.986 54.2801 22.5969 52.348C20.9491 50.6819 20.4566 49.6849 19.9836 47.8477Z" stroke="#2D3D4D"/>
<path d="M2 8.7157H40.2689L38.9704 10.8333H3.37493L2 8.7157Z" stroke="#2D3D4D"/>
<path d="M5.03223 13.0992H37.5532L36.4497 15.2169H6.20064L5.03223 13.0992Z" stroke="#2D3D4D"/>
<path d="M8.6709 17.7926H34.6121L33.3665 19.9102H9.58933L8.6709 17.7926Z" stroke="#2D3D4D"/>
<path d="M11.835 22.1761H32.1039L30.7425 24.2938H12.5526L11.835 22.1761Z" stroke="#2D3D4D"/>
<path d="M7.74707 31.8595H26.2009L24.8396 33.9771H8.40042L7.74707 31.8595Z" stroke="#2D3D4D"/>
<path d="M15.3154 26.5632H29.3827L28.0213 28.6809H15.8135L15.3154 26.5632Z" stroke="#2D3D4D"/>
<path d="M10.3057 36.3945H23.3141L22.0552 38.5122H10.7662L10.3057 36.3945Z" stroke="#2D3D4D"/>
<path d="M13.4941 40.6323H20.6034L19.9154 42.75H13.7458L13.4941 40.6323Z" stroke="#2D3D4D"/>
<path d="M59.876 8.26086H69.5567C70.7019 8.34703 71.1595 8.64735 71.5987 9.69784C71.8158 10.6618 71.7586 11.1426 71.2962 11.8911L66.6827 17.5632" stroke="#2D3D4D"/>
<path d="M61.7471 11.1349H66.6922C67.2772 11.1769 67.511 11.3234 67.7353 11.8359C67.8462 12.3061 67.817 12.5406 67.5808 12.9058L65.2241 15.6727" stroke="#2D3D4D"/>
<path d="M84.4199 17.3078L85.3274 17.7616L85.63 17.5347C85.8311 17.4223 85.9609 17.4073 86.235 17.5347C86.4943 17.7752 86.4882 17.9515 86.3863 18.291L84.798 20.4843C84.5907 20.6911 84.4638 20.742 84.193 20.6355C83.9917 20.4268 83.9611 20.297 84.1173 20.0305L85.0249 18.8204C85.045 18.4463 84.9513 18.3708 84.5711 18.5179C84.2129 19.1447 83.9638 19.4836 83.2854 20.0305C82.9257 20.0894 82.619 20.0864 81.9241 20.0305C81.7645 19.6963 81.5914 19.5509 81.0165 19.4255H79.8064C79.5793 19.2266 79.4835 19.11 79.8064 18.8204C80.8303 18.1403 81.4085 17.762 82.756 17.3078C83.4049 17.1425 83.7692 17.1488 84.4199 17.3078Z" fill="#2D3D4D" stroke="#2D3D4D" stroke-width="0.3"/>
<path d="M9.3374 73H7.29346L6.48096 70.8862H2.76123L1.99316 73H0L3.62451 63.6943H5.61133L9.3374 73ZM5.87793 69.3184L4.5957 65.8652L3.33887 69.3184H5.87793ZM10.3276 73V63.6943H12.1113V73H10.3276ZM17.6021 73V63.6943H19.481V67.8267L23.2769 63.6943H25.8032L22.2993 67.3188L25.9937 73H23.5625L21.0044 68.6328L19.481 70.188V73H17.6021ZM30.8623 70.8545L32.6396 71.1528C32.4111 71.8045 32.0493 72.3018 31.5542 72.6445C31.0633 72.9831 30.4476 73.1523 29.707 73.1523C28.5348 73.1523 27.6673 72.7694 27.1045 72.0034C26.6602 71.3898 26.438 70.6154 26.438 69.6802C26.438 68.563 26.73 67.6891 27.314 67.0586C27.8979 66.4238 28.6364 66.1064 29.5293 66.1064C30.5322 66.1064 31.3236 66.4386 31.9033 67.103C32.4831 67.7632 32.7603 68.7767 32.7349 70.1436H28.2661C28.2788 70.6725 28.4227 71.0851 28.6978 71.3813C28.9728 71.6733 29.3156 71.8193 29.7261 71.8193C30.0054 71.8193 30.2402 71.7432 30.4307 71.5908C30.6211 71.4385 30.765 71.193 30.8623 70.8545ZM30.9639 69.0518C30.9512 68.5355 30.8179 68.144 30.564 67.8774C30.3101 67.6066 30.0011 67.4712 29.6372 67.4712C29.2479 67.4712 28.9263 67.613 28.6724 67.8965C28.4185 68.18 28.2936 68.5651 28.2979 69.0518H30.9639ZM37.2861 66.2588V67.6807H36.0674V70.3975C36.0674 70.9476 36.078 71.2692 36.0991 71.3623C36.1245 71.4512 36.1774 71.5252 36.2578 71.5845C36.3424 71.6437 36.444 71.6733 36.5625 71.6733C36.7275 71.6733 36.9666 71.6162 37.2798 71.502L37.4321 72.8857C37.0174 73.0635 36.5477 73.1523 36.0229 73.1523C35.7013 73.1523 35.4115 73.0994 35.1533 72.9937C34.8952 72.8836 34.7048 72.744 34.582 72.5747C34.4635 72.4012 34.381 72.1685 34.3345 71.8765C34.2964 71.6691 34.2773 71.2502 34.2773 70.6196V67.6807H33.4585V66.2588H34.2773V64.9194L36.0674 63.8784V66.2588H37.2861ZM38.4478 73V63.6943H40.2314V67.0459C40.7816 66.4196 41.4333 66.1064 42.1865 66.1064C43.0075 66.1064 43.6867 66.4048 44.2241 67.0015C44.7616 67.5939 45.0303 68.4466 45.0303 69.5596C45.0303 70.7106 44.7552 71.5972 44.2051 72.2192C43.6592 72.8413 42.9948 73.1523 42.2119 73.1523C41.8268 73.1523 41.446 73.0571 41.0693 72.8667C40.6969 72.672 40.3753 72.3864 40.1045 72.0098V73H38.4478ZM40.2188 69.4834C40.2188 70.1816 40.3288 70.6979 40.5488 71.0322C40.8577 71.5062 41.2682 71.7432 41.7803 71.7432C42.1738 71.7432 42.5081 71.576 42.7832 71.2417C43.0625 70.9032 43.2021 70.3721 43.2021 69.6484C43.2021 68.8783 43.0625 68.3239 42.7832 67.9854C42.5039 67.6426 42.1463 67.4712 41.7104 67.4712C41.283 67.4712 40.9276 67.6383 40.644 67.9727C40.3605 68.3027 40.2188 68.8063 40.2188 69.4834ZM46.4712 65.3447V63.6943H48.2549V65.3447H46.4712ZM46.4712 73V66.2588H48.2549V73H46.4712ZM55.8149 73V65.2686H53.0537V63.6943H60.4487V65.2686H57.6938V73H55.8149ZM62.6387 73H60.855V66.2588H62.5117V67.2173C62.7952 66.7645 63.0492 66.4661 63.2734 66.3223C63.502 66.1784 63.7601 66.1064 64.0479 66.1064C64.4541 66.1064 64.8455 66.2186 65.2222 66.4429L64.6699 67.998C64.3695 67.8034 64.0902 67.7061 63.832 67.7061C63.5824 67.7061 63.3708 67.7759 63.1973 67.9155C63.0238 68.0509 62.8862 68.2985 62.7847 68.6582C62.6873 69.0179 62.6387 69.7712 62.6387 70.918V73ZM67.3296 68.3154L65.7109 68.0234C65.8929 67.3717 66.2061 66.8893 66.6504 66.5762C67.0947 66.263 67.7549 66.1064 68.6309 66.1064C69.4264 66.1064 70.0189 66.2017 70.4082 66.3921C70.7975 66.5783 71.0705 66.8174 71.2271 67.1094C71.3879 67.3971 71.4683 67.9282 71.4683 68.7026L71.4492 70.7847C71.4492 71.3771 71.4767 71.8151 71.5317 72.0986C71.591 72.3779 71.6989 72.6784 71.8555 73H70.0908C70.0443 72.8815 69.9871 72.7059 69.9194 72.4731C69.8898 72.3674 69.8687 72.2975 69.856 72.2637C69.5513 72.5599 69.2254 72.7821 68.8784 72.9302C68.5314 73.0783 68.1611 73.1523 67.7676 73.1523C67.0736 73.1523 66.5256 72.964 66.1235 72.5874C65.7257 72.2108 65.5269 71.7347 65.5269 71.1592C65.5269 70.7783 65.6178 70.4398 65.7998 70.1436C65.9818 69.8431 66.2357 69.6146 66.5615 69.458C66.8916 69.2972 67.3656 69.1576 67.9834 69.0391C68.8171 68.8825 69.3947 68.7365 69.7163 68.6011V68.4233C69.7163 68.0806 69.6317 67.8372 69.4624 67.6934C69.2931 67.5452 68.9736 67.4712 68.5039 67.4712C68.1865 67.4712 67.939 67.5347 67.7612 67.6616C67.5835 67.7843 67.4396 68.0023 67.3296 68.3154ZM69.7163 69.7627C69.4878 69.8389 69.126 69.9299 68.6309 70.0356C68.1357 70.1414 67.812 70.2451 67.6597 70.3467C67.4269 70.5117 67.3105 70.7212 67.3105 70.9751C67.3105 71.2248 67.4036 71.4406 67.5898 71.6226C67.776 71.8045 68.013 71.8955 68.3008 71.8955C68.6224 71.8955 68.9292 71.7897 69.2212 71.5781C69.437 71.4173 69.5788 71.2205 69.6465 70.9878C69.693 70.8354 69.7163 70.5456 69.7163 70.1182V69.7627ZM75.0864 73L72.3696 66.2588H74.2422L75.5117 69.6992L75.8799 70.8481C75.9772 70.5562 76.0386 70.3636 76.064 70.2705C76.1232 70.0801 76.1867 69.8896 76.2544 69.6992L77.5366 66.2588H79.3711L76.6924 73H75.0864ZM84.373 70.8545L86.1504 71.1528C85.9219 71.8045 85.5601 72.3018 85.0649 72.6445C84.5741 72.9831 83.9583 73.1523 83.2178 73.1523C82.0456 73.1523 81.1781 72.7694 80.6152 72.0034C80.1709 71.3898 79.9487 70.6154 79.9487 69.6802C79.9487 68.563 80.2407 67.6891 80.8247 67.0586C81.4087 66.4238 82.1471 66.1064 83.04 66.1064C84.043 66.1064 84.8343 66.4386 85.4141 67.103C85.9938 67.7632 86.271 68.7767 86.2456 70.1436H81.7769C81.7896 70.6725 81.9334 71.0851 82.2085 71.3813C82.4836 71.6733 82.8263 71.8193 83.2368 71.8193C83.5161 71.8193 83.751 71.7432 83.9414 71.5908C84.1318 71.4385 84.2757 71.193 84.373 70.8545ZM84.4746 69.0518C84.4619 68.5355 84.3286 68.144 84.0747 67.8774C83.8208 67.6066 83.5119 67.4712 83.1479 67.4712C82.7586 67.4712 82.437 67.613 82.1831 67.8965C81.9292 68.18 81.8044 68.5651 81.8086 69.0518H84.4746ZM87.7056 73V63.6943H89.4893V73H87.7056ZM90.6953 71.0767L92.4854 70.8037C92.5615 71.1507 92.716 71.4152 92.9487 71.5972C93.1815 71.7749 93.5073 71.8638 93.9263 71.8638C94.3875 71.8638 94.7345 71.7791 94.9673 71.6099C95.1239 71.4914 95.2021 71.3327 95.2021 71.1338C95.2021 70.9984 95.1598 70.8862 95.0752 70.7974C94.9863 70.7127 94.7874 70.6344 94.4785 70.5625C93.0397 70.2451 92.1278 69.9552 91.7427 69.6929C91.2095 69.3289 90.9429 68.8232 90.9429 68.1758C90.9429 67.5918 91.1735 67.1009 91.6348 66.7031C92.096 66.3053 92.8112 66.1064 93.7803 66.1064C94.7028 66.1064 95.3883 66.2567 95.8369 66.5571C96.2855 66.8576 96.5944 67.3019 96.7637 67.8901L95.0815 68.2012C95.0096 67.9388 94.8721 67.7378 94.6689 67.5981C94.4701 67.4585 94.1844 67.3887 93.812 67.3887C93.3423 67.3887 93.0059 67.4543 92.8027 67.5854C92.6673 67.6785 92.5996 67.7992 92.5996 67.9473C92.5996 68.0742 92.6589 68.1821 92.7773 68.271C92.9382 68.3895 93.4925 68.5566 94.4404 68.7725C95.3926 68.9883 96.057 69.2528 96.4336 69.5659C96.806 69.8833 96.9922 70.3255 96.9922 70.8926C96.9922 71.5104 96.734 72.0415 96.2178 72.4858C95.7015 72.9302 94.9377 73.1523 93.9263 73.1523C93.008 73.1523 92.2801 72.9661 91.7427 72.5938C91.2095 72.2214 90.8604 71.7157 90.6953 71.0767Z" fill="#2D3D4D"/>
</svg>
