<svg width="41" height="41" viewBox="0 0 41 41" fill="none" xmlns="http://www.w3.org/2000/svg">
<rect width="41" height="41" rx="20.5" fill="#D9D9D9"/>
<path d="M32.4592 12H8.97837C8.71889 12 8.47004 12.0963 8.28656 12.2677C8.10308 12.4391 8 12.6716 8 12.914V28.452C8 28.9368 8.20616 29.4018 8.57311 29.7446C8.94007 30.0874 9.43778 30.28 9.95674 30.28H31.4808C31.9998 30.28 32.4975 30.0874 32.8645 29.7446C33.2314 29.4018 33.4376 28.9368 33.4376 28.452V12.914C33.4376 12.6716 33.3345 12.4391 33.151 12.2677C32.9675 12.0963 32.7187 12 32.4592 12ZM17.1367 21.14L9.95674 27.2878V14.9922L17.1367 21.14ZM18.5847 22.3796L20.0523 23.6421C20.2328 23.7969 20.4689 23.8828 20.7139 23.8828C20.9589 23.8828 21.195 23.7969 21.3755 23.6421L22.8431 22.3796L29.9362 28.452H11.494L18.5847 22.3796ZM24.3008 21.14L31.4808 14.9911V27.2889L24.3008 21.14Z" fill="#2D3D4D"/>
</svg>
