<svg width="258" height="258" viewBox="0 0 258 258" fill="none" xmlns="http://www.w3.org/2000/svg">
<path d="M198.445 177.779L204.908 174.826L214.048 191.188L197.329 199.717L198.445 177.779Z" fill="#9C9C9A" stroke="#9C9C9A"/>
<path d="M199.335 140.969L205.699 137.81L214.367 154.585L197.892 163.675L199.335 140.969Z" fill="#9C9C9A" stroke="#9C9C9A"/>
<path d="M80.8756 212.006L80.4345 168.463L149.116 135.34L184.92 252.807L195.786 246.875L200.951 111.229C248.364 89.7813 256.397 66.1814 254.486 57.0624C237.524 39.7805 196.896 62.4265 178.702 75.9097L61.8764 9.00063L50.1457 16.256L132.11 107.603L69.1315 150.498L34.0069 126.786L22.2761 134.041L49.5636 163.964C44.8413 169.34 44.3401 174.654 44.6798 176.639C48.63 178.918 54.317 178.656 56.6667 178.24L70.977 218.192L80.8756 212.006Z" fill="#005D81"/>
<path d="M45.1288 176.001C49.079 178.281 54.766 178.019 57.1157 177.602L80.8835 167.825L149.565 134.702L201.4 110.592C246.054 90.3924 255.777 68.2841 255.162 58.1613C255.092 57.0166 254.52 55.9675 253.646 55.2255C235.994 40.248 196.898 62.1197 179.151 75.2724L132.559 106.966L69.5805 149.86L50.0126 163.327C45.2902 168.703 44.7891 174.016 45.1288 176.001Z" fill="#F1F1EF" stroke="#F1F1EF"/>
<rect x="91.7554" y="137.954" width="4" height="7" rx="1" transform="rotate(56.8015 91.7554 137.954)" fill="#9C9C9A"/>
<rect x="99.2864" y="133.026" width="4" height="7" rx="1" transform="rotate(56.8015 99.2864 133.026)" fill="#9C9C9A"/>
<rect x="106.817" y="128.098" width="4" height="7" rx="1" transform="rotate(56.8015 106.817 128.098)" fill="#9C9C9A"/>
<rect x="114.348" y="123.171" width="4" height="7" rx="1" transform="rotate(56.8015 114.348 123.171)" fill="#9C9C9A"/>
<rect x="121.879" y="118.243" width="4" height="7" rx="1" transform="rotate(56.8015 121.879 118.243)" fill="#9C9C9A"/>
<rect x="129.41" y="113.315" width="4" height="7" rx="1" transform="rotate(56.8015 129.41 113.315)" fill="#9C9C9A"/>
<rect x="136.941" y="108.387" width="4" height="7" rx="1" transform="rotate(56.8015 136.941 108.387)" fill="#9C9C9A"/>
<rect x="144.472" y="103.459" width="4" height="7" rx="1" transform="rotate(56.8015 144.472 103.459)" fill="#9C9C9A"/>
<rect x="152.003" y="98.5311" width="4" height="7" rx="1" transform="rotate(56.8015 152.003 98.5311)" fill="#9C9C9A"/>
<rect x="159.534" y="93.6033" width="4" height="7" rx="1" transform="rotate(56.8015 159.534 93.6033)" fill="#9C9C9A"/>
<rect x="167.065" y="88.6754" width="4" height="7" rx="1" transform="rotate(56.8015 167.065 88.6754)" fill="#9C9C9A"/>
<rect x="174.596" y="83.7475" width="4" height="7" rx="1" transform="rotate(56.8015 174.596 83.7475)" fill="#9C9C9A"/>
<rect x="174.596" y="83.7475" width="4" height="7" rx="1" transform="rotate(56.8015 174.596 83.7475)" fill="#9C9C9A"/>
<rect x="182.127" y="78.8196" width="4" height="7" rx="1" transform="rotate(56.8015 182.127 78.8196)" fill="#9C9C9A"/>
<rect x="189.658" y="73.8918" width="4" height="7" rx="1" transform="rotate(56.8015 189.658 73.8918)" fill="#9C9C9A"/>
<rect x="197.189" y="68.9639" width="4" height="7" rx="1" transform="rotate(56.8015 197.189 68.9639)" fill="#9C9C9A"/>
<rect x="204.72" y="64.036" width="4" height="7" rx="1" transform="rotate(56.8015 204.72 64.036)" fill="#9C9C9A"/>
<rect x="99.8557" y="150.36" width="4" height="7" rx="1" transform="rotate(63.795 99.8557 150.36)" fill="#9C9C9A"/>
<rect x="107.931" y="146.386" width="4" height="7" rx="1" transform="rotate(63.795 107.931 146.386)" fill="#9C9C9A"/>
<rect x="116.006" y="142.412" width="4" height="7" rx="1" transform="rotate(63.795 116.006 142.412)" fill="#9C9C9A"/>
<rect x="124.081" y="138.438" width="4" height="7" rx="1" transform="rotate(63.795 124.081 138.438)" fill="#9C9C9A"/>
<rect x="132.156" y="134.463" width="4" height="7" rx="1" transform="rotate(63.795 132.156 134.463)" fill="#9C9C9A"/>
<rect x="140.231" y="130.489" width="4" height="7" rx="1" transform="rotate(63.795 140.231 130.489)" fill="#9C9C9A"/>
<rect x="148.306" y="126.515" width="4" height="7" rx="1" transform="rotate(63.795 148.306 126.515)" fill="#9C9C9A"/>
<rect x="156.381" y="122.541" width="4" height="7" rx="1" transform="rotate(63.795 156.381 122.541)" fill="#9C9C9A"/>
<rect x="164.456" y="118.566" width="4" height="7" rx="1" transform="rotate(63.795 164.456 118.566)" fill="#9C9C9A"/>
<rect x="172.531" y="114.592" width="4" height="7" rx="1" transform="rotate(63.795 172.531 114.592)" fill="#9C9C9A"/>
<rect x="180.606" y="110.618" width="4" height="7" rx="1" transform="rotate(63.795 180.606 110.618)" fill="#9C9C9A"/>
<rect x="188.681" y="106.644" width="4" height="7" rx="1" transform="rotate(63.795 188.681 106.644)" fill="#9C9C9A"/>
<rect x="188.681" y="106.644" width="4" height="7" rx="1" transform="rotate(63.795 188.681 106.644)" fill="#9C9C9A"/>
<rect x="196.755" y="102.669" width="4" height="7" rx="1" transform="rotate(63.795 196.755 102.669)" fill="#9C9C9A"/>
<rect x="204.831" y="98.6951" width="4" height="7" rx="1" transform="rotate(63.795 204.831 98.6951)" fill="#9C9C9A"/>
<rect x="212.906" y="94.7209" width="4" height="7" rx="1" transform="rotate(63.795 212.906 94.7209)" fill="#9C9C9A"/>
<rect x="220.98" y="90.7466" width="4" height="7" rx="1" transform="rotate(63.795 220.98 90.7466)" fill="#9C9C9A"/>
<path d="M220.817 55.3435C223.361 53.5311 228.103 54.5023 230.156 55.2145L226.721 58.4472C225.377 57.2666 222.225 55.8862 220.817 55.3435Z" fill="#9C9C9A"/>
<path d="M228.758 60.5337L232.803 56.9445C235.797 58.1451 237.41 60.3962 237.843 61.3717L232.347 64.5794C231.206 62.6251 229.479 61.068 228.758 60.5337Z" fill="#9C9C9A"/>
<path d="M236.038 70.203L242.018 67.1225C243.831 69.667 243.453 72.1527 243.037 73.0774L237.795 75.318C237.917 73.282 236.674 71.0597 236.038 70.203Z" fill="#9C9C9A"/>
<path d="M238.408 84.785C241.441 82.6874 242.572 78.1249 242.758 76.1059L238.61 78.1172C239.669 78.8092 238.916 82.8507 238.408 84.785Z" fill="#9C9C9A"/>
<path d="M48.0131 173.793L253.417 57.195M230.156 55.2145C228.103 54.5023 223.361 53.5311 220.817 55.3435C222.225 55.8862 225.377 57.2666 226.721 58.4472L230.156 55.2145ZM232.803 56.9445L228.758 60.5337C229.479 61.068 231.206 62.6251 232.347 64.5794L237.843 61.3717C237.41 60.3962 235.797 58.1451 232.803 56.9445ZM242.018 67.1225L236.038 70.203C236.675 71.0597 237.917 73.282 237.795 75.318L243.037 73.0774C243.453 72.1527 243.831 69.667 242.018 67.1225ZM242.758 76.1059C242.572 78.1249 241.441 82.6874 238.408 84.785C238.916 82.8507 239.669 78.8092 238.61 78.1172L242.758 76.1059Z" stroke="#9C9C9A"/>
<rect x="205.084" y="174.158" width="5" height="19.75" transform="rotate(-26.7022 205.084 174.158)" fill="#51514F"/>
<rect x="205.922" y="137.154" width="5" height="19.85" transform="rotate(-26.7022 205.922 137.154)" fill="#51514F"/>
<path d="M154.013 61.6628L159.764 57.488L150.014 41.4822L135.586 51.1303L154.013 61.6628Z" fill="#9C9C9A" stroke="#9C9C9A"/>
<path d="M121.323 43.1556L127.074 38.9808L117.323 22.975L102.896 32.6231L121.323 43.1556Z" fill="#9C9C9A" stroke="#9C9C9A"/>
<rect x="149.717" y="41.0381" width="5" height="19.85" transform="rotate(-32.0841 149.717 41.0381)" fill="#51514F"/>
<rect x="117.515" y="22.2866" width="5" height="19.85" transform="rotate(-31.0843 117.515 22.2866)" fill="#51514F"/>
</svg>
