<svg width="27" height="27" viewBox="0 0 27 27" fill="none" xmlns="http://www.w3.org/2000/svg">
<circle cx="13.5" cy="13.5" r="13.5" fill="white"/>
<rect x="3.89844" y="5.16357" width="1.5" height="11.5" rx="0.75" fill="#2D3D4D"/>
<path d="M3 11.1636C3 10.6113 3.44772 10.1636 4 10.1636H6V16.6636H4C3.44772 16.6636 3 16.2159 3 15.6636V11.1636Z" fill="#2D3D4D"/>
<path d="M21.1016 5.91357C21.1016 5.49936 21.4373 5.16357 21.8516 5.16357V5.16357C22.2658 5.16357 22.6016 5.49936 22.6016 5.91357V15.1636C22.6016 15.992 21.93 16.6636 21.1016 16.6636V16.6636V5.91357Z" fill="#2D3D4D"/>
<path d="M23.8984 15.6636C23.8984 16.2159 23.4507 16.6636 22.8984 16.6636H20.8984V10.1636H22.8984C23.4507 10.1636 23.8984 10.6113 23.8984 11.1636V15.6636Z" fill="#2D3D4D"/>
<path d="M8.3203 18.1641C6.74429 17.8439 5.33334 17.0625 5.3203 14.6641C5.29794 13.5153 5.33196 12.8555 5.3203 11.6641C5.41078 10.9314 5.38509 10.267 6.3203 8.66414C6.90691 7.87396 7.29752 7.4341 8.3203 6.66414C9.391 5.96535 10.0194 5.60596 11.3203 5.16414C12.6859 4.93254 13.9323 4.95841 15.3203 5.16414C16.5275 5.51396 17.2221 5.8186 18.3203 6.66414C19.209 7.30858 19.6383 7.75801 20.3203 8.66414C20.9969 9.80899 21.1341 10.4658 21.3203 11.6641V14.6641C21.0569 16.9919 20.4391 17.7048 18.3203 18.1641H8.3203Z" fill="#2D3D4D" stroke="white"/>
<rect x="7.39844" y="9.66357" width="12" height="6" rx="3" stroke="white"/>
<rect x="15.1953" y="11.6636" width="1" height="2" rx="0.5" fill="white"/>
<rect x="10.1953" y="11.6636" width="1" height="2" rx="0.5" fill="white"/>
<rect x="13" y="20.5" width="4" height="2.5" rx="1.25" fill="#2D3D4D"/>
<path d="M20 21C21.3204 20.8074 21.9609 20.4152 22.5 19V17.5L24 17V19C22.9864 21.3026 22.2079 22.1733 20 22.5H18.5V21H20Z" fill="#2D3D4D" stroke="#2D3D4D" stroke-width="0.2"/>
</svg>
