<svg width="58" height="51" viewBox="0 0 58 51" fill="none" xmlns="http://www.w3.org/2000/svg">
<rect x="0.75" y="5.98047" width="56.0385" height="44.2692" rx="4.25" stroke="#2D3D4D" stroke-width="1.5"/>
<rect x="9.90332" y="0.75" width="3.73077" height="11.5769" rx="1.86538" fill="#D9D9D9" stroke="#2D3D4D" stroke-width="1.5"/>
<rect x="26.9038" y="0.75" width="3.73077" height="11.5769" rx="1.86538" fill="#D9D9D9" stroke="#2D3D4D" stroke-width="1.5"/>
<rect x="43.9043" y="0.75" width="3.73077" height="11.5769" rx="1.86538" fill="#D9D9D9" stroke="#2D3D4D" stroke-width="1.5"/>
<line x1="56.2305" y1="17.7498" x2="1.30739" y2="17.7498" stroke="#2D3D4D" stroke-width="1.5"/>
<mask id="mask0_11_84" style="mask-type:alpha" maskUnits="userSpaceOnUse" x="6" y="24" width="40" height="27">
<rect width="39.2308" height="26.1539" transform="matrix(1 0 0 -1 6.53809 51)" fill="#D9D9D9"/>
</mask>
<g mask="url(#mask0_11_84)">
</g>
<path d="M28.9333 30.0768C27.2456 30.0768 25.7679 30.8026 24.8468 32.0294C23.9257 30.8026 22.448 30.0768 20.7603 30.0768C19.4168 30.0783 18.1288 30.6127 17.1788 31.5627C16.2288 32.5126 15.6945 33.8007 15.6929 35.1441C15.6929 40.8653 24.1758 45.4961 24.537 45.6874C24.6322 45.7386 24.7387 45.7654 24.8468 45.7654C24.9549 45.7654 25.0613 45.7386 25.1565 45.6874C25.5178 45.4961 34.0006 40.8653 34.0006 35.1441C33.9991 33.8007 33.4647 32.5126 32.5148 31.5627C31.5648 30.6127 30.2768 30.0783 28.9333 30.0768ZM24.8468 44.3634C23.3544 43.4937 17.0006 39.5322 17.0006 35.1441C17.0019 34.1474 17.3985 33.1919 18.1032 32.4871C18.808 31.7823 19.7635 31.3858 20.7603 31.3845C22.3499 31.3845 23.6846 32.2312 24.242 33.5912C24.2912 33.7112 24.375 33.8137 24.4827 33.8859C24.5904 33.9581 24.7171 33.9966 24.8468 33.9966C24.9764 33.9966 25.1032 33.9581 25.2108 33.8859C25.3185 33.8137 25.4023 33.7112 25.4516 33.5912C26.009 32.2288 27.3437 31.3845 28.9333 31.3845C29.93 31.3858 30.8856 31.7823 31.5903 32.4871C32.2951 33.1919 32.6916 34.1474 32.6929 35.1441C32.6929 39.5257 26.3376 43.4929 24.8468 44.3634Z" fill="#2D3D4D"/>
<path d="M38.5481 24.6154C36.8603 24.6154 35.3826 25.3412 34.4615 26.5679C33.5404 25.3412 32.0627 24.6154 30.375 24.6154C29.0315 24.6169 27.7435 25.1513 26.7935 26.1012C25.8436 27.0512 25.3092 28.3392 25.3077 29.6827C25.3077 35.4039 33.7905 40.0347 34.1518 40.226C34.247 40.2772 34.3534 40.304 34.4615 40.304C34.5696 40.304 34.6761 40.2772 34.7713 40.226C35.1325 40.0347 43.6154 35.4039 43.6154 29.6827C43.6139 28.3392 43.0795 27.0512 42.1295 26.1012C41.1795 25.1513 39.8915 24.6169 38.5481 24.6154ZM34.4615 38.9019C32.9691 38.0323 26.6154 34.0708 26.6154 29.6827C26.6167 28.686 27.0132 27.7305 27.718 27.0257C28.4228 26.3209 29.3783 25.9244 30.375 25.9231C31.9647 25.9231 33.2993 26.7698 33.8567 28.1298C33.906 28.2497 33.9898 28.3523 34.0975 28.4245C34.2052 28.4967 34.3319 28.5352 34.4615 28.5352C34.5912 28.5352 34.7179 28.4967 34.8256 28.4245C34.9333 28.3523 35.0171 28.2497 35.0663 28.1298C35.6237 26.7674 36.9584 25.9231 38.5481 25.9231C39.5448 25.9244 40.5003 26.3209 41.2051 27.0257C41.9099 27.7305 42.3064 28.686 42.3077 29.6827C42.3077 34.0643 35.9523 38.0315 34.4615 38.9019Z" fill="#2D3D4D"/>
</svg>
