<svg width="44" height="68" viewBox="0 0 44 68" fill="none" xmlns="http://www.w3.org/2000/svg">
<path id="Vector 27" d="M31 25.1779V30.4279H25M31 25.1779V19.9279H25M31 25.1779H14.5M19 30.4279H4.5L1 25.4279L4.5 19.9279H19M19 30.4279V37.4279M19 30.4279H25M19 37.4279H14V42.9279M19 37.4279H25M25 37.4279H39.5L43 43.4279L39.5 48.4279H25M25 37.4279V30.4279M14 42.9279V48.4279H19M14 42.9279H30M25 48.4279V57.4279M25 48.4279H19M25 57.4279H19M25 57.4279C28.0903 57.956 29.2669 58.6677 30 60.9279V66.4279M19 57.4279V48.4279M19 57.4279C15.8037 57.7132 14.626 58.4087 14 60.9279V66.4279M40.5 66.4279H30M3.5 66.4279H14M14 66.4279H30M25 19.9279V11.4279C25.9763 10.2564 27.0093 9.87189 27.5 8.42794C27.9398 7.13378 27.9088 6.23219 27.5 4.92792C26.9616 3.21009 26.1592 2.12653 24.5 1.42794C23.0603 0.821754 21.968 0.894101 20.5 1.42794C18.6834 2.08852 17.6113 3.09414 17 4.92794C16.5678 6.22463 16.6098 7.11798 17 8.42794C17.402 9.7774 19 11.4279 19 11.4279V19.9279M25 19.9279H19" stroke="#2D3D4D" stroke-width="1.5"/>
</svg>
