<svg width="58" height="47" viewBox="0 0 58 47" fill="none" xmlns="http://www.w3.org/2000/svg">
<g id="Group 1000001079">
<path id="Vector 30" d="M8.85294 20.8941V29.7941M8.85294 20.8941V14.6118M8.85294 20.8941H25.0824M8.85294 29.7941H1M8.85294 29.7941H57.0176M1 29.7941V1H6.23529C8.11711 1.7163 8.61717 2.73133 8.85294 5.71176V14.6118M1 29.7941V45.5H6.23529L10.4235 36.6H48.1176L51.2588 45.5H57.0176V29.7941M57.0176 29.7941V26.1294C55.9496 22.8978 54.6119 21.8287 51.2588 20.8941H25.0824M8.85294 14.6118C10.1613 13.3178 10.99 12.672 13.0412 11.9941C16.1022 11.7504 17.8216 11.7426 20.8941 11.9941C23.0451 12.3235 23.8799 13.0108 25.0824 14.6118C25.669 17.0656 25.6565 18.4401 25.0824 20.8941" stroke="#2D3D4D" stroke-width="1.5"/>
</g>
</svg>
