<svg width="56" height="52" viewBox="0 0 56 52" fill="none" xmlns="http://www.w3.org/2000/svg">
<g id="Group 1000001080">
<path id="Vector 31" d="M37.8108 13.1622H27M52 9.10811C50.9865 8.43243 48.6216 7.75676 48.6216 7.75676H32.7432H16.8649L9.43243 1H2L8.08108 13.1622L22.2703 19.2432H49.2973C49.2973 19.2432 53.9267 17.7112 54.7027 15.1892C55.0907 13.9282 55.3007 12.9869 54.7027 11.8108C54.0559 10.5387 52 9.10811 52 9.10811ZM52 9.10811L47.9459 11.8108M12.8108 22.6216H2.67568M20.2432 27.3514H8.75676M11.4595 42.2162C11.4595 42.2162 7.88687 41.1689 6.05405 42.2162C4.40198 43.1603 3.48227 44.372 3.35135 46.2703C3.20498 48.3926 6.05405 51 6.05405 51H30.3784C30.3784 51 33.291 48.3873 33.0811 46.2703C32.8778 44.2195 31.5641 43.1008 29.7027 42.2162C27.7961 41.3101 24.2973 42.2162 24.2973 42.2162C24.2973 42.2162 24.5378 39.48 23.6216 38.1622C22.7433 36.8989 21.7152 36.5831 20.2432 36.1351C18.4762 35.5973 17.5405 35.4595 15.5135 36.1351C14.2619 36.5523 13.6208 37.1207 12.8108 38.1622C11.7862 39.4795 11.4595 42.2162 11.4595 42.2162Z" stroke="#2D3D4D" stroke-width="1.5"/>
<path id="Vector 33" d="M24.9731 35.6202C24.9731 35.6202 25.3865 32.1588 26.6823 30.4927C27.7068 29.1755 28.5176 28.4566 30.1007 27.9289C32.6645 27.0743 33.8479 27.2487 36.0828 27.9289C37.9445 28.4955 39.2449 28.8949 40.3558 30.4927C41.5146 32.1595 41.2104 35.6202 41.2104 35.6202C41.2104 35.6202 45.6356 34.4742 48.0471 35.6202C50.4013 36.7391 52.0629 38.1539 52.32 40.7477C52.5855 43.4253 48.9017 46.7299 48.9017 46.7299H35.1083" stroke="#2D3D4D" stroke-width="1.5"/>
</g>
</svg>
