<svg width="50" height="54" viewBox="0 0 50 54" fill="none" xmlns="http://www.w3.org/2000/svg">
<g id="Group 1000001081">
<path id="Vector 29" d="M8.5 49V41.5H41.5V49" stroke="#2D3D4D" stroke-width="1.5"/>
<path id="Vector 28" d="M30.5 9.5L32 5L25 1L18 5L20.5 9.5M30.5 9.5H20.5M30.5 9.5C30.5 9.5 31.6761 11.5486 32 13C32.3827 14.7152 32.6654 15.8735 32 17.5C31.723 18.1771 31.3982 18.7662 31.0042 19.2613M20.5 9.5C20.5 9.5 19.3239 11.5486 19 13C18.6173 14.7152 18.3346 15.8735 19 17.5C19.2778 18.1791 19.6041 18.7674 20 19.2613M20 19.2613C20.7242 20.1646 21.6811 20.7519 23 21C24.7472 21.3287 26.1696 21.3281 28 21C29.323 20.7629 30.2803 20.1708 31.0042 19.2613M20 19.2613L12 22.5C11.4571 22.6981 11.153 22.9248 11 23.5V33M31.0042 19.2613L39 22.5C39.6596 22.7343 39.8878 22.9478 40 23.5V33M18 27V32.5M32.5 27V32.5" stroke="#2D3D4D" stroke-width="1.5"/>
<rect id="Rectangle 57" x="0.75" y="36.25" width="48.5" height="16.5" stroke="#2D3D4D" stroke-width="1.5"/>
</g>
</svg>
