<svg width="26" height="24" viewBox="0 0 26 24" fill="none" xmlns="http://www.w3.org/2000/svg">
<path d="M18.2986 10.0852C18.7778 9.96279 19.0462 9.85557 19.5259 9.57864C20.1123 9.10638 20.3786 8.82257 20.8701 8.58508L21.1039 8.4877C21.4822 8.37307 21.6897 8.40212 22.0584 8.4877C22.3161 8.58896 22.4539 8.65869 22.6818 8.81888H23.8896C24.7448 9.21029 24.8946 9.67102 25.0001 10.6111C24.6857 10.3767 24.4966 10.3032 24.1234 10.4163C23.1338 10.8485 22.8699 11.1827 22.4091 11.8385C22.2899 12.8879 22.2979 13.4623 22.4091 14.4684C22.3958 14.8104 22.2878 14.9661 22 15.2087" stroke="#2D3D4D" stroke-width="0.3"/>
<path d="M24.1452 9.8288C24.4288 9.9461 24.5874 10.0195 24.866 10.1989L24.9244 10.4522L24.7101 10.3353C24.5125 10.1642 24.3807 10.1064 24.1452 10.0041C23.856 9.91276 23.6946 9.90562 23.4049 9.96517C23.0049 10.091 22.7904 10.1879 22.4309 10.4327C22.3776 10.458 22.3478 10.4718 22.2945 10.4327C22.2602 10.3878 22.2501 10.3604 22.2945 10.2963C22.713 10.0521 22.9583 9.94732 23.4049 9.78984C23.6943 9.75429 23.8562 9.74866 24.1452 9.8288Z" fill="#2D3D4D" stroke="#2D3D4D" stroke-width="0.1"/>
<path d="M21.5543 15.8302L14.3463 5.85586L14.3461 5.85976C14.3396 5.97232 14.336 6.03662 14.4243 6.18703L20.814 16.2003C20.9414 16.526 20.9506 16.7204 20.814 17.0964C20.6379 17.4139 20.4831 17.5649 20.1712 17.8172C20.4723 17.7832 20.6401 17.7554 20.9309 17.6419C21.244 17.4263 21.4074 17.2978 21.5543 16.9795C21.7139 16.6151 21.7284 16.3892 21.5543 15.8302Z" fill="#2D3D4D"/>
<path d="M20.1712 15.986L13.9372 5.81689C13.8664 5.8819 13.8638 5.93619 13.8983 6.05067L19.0802 15.4795C19.1548 15.696 19.1753 15.8035 19.0802 15.9081C18.965 15.9595 18.8959 15.9532 18.7685 15.9081L17.6971 13.921C17.4364 13.4464 17.2812 13.334 16.9958 13.2781H13.7619C13.6784 13.276 13.6326 13.2678 13.5671 13.1613C13.5338 13.0322 13.557 12.9669 13.6645 12.869C14.075 12.3948 14.2806 12.1064 14.4243 11.2716C14.5132 10.1228 14.5742 9.45584 14.21 8.27151C13.8513 7.20767 13.5528 6.6743 12.7684 5.81689C13.1002 9.84809 12.3575 11.5397 9.61244 13.6872C9.26493 13.8207 9.06811 13.8335 8.71631 13.8236C8.65972 13.8769 8.65055 13.9067 8.71631 13.96L16.6646 13.921C16.7757 13.9332 16.9041 13.9732 16.9958 14.1938L17.9114 15.8302C18.0594 16.0576 18.0633 16.1419 17.9114 16.2003H13.2944C13.2607 16.1854 13.2453 16.1746 13.2359 16.1419L13.1969 15.3042H12.3593V16.1419C12.3436 16.3188 12.2822 16.3671 12.1255 16.3951C11.9411 16.3692 11.9023 16.2966 11.8917 16.0834V14.8171C11.8426 14.5884 11.7932 14.4795 11.5021 14.4665H9.02801C8.68753 14.4617 8.58467 14.6737 8.50202 15.3042L8.44358 15.9665H9.67088C9.79632 16.0651 9.76195 16.1144 9.67088 16.2003H7.56693C7.21188 16.021 7.11819 15.8758 7.27471 15.4795L11.9891 6.47925L11.9112 6.08963L6.22274 15.947C6.12111 16.2074 6.11647 16.3495 6.22274 16.5899C6.39937 16.8469 6.52634 16.9473 6.84613 16.9795H10.4891C10.7369 16.8967 10.8395 16.8035 10.8787 16.4536V15.5574C10.825 15.4085 10.7791 15.3391 10.606 15.3042H9.67088C9.5998 15.2836 9.5629 15.2675 9.554 15.1483C9.54642 15.0137 9.58023 14.9728 9.67088 14.9535H10.8008C11.1484 15.0478 11.2448 15.1792 11.3268 15.4795V16.3562C11.3182 16.6127 11.2602 16.7191 11.0346 16.8432C10.9202 16.9678 10.9745 16.9894 11.1904 16.9795H20.0348C20.2867 16.9179 20.3866 16.8423 20.3855 16.5315C20.3582 16.3161 20.302 16.1964 20.1712 15.986Z" fill="#2D3D4D"/>
<path d="M21.5543 15.8302L14.3463 5.85586L14.3461 5.85976C14.3396 5.97232 14.336 6.03662 14.4243 6.18703L20.814 16.2003C20.9414 16.526 20.9506 16.7204 20.814 17.0964C20.6379 17.4139 20.4831 17.5649 20.1712 17.8172C20.4723 17.7832 20.6401 17.7554 20.9309 17.6419C21.244 17.4263 21.4074 17.2978 21.5543 16.9795C21.7139 16.6151 21.7284 16.3892 21.5543 15.8302Z" stroke="#2D3D4D" stroke-width="0.1"/>
<path d="M20.1712 15.986L13.9372 5.81689C13.8664 5.8819 13.8638 5.93619 13.8983 6.05067L19.0802 15.4795C19.1548 15.696 19.1753 15.8035 19.0802 15.9081C18.965 15.9595 18.8959 15.9532 18.7685 15.9081L17.6971 13.921C17.4364 13.4464 17.2812 13.334 16.9958 13.2781H13.7619C13.6784 13.276 13.6326 13.2678 13.5671 13.1613C13.5338 13.0322 13.557 12.9669 13.6645 12.869C14.075 12.3948 14.2806 12.1064 14.4243 11.2716C14.5132 10.1228 14.5742 9.45584 14.21 8.27151C13.8513 7.20767 13.5528 6.6743 12.7684 5.81689C13.1002 9.84809 12.3575 11.5397 9.61244 13.6872C9.26493 13.8207 9.06811 13.8335 8.71631 13.8236C8.65972 13.8769 8.65055 13.9067 8.71631 13.96L16.6646 13.921C16.7757 13.9332 16.9041 13.9732 16.9958 14.1938L17.9114 15.8302C18.0594 16.0576 18.0633 16.1419 17.9114 16.2003H13.2944C13.2607 16.1854 13.2453 16.1746 13.2359 16.1419L13.1969 15.3042H12.3593V16.1419C12.3436 16.3188 12.2822 16.3671 12.1255 16.3951C11.9411 16.3692 11.9023 16.2966 11.8917 16.0834V14.8171C11.8426 14.5884 11.7932 14.4795 11.5021 14.4665H9.02801C8.68753 14.4617 8.58467 14.6737 8.50202 15.3042L8.44358 15.9665H9.67088C9.79632 16.0651 9.76195 16.1144 9.67088 16.2003H7.56693C7.21188 16.021 7.11819 15.8758 7.27471 15.4795L11.9891 6.47925L11.9112 6.08963L6.22274 15.947C6.12111 16.2074 6.11647 16.3495 6.22274 16.5899C6.39937 16.8469 6.52634 16.9473 6.84613 16.9795H10.4891C10.7369 16.8967 10.8395 16.8035 10.8787 16.4536V15.5574C10.825 15.4085 10.7791 15.3391 10.606 15.3042H9.67088C9.5998 15.2836 9.5629 15.2675 9.554 15.1483C9.54642 15.0137 9.58023 14.9728 9.67088 14.9535H10.8008C11.1484 15.0478 11.2448 15.1792 11.3268 15.4795V16.3562C11.3182 16.6127 11.2602 16.7191 11.0346 16.8432C10.9202 16.9678 10.9745 16.9894 11.1904 16.9795H20.0348C20.2867 16.9179 20.3866 16.8423 20.3855 16.5315C20.3582 16.3161 20.302 16.1964 20.1712 15.986Z" stroke="#2D3D4D" stroke-width="0.1"/>
<ellipse cx="12.3662" cy="14.6426" rx="0.370139" ry="0.370139" fill="#2D3D4D"/>
<ellipse cx="8.42702" cy="17.76" rx="0.370139" ry="0.370139" fill="#2D3D4D"/>
<ellipse cx="9.32351" cy="17.76" rx="0.370139" ry="0.370139" fill="#2D3D4D"/>
<ellipse cx="10.8856" cy="17.76" rx="0.370139" ry="0.370139" fill="#2D3D4D"/>
<ellipse cx="13.2627" cy="14.6426" rx="0.370139" ry="0.370139" fill="#2D3D4D"/>
<path d="M5.63226 17.0671C5.46303 16.607 5.61319 15.7415 5.75784 15.3087C6.0501 14.8118 11.382 6.08387 11.7325 5.66131C12.1221 5.31962 12.3707 5.17859 12.8895 5.0403C13.2119 4.98159 13.3972 4.99178 13.7309 5.0403C14.2201 5.17765 14.4635 5.32554 14.8668 5.66131C15.3247 6.08558 15.5191 6.35191 15.8345 6.84122L22.082 15.4318C22.3532 15.9964 22.4456 16.3471 22.3554 17.0671C22.2449 17.6058 22.0928 17.8383 21.7875 18.2263C21.3351 18.6253 21.0424 18.7785 20.4412 18.9095H8.05134C7.31516 18.8316 6.9208 18.724 6.30539 18.2263C5.88095 17.7972 5.7541 17.5404 5.63226 17.0671Z" stroke="#2D3D4D" stroke-width="0.5"/>
<path d="M1 6.98718H10.8574L10.5229 7.53265H1.35416L1 6.98718Z" stroke="#2D3D4D" stroke-width="0.3"/>
<path d="M1.78101 8.11462H10.1578L9.8736 8.66009H2.08197L1.78101 8.11462Z" stroke="#2D3D4D" stroke-width="0.3"/>
<path d="M2.71826 9.32349H9.40026L9.07943 9.86895H2.95483L2.71826 9.32349Z" stroke="#2D3D4D" stroke-width="0.3"/>
<path d="M3.53333 10.4565H8.75425L8.40359 11.002H3.71817L3.53333 10.4565Z" stroke="#2D3D4D" stroke-width="0.3"/>
<path d="M2.47852 12.9491H7.2319L6.88124 13.4946H2.64681L2.47852 12.9491Z" stroke="#2D3D4D" stroke-width="0.3"/>
<path d="M4.42981 11.5846H8.05328L7.70262 12.1301H4.5581L4.42981 11.5846Z" stroke="#2D3D4D" stroke-width="0.3"/>
<path d="M3.1394 14.1173H6.49014L6.16588 14.6628H3.25804L3.1394 14.1173Z" stroke="#2D3D4D" stroke-width="0.3"/>
<path d="M3.95911 15.2108H5.79033L5.61311 15.7563H4.02394L3.95911 15.2108Z" stroke="#2D3D4D" stroke-width="0.3"/>
<path d="M15.9078 6.87061H18.4014C18.6964 6.8928 18.8143 6.97016 18.9274 7.24074C18.9833 7.48905 18.9686 7.61289 18.8495 7.80569L17.6611 9.26673" stroke="#2D3D4D" stroke-width="0.3"/>
<path d="M16.3879 7.61084H17.6617C17.8124 7.62167 17.8726 7.6594 17.9304 7.7914C17.959 7.91252 17.9514 7.97294 17.8906 8.06699L17.2836 8.7797" stroke="#2D3D4D" stroke-width="0.3"/>
<path d="M22.2299 9.19857L22.4637 9.31546L22.5416 9.25701C22.5934 9.22806 22.6268 9.22419 22.6974 9.25701C22.7642 9.31897 22.7627 9.36438 22.7364 9.45183L22.3273 10.0168C22.2739 10.07 22.2412 10.0832 22.1715 10.0557C22.1196 10.002 22.1117 9.96852 22.152 9.89989L22.3858 9.58819C22.3909 9.49182 22.3668 9.47238 22.2689 9.51027C22.1766 9.67172 22.1124 9.75902 21.9377 9.89989C21.845 9.91505 21.766 9.91429 21.587 9.89989C21.5459 9.8138 21.5013 9.77636 21.3533 9.74404H21.0416C20.9831 9.69283 20.9584 9.66278 21.0416 9.58819C21.3053 9.413 21.4542 9.31555 21.8013 9.19857C21.9685 9.15598 22.0623 9.15761 22.2299 9.19857Z" fill="#2D3D4D" stroke="#2D3D4D" stroke-width="0.2"/>
</svg>
