<svg width="41" height="41" viewBox="0 0 41 41" fill="none" xmlns="http://www.w3.org/2000/svg">
<rect width="41" height="41" rx="20.5" fill="#D9D9D9"/>
<path d="M29.051 11.6502H25.1868C24.7078 11.1311 24.1209 10.7158 23.4645 10.4314C22.8081 10.147 22.0971 10 21.378 10C20.6589 10 19.9479 10.147 19.2916 10.4314C18.6352 10.7158 18.0483 11.1311 17.5693 11.6502H13.7051C13.2529 11.6502 12.8192 11.8241 12.4994 12.1336C12.1796 12.4431 12 12.8629 12 13.3006V30.6296C12 31.0673 12.1796 31.4871 12.4994 31.7966C12.8192 32.1061 13.2529 32.28 13.7051 32.28H29.051C29.5032 32.28 29.9369 32.1061 30.2566 31.7966C30.5764 31.4871 30.7561 31.0673 30.7561 30.6296V13.3006C30.7561 12.8629 30.5764 12.4431 30.2566 12.1336C29.9369 11.8241 29.5032 11.6502 29.051 11.6502ZM21.378 11.6502C22.2825 11.6502 23.1499 11.998 23.7894 12.617C24.4289 13.236 24.7882 14.0756 24.7882 14.951H17.9678C17.9678 14.0756 18.3271 13.236 18.9667 12.617C19.6062 11.998 20.4736 11.6502 21.378 11.6502ZM24.7882 24.8533H17.9678C17.7417 24.8533 17.5249 24.7663 17.365 24.6116C17.2051 24.4568 17.1153 24.2469 17.1153 24.0281C17.1153 23.8092 17.2051 23.5993 17.365 23.4446C17.5249 23.2898 17.7417 23.2029 17.9678 23.2029H24.7882C25.0143 23.2029 25.2312 23.2898 25.3911 23.4446C25.5509 23.5993 25.6408 23.8092 25.6408 24.0281C25.6408 24.2469 25.5509 24.4568 25.3911 24.6116C25.2312 24.7663 25.0143 24.8533 24.7882 24.8533ZM24.7882 21.5525H17.9678C17.7417 21.5525 17.5249 21.4656 17.365 21.3108C17.2051 21.1561 17.1153 20.9462 17.1153 20.7273C17.1153 20.5085 17.2051 20.2986 17.365 20.1438C17.5249 19.9891 17.7417 19.9021 17.9678 19.9021H24.7882C25.0143 19.9021 25.2312 19.9891 25.3911 20.1438C25.5509 20.2986 25.6408 20.5085 25.6408 20.7273C25.6408 20.9462 25.5509 21.1561 25.3911 21.3108C25.2312 21.4656 25.0143 21.5525 24.7882 21.5525Z" fill="#2D3D4D"/>
</svg>
