<svg width="70" height="70" viewBox="0 0 70 70" fill="none" xmlns="http://www.w3.org/2000/svg">
<g clip-path="url(#clip0_667_3662)">
<path d="M33.3311 -0.0277356C33.4542 -0.0286946 33.5773 -0.0296536 33.7042 -0.0306416C34.0991 -0.0330203 34.494 -0.0339026 34.889 -0.0341443C35.0239 -0.0342365 35.1589 -0.0343288 35.298 -0.0344238C37.2789 -0.0322711 39.2033 0.0283361 41.1524 0.410192C41.2772 0.432926 41.402 0.455661 41.5306 0.479085C46.4628 1.38655 51.1497 3.38434 55.2344 6.2891C55.3217 6.35052 55.409 6.41194 55.499 6.47522C56.9851 7.52767 58.3081 8.70924 59.6094 9.9805C59.7623 10.1279 59.9152 10.2753 60.0682 10.4227C60.9406 11.2714 61.7306 12.1656 62.4805 13.125C62.5852 13.2532 62.6899 13.3813 62.7977 13.5133C66.3298 17.9256 68.5818 23.3131 69.5899 28.8477C69.6123 28.9619 69.6346 29.0762 69.6577 29.1939C70.3813 32.9839 70.3281 37.3705 69.5899 41.1524C69.5679 41.275 69.5459 41.3977 69.5232 41.524C68.5478 46.9147 66.257 52.011 62.8907 56.3282C62.7987 56.4491 62.7067 56.57 62.6119 56.6945C60.9571 58.826 59.0021 60.8238 56.875 62.4805C56.7471 62.585 56.6191 62.6895 56.4873 62.7972C52.0756 66.3299 46.6868 68.5818 41.1524 69.5899C41.0381 69.6123 40.9239 69.6346 40.8062 69.6577C37.0317 70.3783 32.6122 70.3506 28.8477 69.5899C28.7215 69.565 28.5953 69.54 28.4652 69.5144C26.8301 69.1841 25.229 68.7673 23.6524 68.2227C23.5501 68.1878 23.4477 68.1529 23.3423 68.117C21.7851 67.5817 20.32 66.9452 18.8672 66.1719C18.7031 66.0859 18.539 65.9999 18.3748 65.914C17.7275 65.571 17.105 65.2307 16.5088 64.8047C15.922 64.4404 15.4197 64.5325 14.7657 64.668C14.0754 64.8582 13.397 65.0807 12.7175 65.3057C12.5181 65.3707 12.3186 65.4357 12.1191 65.5005C11.5947 65.6713 11.0707 65.8434 10.5468 66.0159C10.0241 66.1878 9.50093 66.3585 8.97781 66.5292C8.3693 66.7279 7.7608 66.9266 7.15244 67.1257C5.99735 67.5037 4.84192 67.8807 3.6845 68.2515C3.56161 68.2912 3.43873 68.3309 3.31212 68.3717C2.49314 68.6329 2.49314 68.6329 2.18754 68.6329C2.49197 67.4439 2.87033 66.2855 3.26687 65.1246C3.33179 64.9334 3.39668 64.7422 3.46152 64.551C3.6314 64.0504 3.80181 63.55 3.97235 63.0496C4.14326 62.5478 4.31375 62.0459 4.48425 61.544C4.51747 61.4463 4.55069 61.3485 4.58492 61.2478C4.74858 60.7662 4.91208 60.2846 5.07526 59.8028C5.13747 59.6192 5.19968 59.4356 5.2619 59.2521C5.29168 59.1642 5.32146 59.0763 5.35214 58.9858C5.52834 58.4668 5.70741 57.9488 5.88875 57.4316C5.92872 57.3161 5.96869 57.2007 6.00988 57.0817C6.0801 56.8791 6.15139 56.6768 6.22407 56.475C6.38233 56.0144 6.48938 55.6915 6.2891 55.2344C6.15686 54.9888 6.15686 54.9888 5.99003 54.7495C5.89838 54.6118 5.89838 54.6118 5.80487 54.4713C5.73908 54.3735 5.67329 54.2756 5.6055 54.1748C2.23413 49.0489 0.00451676 42.8675 -0.0277356 36.6823C-0.0286946 36.559 -0.0296536 36.4357 -0.0306416 36.3086C-0.0330242 35.9123 -0.0339028 35.516 -0.0341443 35.1197C-0.0342365 34.9843 -0.0343288 34.849 -0.0344238 34.7096C-0.0322724 32.7258 0.0291599 30.7998 0.410192 28.8477C0.443203 28.6637 0.443203 28.6637 0.476882 28.4761C1.45209 23.0867 3.74189 17.9871 7.10941 13.6719C7.20299 13.5494 7.29658 13.4269 7.39299 13.3007C8.11322 12.376 8.89902 11.5121 9.70707 10.6641C9.78523 10.582 9.86339 10.4999 9.94392 10.4154C11.0388 9.27393 12.1632 8.22868 13.4344 7.28678C13.6697 7.11107 13.9011 6.9311 14.1323 6.74999C16.4405 4.96741 19.036 3.54745 21.7383 2.46097C21.8563 2.41345 21.9742 2.36594 22.0957 2.31698C25.6546 0.906562 29.4889 -0.0075771 33.3311 -0.0277356Z" fill="#4CAF50"/>
<path d="M21.8836 15.9533C21.9869 15.9525 22.0903 15.9517 22.1968 15.9509C23.0378 15.9617 23.8631 15.9936 24.5374 16.5469C24.9654 17.05 25.1981 17.5553 25.4548 18.1595C25.5069 18.2786 25.5589 18.3978 25.6125 18.5205C25.7813 18.9087 25.9475 19.2979 26.1133 19.6874C26.1696 19.8185 26.2259 19.9495 26.2839 20.0845C26.6329 20.897 26.9765 21.7116 27.316 22.5281C27.4328 22.8082 27.5504 23.088 27.6687 23.3675C27.8428 23.7788 28.0146 24.191 28.186 24.6034C28.239 24.7274 28.2919 24.8515 28.3465 24.9793C28.6668 25.7595 28.9013 26.4522 28.5748 27.278C28.1059 28.0238 27.5848 28.6693 26.9865 29.3154C26.6428 29.6866 26.3063 30.0618 25.9766 30.4455C25.8751 30.5616 25.7736 30.6777 25.669 30.7974C25.3763 31.2554 25.3157 31.5882 25.293 32.1288C26.1444 35.4996 30.1464 39.0947 32.8477 41.1102C33.0748 41.2806 33.2986 41.4545 33.5223 41.6292C35.3895 43.0555 38.1344 44.907 40.5478 44.9029C41.3678 44.7561 41.8383 44.34 42.3487 43.7072C42.4065 43.6362 42.4642 43.5652 42.5238 43.4921C42.9008 43.0223 43.2508 42.5367 43.5943 42.0419C44.9911 40.0308 44.9911 40.0308 46.0315 39.8192C47.8701 40.0157 49.7199 41.2262 51.3513 42.0213C51.8222 42.2488 52.295 42.4718 52.7687 42.6935C52.9227 42.766 53.0766 42.8386 53.2353 42.9133C53.5299 43.0519 53.825 43.1896 54.1205 43.3264C55.5682 44.0114 55.5682 44.0114 56.0547 44.5702C56.1716 44.965 56.1717 45.3314 56.1573 45.7409C56.1537 45.9103 56.1537 45.9103 56.15 46.0832C56.061 48.0226 55.4876 49.9718 54.1407 51.4061C54.0596 51.4932 53.9785 51.5803 53.895 51.67C51.9419 53.548 48.9635 54.6338 46.2928 54.6071C42.541 54.4865 38.7742 52.9757 35.4102 51.4061C35.3135 51.3615 35.2168 51.3168 35.1172 51.2708C32.6998 50.143 30.5063 48.7102 28.4375 47.0311C28.3551 46.9647 28.2726 46.8983 28.1877 46.8298C26.9787 45.8463 25.8677 44.7621 24.7632 43.6644C24.6967 43.5986 24.6302 43.5328 24.5616 43.465C23.7503 42.6606 22.9915 41.8303 22.2774 40.9375C22.0635 40.67 21.8461 40.4089 21.6203 40.1514C20.6932 39.0897 19.8719 37.9735 19.0769 36.8102C18.8652 36.5009 18.6513 36.1931 18.4373 35.8854C17.5466 34.5914 16.7815 33.2858 16.1328 31.8554C16.09 31.764 16.0472 31.6726 16.0031 31.5785C14.5734 28.506 14.1163 25.0926 15.1897 21.8268C15.3515 21.4228 15.5299 21.0345 15.7227 20.6444C15.7784 20.5232 15.8341 20.4019 15.8915 20.277C16.6419 18.7584 17.8715 17.1689 19.4141 16.4061C19.5008 16.3605 19.5875 16.3149 19.6769 16.2678C20.3918 15.9616 21.1176 15.9587 21.8836 15.9533Z" fill="#F9F9F9"/>
</g>
<defs>
<clipPath id="clip0_667_3662">
<rect width="70" height="70" fill="white"/>
</clipPath>
</defs>
</svg>
