<svg width="31" height="31" viewBox="0 0 31 31" fill="none" xmlns="http://www.w3.org/2000/svg">
<rect width="31" height="31" fill="white"/>
<path d="M19.4783 22.0868C19.5534 22.202 19.596 22.3353 19.6016 22.4726C19.6072 22.61 19.5755 22.7463 19.5101 22.8672C19.4446 22.9881 19.3477 23.0891 19.2296 23.1594C19.1115 23.2298 18.9765 23.267 18.8391 23.267H4.76314C4.62566 23.267 4.49073 23.2298 4.37262 23.1594C4.25451 23.0891 4.1576 22.9881 4.09212 22.8672C4.02664 22.7463 3.99503 22.61 4.00063 22.4726C4.00623 22.3353 4.04883 22.202 4.12393 22.0868C5.19828 20.4331 6.77854 19.1711 8.62891 18.4891C7.60599 17.8081 6.82937 16.816 6.41391 15.6595C5.99845 14.503 5.96621 13.2435 6.32194 12.0672C6.67767 10.8909 7.40249 9.86038 8.38923 9.12793C9.37596 8.39547 10.5722 8 11.8011 8C13.03 8 14.2262 8.39547 15.213 9.12793C16.1997 9.86038 16.9245 10.8909 17.2803 12.0672C17.636 13.2435 17.6037 14.503 17.1883 15.6595C16.7728 16.816 15.9962 17.8081 14.9733 18.4891C16.8236 19.1711 18.4039 20.4331 19.4783 22.0868ZM27.8652 22.0725C26.7906 20.4258 25.2139 19.1692 23.3688 18.4891C24.5764 17.6757 25.4287 16.4326 25.7521 15.0129C26.0755 13.5933 25.8457 12.1037 25.1096 10.8475C24.3734 9.59125 23.1863 8.66275 21.7897 8.25097C20.3931 7.8392 18.892 7.97511 17.5921 8.63104C17.5424 8.6567 17.499 8.69298 17.4648 8.73731C17.4307 8.78163 17.4067 8.83292 17.3946 8.88753C17.3825 8.94215 17.3826 8.99876 17.3948 9.05335C17.407 9.10795 17.431 9.15919 17.4652 9.20346C18.4318 10.4092 18.987 11.8927 19.0493 13.4368C19.1116 14.9809 18.6778 16.5044 17.8115 17.7841C17.7556 17.8677 17.7349 17.9701 17.754 18.0689C17.7731 18.1677 17.8305 18.255 17.9136 18.3117C19.0431 19.1 20.01 20.0986 20.7614 21.253C21.0645 21.7171 21.1883 22.2756 21.1097 22.8243C21.1008 22.8789 21.1039 22.9347 21.1188 22.988C21.1337 23.0412 21.1599 23.0906 21.1958 23.1327C21.2316 23.1748 21.2762 23.2086 21.3264 23.2318C21.3766 23.255 21.4312 23.267 21.4865 23.267H27.2394C27.4074 23.267 27.5708 23.2116 27.7042 23.1093C27.8375 23.007 27.9334 22.8636 27.9768 22.7012C28.0034 22.5945 28.0072 22.4833 27.9879 22.375C27.9687 22.2667 27.9269 22.1636 27.8652 22.0725Z" fill="#2D3D4D"/>
</svg>
